%TF.GenerationSoftware,KiCad,Pcbnew,10.0.4*%
%TF.CreationDate,2026-07-23T14:38:40-07:00*%
%TF.ProjectId,scale,7363616c-652e-46b6-9963-61645f706362,rev?*%
%TF.SameCoordinates,Original*%
%TF.FileFunction,Soldermask,Top*%
%TF.FilePolarity,Negative*%
%FSLAX46Y46*%
G04 Gerber Fmt 4.6, Leading zero omitted, Abs format (unit mm)*
G04 Created by KiCad (PCBNEW 10.0.4) date 2026-07-23 14:38:40*
%MOMM*%
%LPD*%
G01*
G04 APERTURE LIST*
%ADD10R,0.806475X0.864006*%
%ADD11R,0.499999X0.540004*%
%ADD12R,0.799998X0.899998*%
%ADD13R,0.565658X0.540004*%
%ADD14R,0.299999X0.599999*%
%ADD15R,0.999998X0.750011*%
%ADD16R,0.799998X0.864006*%
%ADD17C,6.000000*%
%ADD18R,0.280010X0.499999*%
%ADD19R,0.499999X0.280010*%
%ADD20R,5.499989X1.999996*%
%ADD21R,2.199996X0.799998*%
%ADD22O,1.199998X1.999996*%
%ADD23O,1.199998X1.799996*%
%ADD24R,0.299999X1.299997*%
%ADD25R,1.799996X0.999998*%
%ADD26O,0.629996X1.864995*%
%ADD27R,3.299993X2.399995*%
%ADD28O,0.280010X1.499997*%
%ADD29R,4.850003X4.850003*%
%ADD30C,0.250012*%
G04 APERTURE END LIST*
D10*
%TO.C,R7*%
X-753364Y0D03*
X753364Y0D03*
%TD*%
D11*
%TO.C,C16*%
X-420116Y0D03*
X420116Y0D03*
%TD*%
D12*
%TO.C,C26*%
X-700023Y0D03*
X700023Y0D03*
%TD*%
D13*
%TO.C,R12*%
X-432816Y0D03*
X432816Y0D03*
%TD*%
D11*
%TO.C,C6*%
X-420116Y0D03*
X420116Y0D03*
%TD*%
%TO.C,C11*%
X-420116Y0D03*
X420116Y0D03*
%TD*%
D14*
%TO.C,D2*%
X-324992Y0D03*
X324993Y0D03*
%TD*%
D11*
%TO.C,C2*%
X-420116Y0D03*
X420116Y0D03*
%TD*%
D15*
%TO.C,SW1*%
X-2999994Y1849881D03*
X2999994Y1849881D03*
X-2999994Y-1849881D03*
X2999994Y-1849881D03*
%TD*%
D11*
%TO.C,C22*%
X-420116Y0D03*
X420116Y0D03*
%TD*%
D10*
%TO.C,R9*%
X-753364Y0D03*
X753364Y0D03*
%TD*%
D16*
%TO.C,FB1*%
X-699897Y0D03*
X699896Y0D03*
%TD*%
D13*
%TO.C,R1*%
X-432816Y0D03*
X432816Y0D03*
%TD*%
D11*
%TO.C,C20*%
X-420116Y0D03*
X420116Y0D03*
%TD*%
D13*
%TO.C,R21*%
X-432816Y0D03*
X432816Y0D03*
%TD*%
D11*
%TO.C,C10*%
X-420116Y0D03*
X420116Y0D03*
%TD*%
D13*
%TO.C,R4*%
X-432816Y0D03*
X432816Y0D03*
%TD*%
D11*
%TO.C,C24*%
X-420116Y0D03*
X420116Y0D03*
%TD*%
%TO.C,C12*%
X-420116Y0D03*
X420116Y0D03*
%TD*%
%TO.C,C23*%
X-420116Y0D03*
X420116Y0D03*
%TD*%
D17*
%TO.C,E3*%
X18000000Y-75000000D03*
%TD*%
%TO.C,E4*%
X95000000Y-75000000D03*
%TD*%
D13*
%TO.C,R14*%
X-432816Y0D03*
X432816Y0D03*
%TD*%
D11*
%TO.C,C15*%
X-420116Y0D03*
X420116Y0D03*
%TD*%
D10*
%TO.C,R8*%
X-753364Y0D03*
X753364Y0D03*
%TD*%
D11*
%TO.C,C25*%
X-420116Y0D03*
X420116Y0D03*
%TD*%
D13*
%TO.C,R5*%
X-432816Y0D03*
X432816Y0D03*
%TD*%
D11*
%TO.C,C4*%
X-420116Y0D03*
X420116Y0D03*
%TD*%
D18*
%TO.C,U4*%
X-750061Y-875030D03*
X-249935Y-875030D03*
X249936Y-875030D03*
X750062Y-875030D03*
D19*
X875030Y-249936D03*
X875030Y249935D03*
D18*
X750062Y875029D03*
X249936Y875029D03*
X-249935Y875029D03*
X-750061Y875029D03*
D19*
X-875029Y249935D03*
X-875029Y-249936D03*
%TD*%
D20*
%TO.C,Y2*%
X-4450079Y0D03*
X4450080Y0D03*
%TD*%
D11*
%TO.C,C18*%
X-420116Y0D03*
X420116Y0D03*
%TD*%
D21*
%TO.C,L1*%
X-999998Y0D03*
X999998Y0D03*
%TD*%
D13*
%TO.C,R18*%
X-432816Y0D03*
X432816Y0D03*
%TD*%
D22*
%TO.C,J1*%
X4325111Y1705736D03*
D23*
X4325111Y-2474086D03*
X-4325112Y-2474086D03*
D22*
X-4325112Y1705736D03*
D24*
X-1249934Y2474087D03*
X-249936Y2474087D03*
X249935Y2474087D03*
X1249679Y2474087D03*
X1750059Y2474087D03*
X750061Y2474087D03*
X-750062Y2474087D03*
X-1750060Y2474087D03*
%TD*%
D13*
%TO.C,R3*%
X-432816Y0D03*
X432816Y0D03*
%TD*%
D11*
%TO.C,C13*%
X-420116Y0D03*
X420116Y0D03*
%TD*%
D13*
%TO.C,R22*%
X-432816Y0D03*
X432816Y0D03*
%TD*%
D14*
%TO.C,D1*%
X-324992Y0D03*
X324993Y0D03*
%TD*%
D11*
%TO.C,C21*%
X-420116Y0D03*
X420116Y0D03*
%TD*%
D25*
%TO.C,Y1*%
X-1250061Y-127D03*
X1250060Y-127D03*
%TD*%
D13*
%TO.C,R15*%
X-432816Y0D03*
X432816Y0D03*
%TD*%
D17*
%TO.C,E2*%
X112000000Y-15000000D03*
%TD*%
D11*
%TO.C,C28*%
X-420116Y0D03*
X420116Y0D03*
%TD*%
D13*
%TO.C,R19*%
X-432816Y0D03*
X432816Y0D03*
%TD*%
%TO.C,R2*%
X-432816Y0D03*
X432816Y0D03*
%TD*%
D11*
%TO.C,C30*%
X-420116Y0D03*
X420116Y0D03*
%TD*%
%TO.C,C5*%
X-420116Y0D03*
X420116Y0D03*
%TD*%
D13*
%TO.C,R6*%
X-432816Y0D03*
X432816Y0D03*
%TD*%
%TO.C,R17*%
X-432816Y0D03*
X432816Y0D03*
%TD*%
D11*
%TO.C,C17*%
X-420116Y0D03*
X420116Y0D03*
%TD*%
%TO.C,C3*%
X-420116Y0D03*
X420116Y0D03*
%TD*%
D14*
%TO.C,D3*%
X-324992Y0D03*
X324993Y0D03*
%TD*%
D10*
%TO.C,R10*%
X-753364Y0D03*
X753364Y0D03*
%TD*%
D13*
%TO.C,R23*%
X-432816Y0D03*
X432816Y0D03*
%TD*%
%TO.C,R20*%
X-432816Y0D03*
X432816Y0D03*
%TD*%
D11*
%TO.C,C7*%
X-420116Y0D03*
X420116Y0D03*
%TD*%
D13*
%TO.C,R11*%
X-432816Y0D03*
X432816Y0D03*
%TD*%
D11*
%TO.C,C14*%
X-420116Y0D03*
X420116Y0D03*
%TD*%
%TO.C,C1*%
X-420116Y0D03*
X420116Y0D03*
%TD*%
D26*
%TO.C,U3*%
X-1904999Y-2682494D03*
X-634999Y-2682494D03*
X634999Y-2682494D03*
X1904999Y-2682494D03*
X1904999Y2682494D03*
X634999Y2682494D03*
X-634999Y2682494D03*
X-1904999Y2682494D03*
D27*
X0Y0D03*
%TD*%
D17*
%TO.C,E1*%
X18000000Y-15000000D03*
%TD*%
%TO.C,ANT1*%
X115000000Y-82000000D03*
%TD*%
D11*
%TO.C,C19*%
X-420116Y0D03*
X420116Y0D03*
%TD*%
D13*
%TO.C,R16*%
X-432816Y0D03*
X432816Y0D03*
%TD*%
D28*
%TO.C,U2*%
X-6899934Y4750130D03*
X-6899934Y4250003D03*
X-6899934Y3750132D03*
X-6899934Y3250006D03*
X-6899934Y2750133D03*
X-6899934Y2250008D03*
X-6899934Y1750136D03*
X-6899934Y1250009D03*
X-6899934Y750137D03*
X-6899934Y250012D03*
X-6899934Y-249859D03*
X-6899934Y-749985D03*
X-6899934Y-1249858D03*
X-6899934Y-1749983D03*
X-6899934Y-2249856D03*
X-6899934Y-2749982D03*
X-6899934Y-3249853D03*
X-6899934Y-3749980D03*
X-6899934Y-4249851D03*
X-6899934Y-4749977D03*
X-4750078Y-6899833D03*
X-4249953Y-6899833D03*
X-3750081Y-6899833D03*
X-3249955Y-6899833D03*
X-2750083Y-6899833D03*
X-2249957Y-6899833D03*
X-1750085Y-6899833D03*
X-1249959Y-6899833D03*
X-750087Y-6899833D03*
X-249961Y-6899833D03*
X249910Y-6899833D03*
X750036Y-6899833D03*
X1249908Y-6899833D03*
X1750034Y-6899833D03*
X2249906Y-6899833D03*
X2750032Y-6899833D03*
X3249904Y-6899833D03*
X3750030Y-6899833D03*
X4249902Y-6899833D03*
X4750028Y-6899833D03*
X6899884Y-4749977D03*
X6899884Y-4249851D03*
X6899884Y-3749980D03*
X6899884Y-3249853D03*
X6899884Y-2749982D03*
X6899884Y-2249856D03*
X6899884Y-1749983D03*
X6899884Y-1249858D03*
X6899884Y-749985D03*
X6899884Y-249859D03*
X6899884Y250012D03*
X6899884Y750137D03*
X6899884Y1250009D03*
X6899884Y1750136D03*
X6899884Y2250008D03*
X6899884Y2750133D03*
X6899884Y3250006D03*
X6899884Y3750132D03*
X6899884Y4250003D03*
X6899884Y4750130D03*
X4750028Y6899986D03*
X4249902Y6899986D03*
X3750030Y6899986D03*
X3249904Y6899986D03*
X2750032Y6899986D03*
X2249906Y6899986D03*
X1750034Y6899986D03*
X1249908Y6899986D03*
X750036Y6899986D03*
X249910Y6899986D03*
X-249961Y6899986D03*
X-750087Y6899986D03*
X-1249959Y6899986D03*
X-1750085Y6899986D03*
X-2249957Y6899986D03*
X-2750083Y6899986D03*
X-3249955Y6899986D03*
X-3750081Y6899986D03*
X-4249953Y6899986D03*
X-4750078Y6899986D03*
%TD*%
D11*
%TO.C,C9*%
X-420116Y0D03*
X420116Y0D03*
%TD*%
%TO.C,C8*%
X-420116Y0D03*
X420116Y0D03*
%TD*%
D13*
%TO.C,R13*%
X-432816Y0D03*
X432816Y0D03*
%TD*%
D11*
%TO.C,C29*%
X-420116Y0D03*
X420116Y0D03*
%TD*%
D29*
%TO.C,U1*%
X0Y0D03*
D30*
X-3249929Y-1249933D03*
X-3249929Y-750061D03*
X-3249929Y-249935D03*
X-3249929Y249936D03*
X-3249929Y750061D03*
X-3249929Y1249934D03*
X-3249929Y1750060D03*
X-3249929Y2249932D03*
X-3249929Y2750058D03*
X2249932Y3249930D03*
X2500122Y-2750057D03*
X2750057Y-1999995D03*
X2750057Y-999997D03*
X2750057Y-499871D03*
X2750057Y0D03*
X2750057Y500126D03*
X2750057Y999998D03*
X2750057Y1500123D03*
X2750057Y1999996D03*
X2750057Y3249930D03*
X3249930Y-2750057D03*
X3249930Y-2249932D03*
X3249930Y-1750059D03*
X3249930Y-1249933D03*
X3249930Y-750061D03*
X3249930Y-249935D03*
X3249930Y249936D03*
X3249930Y750061D03*
X3249930Y1249934D03*
X3249930Y1750060D03*
X3249930Y2249932D03*
X3249930Y2750058D03*
X-2750057Y-3249929D03*
X-2750057Y-2499867D03*
X-2750057Y-1999995D03*
X-2750057Y-1499870D03*
X-2750057Y-999997D03*
X-2750057Y-499871D03*
X-2750057Y0D03*
X-2750057Y500126D03*
X-2750057Y999998D03*
X-2750057Y1500123D03*
X-2750057Y3249930D03*
X-2249932Y-3249929D03*
X-1999995Y-2750057D03*
X-1999995Y2750058D03*
X-1750060Y3249930D03*
X-1499870Y-2750057D03*
X-1499870Y2750058D03*
X-1249933Y-3249929D03*
X-999998Y-2750057D03*
X-999998Y2750058D03*
X-750061Y-3249929D03*
X-750061Y3249930D03*
X-499871Y-2750057D03*
X-249936Y-3249929D03*
X-249936Y3249930D03*
X0Y-2750057D03*
X249936Y-3249929D03*
X249936Y3249930D03*
X500125Y-2750057D03*
X499871Y2750058D03*
X750061Y-3249929D03*
X750061Y3249930D03*
X999998Y-2750057D03*
X999998Y2750058D03*
X1249933Y-3249929D03*
X1249933Y3249930D03*
X1499870Y2750058D03*
X1750060Y-3249929D03*
X1750060Y3249930D03*
X1999995Y-2750057D03*
X1999995Y2750058D03*
%TD*%
D14*
%TO.C,D4*%
X-324992Y0D03*
X324993Y0D03*
%TD*%
D12*
%TO.C,C27*%
X-700023Y0D03*
X700023Y0D03*
%TD*%
M02*
