%TF.GenerationSoftware,KiCad,Pcbnew,10.0.4*%
%TF.CreationDate,2026-07-23T14:38:40-07:00*%
%TF.ProjectId,scale,7363616c-652e-46b6-9963-61645f706362,rev?*%
%TF.SameCoordinates,Original*%
%TF.FileFunction,AssemblyDrawing,Top*%
%FSLAX46Y46*%
G04 Gerber Fmt 4.6, Leading zero omitted, Abs format (unit mm)*
G04 Created by KiCad (PCBNEW 10.0.4) date 2026-07-23 14:38:40*
%MOMM*%
%LPD*%
G01*
G04 APERTURE LIST*
%ADD10C,0.158750*%
G04 APERTURE END LIST*
D10*
X14155476Y-14309271D02*
X14941667Y-14309271D01*
X14941667Y-14309271D02*
X14518333Y-14793080D01*
X14518333Y-14793080D02*
X14699762Y-14793080D01*
X14699762Y-14793080D02*
X14820714Y-14853556D01*
X14820714Y-14853556D02*
X14881190Y-14914033D01*
X14881190Y-14914033D02*
X14941667Y-15034985D01*
X14941667Y-15034985D02*
X14941667Y-15337366D01*
X14941667Y-15337366D02*
X14881190Y-15458318D01*
X14881190Y-15458318D02*
X14820714Y-15518795D01*
X14820714Y-15518795D02*
X14699762Y-15579271D01*
X14699762Y-15579271D02*
X14336905Y-15579271D01*
X14336905Y-15579271D02*
X14215952Y-15518795D01*
X14215952Y-15518795D02*
X14155476Y-15458318D01*
X15485952Y-15458318D02*
X15546429Y-15518795D01*
X15546429Y-15518795D02*
X15485952Y-15579271D01*
X15485952Y-15579271D02*
X15425476Y-15518795D01*
X15425476Y-15518795D02*
X15485952Y-15458318D01*
X15485952Y-15458318D02*
X15485952Y-15579271D01*
X15969762Y-14309271D02*
X16755953Y-14309271D01*
X16755953Y-14309271D02*
X16332619Y-14793080D01*
X16332619Y-14793080D02*
X16514048Y-14793080D01*
X16514048Y-14793080D02*
X16635000Y-14853556D01*
X16635000Y-14853556D02*
X16695476Y-14914033D01*
X16695476Y-14914033D02*
X16755953Y-15034985D01*
X16755953Y-15034985D02*
X16755953Y-15337366D01*
X16755953Y-15337366D02*
X16695476Y-15458318D01*
X16695476Y-15458318D02*
X16635000Y-15518795D01*
X16635000Y-15518795D02*
X16514048Y-15579271D01*
X16514048Y-15579271D02*
X16151191Y-15579271D01*
X16151191Y-15579271D02*
X16030238Y-15518795D01*
X16030238Y-15518795D02*
X15969762Y-15458318D01*
X17300238Y-15579271D02*
X17300238Y-14309271D01*
X17421191Y-15095461D02*
X17784048Y-15579271D01*
X17784048Y-14732604D02*
X17300238Y-15216414D01*
X28639286Y-30579271D02*
X27913571Y-30579271D01*
X28276428Y-30579271D02*
X28276428Y-29309271D01*
X28276428Y-29309271D02*
X28155476Y-29490699D01*
X28155476Y-29490699D02*
X28034524Y-29611652D01*
X28034524Y-29611652D02*
X27913571Y-29672128D01*
X29425476Y-29309271D02*
X29546429Y-29309271D01*
X29546429Y-29309271D02*
X29667381Y-29369747D01*
X29667381Y-29369747D02*
X29727857Y-29430223D01*
X29727857Y-29430223D02*
X29788333Y-29551175D01*
X29788333Y-29551175D02*
X29848810Y-29793080D01*
X29848810Y-29793080D02*
X29848810Y-30095461D01*
X29848810Y-30095461D02*
X29788333Y-30337366D01*
X29788333Y-30337366D02*
X29727857Y-30458318D01*
X29727857Y-30458318D02*
X29667381Y-30518795D01*
X29667381Y-30518795D02*
X29546429Y-30579271D01*
X29546429Y-30579271D02*
X29425476Y-30579271D01*
X29425476Y-30579271D02*
X29304524Y-30518795D01*
X29304524Y-30518795D02*
X29244048Y-30458318D01*
X29244048Y-30458318D02*
X29183571Y-30337366D01*
X29183571Y-30337366D02*
X29123095Y-30095461D01*
X29123095Y-30095461D02*
X29123095Y-29793080D01*
X29123095Y-29793080D02*
X29183571Y-29551175D01*
X29183571Y-29551175D02*
X29244048Y-29430223D01*
X29244048Y-29430223D02*
X29304524Y-29369747D01*
X29304524Y-29369747D02*
X29425476Y-29309271D01*
X30393095Y-29732604D02*
X30393095Y-30579271D01*
X30393095Y-29853556D02*
X30453572Y-29793080D01*
X30453572Y-29793080D02*
X30574524Y-29732604D01*
X30574524Y-29732604D02*
X30755953Y-29732604D01*
X30755953Y-29732604D02*
X30876905Y-29793080D01*
X30876905Y-29793080D02*
X30937381Y-29914033D01*
X30937381Y-29914033D02*
X30937381Y-30579271D01*
X31965477Y-29914033D02*
X31542143Y-29914033D01*
X31542143Y-30579271D02*
X31542143Y-29309271D01*
X31542143Y-29309271D02*
X32146905Y-29309271D01*
X27913571Y-14430223D02*
X27974047Y-14369747D01*
X27974047Y-14369747D02*
X28095000Y-14309271D01*
X28095000Y-14309271D02*
X28397381Y-14309271D01*
X28397381Y-14309271D02*
X28518333Y-14369747D01*
X28518333Y-14369747D02*
X28578809Y-14430223D01*
X28578809Y-14430223D02*
X28639286Y-14551175D01*
X28639286Y-14551175D02*
X28639286Y-14672128D01*
X28639286Y-14672128D02*
X28578809Y-14853556D01*
X28578809Y-14853556D02*
X27853095Y-15579271D01*
X27853095Y-15579271D02*
X28639286Y-15579271D01*
X29123095Y-14430223D02*
X29183571Y-14369747D01*
X29183571Y-14369747D02*
X29304524Y-14309271D01*
X29304524Y-14309271D02*
X29606905Y-14309271D01*
X29606905Y-14309271D02*
X29727857Y-14369747D01*
X29727857Y-14369747D02*
X29788333Y-14430223D01*
X29788333Y-14430223D02*
X29848810Y-14551175D01*
X29848810Y-14551175D02*
X29848810Y-14672128D01*
X29848810Y-14672128D02*
X29788333Y-14853556D01*
X29788333Y-14853556D02*
X29062619Y-15579271D01*
X29062619Y-15579271D02*
X29848810Y-15579271D01*
X30937381Y-14732604D02*
X30937381Y-15579271D01*
X30393095Y-14732604D02*
X30393095Y-15397842D01*
X30393095Y-15397842D02*
X30453572Y-15518795D01*
X30453572Y-15518795D02*
X30574524Y-15579271D01*
X30574524Y-15579271D02*
X30755953Y-15579271D01*
X30755953Y-15579271D02*
X30876905Y-15518795D01*
X30876905Y-15518795D02*
X30937381Y-15458318D01*
X31965477Y-14914033D02*
X31542143Y-14914033D01*
X31542143Y-15579271D02*
X31542143Y-14309271D01*
X31542143Y-14309271D02*
X32146905Y-14309271D01*
X55820714Y-54732604D02*
X55820714Y-55579271D01*
X55518333Y-54248795D02*
X55215952Y-55155937D01*
X55215952Y-55155937D02*
X56002143Y-55155937D01*
X56485952Y-55458318D02*
X56546429Y-55518795D01*
X56546429Y-55518795D02*
X56485952Y-55579271D01*
X56485952Y-55579271D02*
X56425476Y-55518795D01*
X56425476Y-55518795D02*
X56485952Y-55458318D01*
X56485952Y-55458318D02*
X56485952Y-55579271D01*
X56969762Y-54309271D02*
X57816429Y-54309271D01*
X57816429Y-54309271D02*
X57272143Y-55579271D01*
X58300238Y-55579271D02*
X58300238Y-54309271D01*
X58421191Y-55095461D02*
X58784048Y-55579271D01*
X58784048Y-54732604D02*
X58300238Y-55216414D01*
X30034524Y-22579271D02*
X29308809Y-22579271D01*
X29671666Y-22579271D02*
X29671666Y-21309271D01*
X29671666Y-21309271D02*
X29550714Y-21490699D01*
X29550714Y-21490699D02*
X29429762Y-21611652D01*
X29429762Y-21611652D02*
X29308809Y-21672128D01*
X30820714Y-21309271D02*
X30941667Y-21309271D01*
X30941667Y-21309271D02*
X31062619Y-21369747D01*
X31062619Y-21369747D02*
X31123095Y-21430223D01*
X31123095Y-21430223D02*
X31183571Y-21551175D01*
X31183571Y-21551175D02*
X31244048Y-21793080D01*
X31244048Y-21793080D02*
X31244048Y-22095461D01*
X31244048Y-22095461D02*
X31183571Y-22337366D01*
X31183571Y-22337366D02*
X31123095Y-22458318D01*
X31123095Y-22458318D02*
X31062619Y-22518795D01*
X31062619Y-22518795D02*
X30941667Y-22579271D01*
X30941667Y-22579271D02*
X30820714Y-22579271D01*
X30820714Y-22579271D02*
X30699762Y-22518795D01*
X30699762Y-22518795D02*
X30639286Y-22458318D01*
X30639286Y-22458318D02*
X30578809Y-22337366D01*
X30578809Y-22337366D02*
X30518333Y-22095461D01*
X30518333Y-22095461D02*
X30518333Y-21793080D01*
X30518333Y-21793080D02*
X30578809Y-21551175D01*
X30578809Y-21551175D02*
X30639286Y-21430223D01*
X30639286Y-21430223D02*
X30699762Y-21369747D01*
X30699762Y-21369747D02*
X30820714Y-21309271D01*
X32030238Y-21309271D02*
X32151191Y-21309271D01*
X32151191Y-21309271D02*
X32272143Y-21369747D01*
X32272143Y-21369747D02*
X32332619Y-21430223D01*
X32332619Y-21430223D02*
X32393095Y-21551175D01*
X32393095Y-21551175D02*
X32453572Y-21793080D01*
X32453572Y-21793080D02*
X32453572Y-22095461D01*
X32453572Y-22095461D02*
X32393095Y-22337366D01*
X32393095Y-22337366D02*
X32332619Y-22458318D01*
X32332619Y-22458318D02*
X32272143Y-22518795D01*
X32272143Y-22518795D02*
X32151191Y-22579271D01*
X32151191Y-22579271D02*
X32030238Y-22579271D01*
X32030238Y-22579271D02*
X31909286Y-22518795D01*
X31909286Y-22518795D02*
X31848810Y-22458318D01*
X31848810Y-22458318D02*
X31788333Y-22337366D01*
X31788333Y-22337366D02*
X31727857Y-22095461D01*
X31727857Y-22095461D02*
X31727857Y-21793080D01*
X31727857Y-21793080D02*
X31788333Y-21551175D01*
X31788333Y-21551175D02*
X31848810Y-21430223D01*
X31848810Y-21430223D02*
X31909286Y-21369747D01*
X31909286Y-21369747D02*
X32030238Y-21309271D01*
X32997857Y-21732604D02*
X32997857Y-22579271D01*
X32997857Y-21853556D02*
X33058334Y-21793080D01*
X33058334Y-21793080D02*
X33179286Y-21732604D01*
X33179286Y-21732604D02*
X33360715Y-21732604D01*
X33360715Y-21732604D02*
X33481667Y-21793080D01*
X33481667Y-21793080D02*
X33542143Y-21914033D01*
X33542143Y-21914033D02*
X33542143Y-22579271D01*
X34570239Y-21914033D02*
X34146905Y-21914033D01*
X34146905Y-22579271D02*
X34146905Y-21309271D01*
X34146905Y-21309271D02*
X34751667Y-21309271D01*
X64034524Y-81579271D02*
X63308809Y-81579271D01*
X63671666Y-81579271D02*
X63671666Y-80309271D01*
X63671666Y-80309271D02*
X63550714Y-80490699D01*
X63550714Y-80490699D02*
X63429762Y-80611652D01*
X63429762Y-80611652D02*
X63308809Y-80672128D01*
X64820714Y-80309271D02*
X64941667Y-80309271D01*
X64941667Y-80309271D02*
X65062619Y-80369747D01*
X65062619Y-80369747D02*
X65123095Y-80430223D01*
X65123095Y-80430223D02*
X65183571Y-80551175D01*
X65183571Y-80551175D02*
X65244048Y-80793080D01*
X65244048Y-80793080D02*
X65244048Y-81095461D01*
X65244048Y-81095461D02*
X65183571Y-81337366D01*
X65183571Y-81337366D02*
X65123095Y-81458318D01*
X65123095Y-81458318D02*
X65062619Y-81518795D01*
X65062619Y-81518795D02*
X64941667Y-81579271D01*
X64941667Y-81579271D02*
X64820714Y-81579271D01*
X64820714Y-81579271D02*
X64699762Y-81518795D01*
X64699762Y-81518795D02*
X64639286Y-81458318D01*
X64639286Y-81458318D02*
X64578809Y-81337366D01*
X64578809Y-81337366D02*
X64518333Y-81095461D01*
X64518333Y-81095461D02*
X64518333Y-80793080D01*
X64518333Y-80793080D02*
X64578809Y-80551175D01*
X64578809Y-80551175D02*
X64639286Y-80430223D01*
X64639286Y-80430223D02*
X64699762Y-80369747D01*
X64699762Y-80369747D02*
X64820714Y-80309271D01*
X66030238Y-80309271D02*
X66151191Y-80309271D01*
X66151191Y-80309271D02*
X66272143Y-80369747D01*
X66272143Y-80369747D02*
X66332619Y-80430223D01*
X66332619Y-80430223D02*
X66393095Y-80551175D01*
X66393095Y-80551175D02*
X66453572Y-80793080D01*
X66453572Y-80793080D02*
X66453572Y-81095461D01*
X66453572Y-81095461D02*
X66393095Y-81337366D01*
X66393095Y-81337366D02*
X66332619Y-81458318D01*
X66332619Y-81458318D02*
X66272143Y-81518795D01*
X66272143Y-81518795D02*
X66151191Y-81579271D01*
X66151191Y-81579271D02*
X66030238Y-81579271D01*
X66030238Y-81579271D02*
X65909286Y-81518795D01*
X65909286Y-81518795D02*
X65848810Y-81458318D01*
X65848810Y-81458318D02*
X65788333Y-81337366D01*
X65788333Y-81337366D02*
X65727857Y-81095461D01*
X65727857Y-81095461D02*
X65727857Y-80793080D01*
X65727857Y-80793080D02*
X65788333Y-80551175D01*
X65788333Y-80551175D02*
X65848810Y-80430223D01*
X65848810Y-80430223D02*
X65909286Y-80369747D01*
X65909286Y-80369747D02*
X66030238Y-80309271D01*
X66997857Y-80732604D02*
X66997857Y-81579271D01*
X66997857Y-80853556D02*
X67058334Y-80793080D01*
X67058334Y-80793080D02*
X67179286Y-80732604D01*
X67179286Y-80732604D02*
X67360715Y-80732604D01*
X67360715Y-80732604D02*
X67481667Y-80793080D01*
X67481667Y-80793080D02*
X67542143Y-80914033D01*
X67542143Y-80914033D02*
X67542143Y-81579271D01*
X68570239Y-80914033D02*
X68146905Y-80914033D01*
X68146905Y-81579271D02*
X68146905Y-80309271D01*
X68146905Y-80309271D02*
X68751667Y-80309271D01*
X105740713Y-15579271D02*
X105740713Y-14309271D01*
X105740713Y-14309271D02*
X106224523Y-14309271D01*
X106224523Y-14309271D02*
X106345475Y-14369747D01*
X106345475Y-14369747D02*
X106405952Y-14430223D01*
X106405952Y-14430223D02*
X106466428Y-14551175D01*
X106466428Y-14551175D02*
X106466428Y-14732604D01*
X106466428Y-14732604D02*
X106405952Y-14853556D01*
X106405952Y-14853556D02*
X106345475Y-14914033D01*
X106345475Y-14914033D02*
X106224523Y-14974509D01*
X106224523Y-14974509D02*
X105740713Y-14974509D01*
X107010713Y-14914033D02*
X107434047Y-14914033D01*
X107615475Y-15579271D02*
X107010713Y-15579271D01*
X107010713Y-15579271D02*
X107010713Y-14309271D01*
X107010713Y-14309271D02*
X107615475Y-14309271D01*
X108099285Y-15518795D02*
X108280714Y-15579271D01*
X108280714Y-15579271D02*
X108583095Y-15579271D01*
X108583095Y-15579271D02*
X108704047Y-15518795D01*
X108704047Y-15518795D02*
X108764523Y-15458318D01*
X108764523Y-15458318D02*
X108825000Y-15337366D01*
X108825000Y-15337366D02*
X108825000Y-15216414D01*
X108825000Y-15216414D02*
X108764523Y-15095461D01*
X108764523Y-15095461D02*
X108704047Y-15034985D01*
X108704047Y-15034985D02*
X108583095Y-14974509D01*
X108583095Y-14974509D02*
X108341190Y-14914033D01*
X108341190Y-14914033D02*
X108220238Y-14853556D01*
X108220238Y-14853556D02*
X108159761Y-14793080D01*
X108159761Y-14793080D02*
X108099285Y-14672128D01*
X108099285Y-14672128D02*
X108099285Y-14551175D01*
X108099285Y-14551175D02*
X108159761Y-14430223D01*
X108159761Y-14430223D02*
X108220238Y-14369747D01*
X108220238Y-14369747D02*
X108341190Y-14309271D01*
X108341190Y-14309271D02*
X108643571Y-14309271D01*
X108643571Y-14309271D02*
X108825000Y-14369747D01*
X109369285Y-15579271D02*
X109369285Y-14309271D01*
X109369285Y-14309271D02*
X109671666Y-14309271D01*
X109671666Y-14309271D02*
X109853095Y-14369747D01*
X109853095Y-14369747D02*
X109974047Y-14490699D01*
X109974047Y-14490699D02*
X110034524Y-14611652D01*
X110034524Y-14611652D02*
X110095000Y-14853556D01*
X110095000Y-14853556D02*
X110095000Y-15034985D01*
X110095000Y-15034985D02*
X110034524Y-15276890D01*
X110034524Y-15276890D02*
X109974047Y-15397842D01*
X109974047Y-15397842D02*
X109853095Y-15518795D01*
X109853095Y-15518795D02*
X109671666Y-15579271D01*
X109671666Y-15579271D02*
X109369285Y-15579271D01*
X111244047Y-14309271D02*
X110639285Y-14309271D01*
X110639285Y-14309271D02*
X110578809Y-14914033D01*
X110578809Y-14914033D02*
X110639285Y-14853556D01*
X110639285Y-14853556D02*
X110760238Y-14793080D01*
X110760238Y-14793080D02*
X111062619Y-14793080D01*
X111062619Y-14793080D02*
X111183571Y-14853556D01*
X111183571Y-14853556D02*
X111244047Y-14914033D01*
X111244047Y-14914033D02*
X111304524Y-15034985D01*
X111304524Y-15034985D02*
X111304524Y-15337366D01*
X111304524Y-15337366D02*
X111244047Y-15458318D01*
X111244047Y-15458318D02*
X111183571Y-15518795D01*
X111183571Y-15518795D02*
X111062619Y-15579271D01*
X111062619Y-15579271D02*
X110760238Y-15579271D01*
X110760238Y-15579271D02*
X110639285Y-15518795D01*
X110639285Y-15518795D02*
X110578809Y-15458318D01*
X111667381Y-14309271D02*
X112090714Y-15579271D01*
X112090714Y-15579271D02*
X112514048Y-14309271D01*
X113179285Y-14309271D02*
X113300238Y-14309271D01*
X113300238Y-14309271D02*
X113421190Y-14369747D01*
X113421190Y-14369747D02*
X113481666Y-14430223D01*
X113481666Y-14430223D02*
X113542142Y-14551175D01*
X113542142Y-14551175D02*
X113602619Y-14793080D01*
X113602619Y-14793080D02*
X113602619Y-15095461D01*
X113602619Y-15095461D02*
X113542142Y-15337366D01*
X113542142Y-15337366D02*
X113481666Y-15458318D01*
X113481666Y-15458318D02*
X113421190Y-15518795D01*
X113421190Y-15518795D02*
X113300238Y-15579271D01*
X113300238Y-15579271D02*
X113179285Y-15579271D01*
X113179285Y-15579271D02*
X113058333Y-15518795D01*
X113058333Y-15518795D02*
X112997857Y-15458318D01*
X112997857Y-15458318D02*
X112937380Y-15337366D01*
X112937380Y-15337366D02*
X112876904Y-15095461D01*
X112876904Y-15095461D02*
X112876904Y-14793080D01*
X112876904Y-14793080D02*
X112937380Y-14551175D01*
X112937380Y-14551175D02*
X112997857Y-14430223D01*
X112997857Y-14430223D02*
X113058333Y-14369747D01*
X113058333Y-14369747D02*
X113179285Y-14309271D01*
X114086428Y-15518795D02*
X114267857Y-15579271D01*
X114267857Y-15579271D02*
X114570238Y-15579271D01*
X114570238Y-15579271D02*
X114691190Y-15518795D01*
X114691190Y-15518795D02*
X114751666Y-15458318D01*
X114751666Y-15458318D02*
X114812143Y-15337366D01*
X114812143Y-15337366D02*
X114812143Y-15216414D01*
X114812143Y-15216414D02*
X114751666Y-15095461D01*
X114751666Y-15095461D02*
X114691190Y-15034985D01*
X114691190Y-15034985D02*
X114570238Y-14974509D01*
X114570238Y-14974509D02*
X114328333Y-14914033D01*
X114328333Y-14914033D02*
X114207381Y-14853556D01*
X114207381Y-14853556D02*
X114146904Y-14793080D01*
X114146904Y-14793080D02*
X114086428Y-14672128D01*
X114086428Y-14672128D02*
X114086428Y-14551175D01*
X114086428Y-14551175D02*
X114146904Y-14430223D01*
X114146904Y-14430223D02*
X114207381Y-14369747D01*
X114207381Y-14369747D02*
X114328333Y-14309271D01*
X114328333Y-14309271D02*
X114630714Y-14309271D01*
X114630714Y-14309271D02*
X114812143Y-14369747D01*
X116021667Y-15579271D02*
X115295952Y-15579271D01*
X115658809Y-15579271D02*
X115658809Y-14309271D01*
X115658809Y-14309271D02*
X115537857Y-14490699D01*
X115537857Y-14490699D02*
X115416905Y-14611652D01*
X115416905Y-14611652D02*
X115295952Y-14672128D01*
X116989286Y-14914033D02*
X117170714Y-14974509D01*
X117170714Y-14974509D02*
X117231191Y-15034985D01*
X117231191Y-15034985D02*
X117291667Y-15155937D01*
X117291667Y-15155937D02*
X117291667Y-15337366D01*
X117291667Y-15337366D02*
X117231191Y-15458318D01*
X117231191Y-15458318D02*
X117170714Y-15518795D01*
X117170714Y-15518795D02*
X117049762Y-15579271D01*
X117049762Y-15579271D02*
X116565952Y-15579271D01*
X116565952Y-15579271D02*
X116565952Y-14309271D01*
X116565952Y-14309271D02*
X116989286Y-14309271D01*
X116989286Y-14309271D02*
X117110238Y-14369747D01*
X117110238Y-14369747D02*
X117170714Y-14430223D01*
X117170714Y-14430223D02*
X117231191Y-14551175D01*
X117231191Y-14551175D02*
X117231191Y-14672128D01*
X117231191Y-14672128D02*
X117170714Y-14793080D01*
X117170714Y-14793080D02*
X117110238Y-14853556D01*
X117110238Y-14853556D02*
X116989286Y-14914033D01*
X116989286Y-14914033D02*
X116565952Y-14914033D01*
X118440714Y-15579271D02*
X117835952Y-15579271D01*
X117835952Y-15579271D02*
X117835952Y-14309271D01*
X106034524Y-16579271D02*
X105308809Y-16579271D01*
X105671666Y-16579271D02*
X105671666Y-15309271D01*
X105671666Y-15309271D02*
X105550714Y-15490699D01*
X105550714Y-15490699D02*
X105429762Y-15611652D01*
X105429762Y-15611652D02*
X105308809Y-15672128D01*
X106820714Y-15309271D02*
X106941667Y-15309271D01*
X106941667Y-15309271D02*
X107062619Y-15369747D01*
X107062619Y-15369747D02*
X107123095Y-15430223D01*
X107123095Y-15430223D02*
X107183571Y-15551175D01*
X107183571Y-15551175D02*
X107244048Y-15793080D01*
X107244048Y-15793080D02*
X107244048Y-16095461D01*
X107244048Y-16095461D02*
X107183571Y-16337366D01*
X107183571Y-16337366D02*
X107123095Y-16458318D01*
X107123095Y-16458318D02*
X107062619Y-16518795D01*
X107062619Y-16518795D02*
X106941667Y-16579271D01*
X106941667Y-16579271D02*
X106820714Y-16579271D01*
X106820714Y-16579271D02*
X106699762Y-16518795D01*
X106699762Y-16518795D02*
X106639286Y-16458318D01*
X106639286Y-16458318D02*
X106578809Y-16337366D01*
X106578809Y-16337366D02*
X106518333Y-16095461D01*
X106518333Y-16095461D02*
X106518333Y-15793080D01*
X106518333Y-15793080D02*
X106578809Y-15551175D01*
X106578809Y-15551175D02*
X106639286Y-15430223D01*
X106639286Y-15430223D02*
X106699762Y-15369747D01*
X106699762Y-15369747D02*
X106820714Y-15309271D01*
X108030238Y-15309271D02*
X108151191Y-15309271D01*
X108151191Y-15309271D02*
X108272143Y-15369747D01*
X108272143Y-15369747D02*
X108332619Y-15430223D01*
X108332619Y-15430223D02*
X108393095Y-15551175D01*
X108393095Y-15551175D02*
X108453572Y-15793080D01*
X108453572Y-15793080D02*
X108453572Y-16095461D01*
X108453572Y-16095461D02*
X108393095Y-16337366D01*
X108393095Y-16337366D02*
X108332619Y-16458318D01*
X108332619Y-16458318D02*
X108272143Y-16518795D01*
X108272143Y-16518795D02*
X108151191Y-16579271D01*
X108151191Y-16579271D02*
X108030238Y-16579271D01*
X108030238Y-16579271D02*
X107909286Y-16518795D01*
X107909286Y-16518795D02*
X107848810Y-16458318D01*
X107848810Y-16458318D02*
X107788333Y-16337366D01*
X107788333Y-16337366D02*
X107727857Y-16095461D01*
X107727857Y-16095461D02*
X107727857Y-15793080D01*
X107727857Y-15793080D02*
X107788333Y-15551175D01*
X107788333Y-15551175D02*
X107848810Y-15430223D01*
X107848810Y-15430223D02*
X107909286Y-15369747D01*
X107909286Y-15369747D02*
X108030238Y-15309271D01*
X108997857Y-15732604D02*
X108997857Y-16579271D01*
X108997857Y-15853556D02*
X109058334Y-15793080D01*
X109058334Y-15793080D02*
X109179286Y-15732604D01*
X109179286Y-15732604D02*
X109360715Y-15732604D01*
X109360715Y-15732604D02*
X109481667Y-15793080D01*
X109481667Y-15793080D02*
X109542143Y-15914033D01*
X109542143Y-15914033D02*
X109542143Y-16579271D01*
X110570239Y-15914033D02*
X110146905Y-15914033D01*
X110146905Y-16579271D02*
X110146905Y-15309271D01*
X110146905Y-15309271D02*
X110751667Y-15309271D01*
X58911428Y-85518795D02*
X59092857Y-85579271D01*
X59092857Y-85579271D02*
X59395238Y-85579271D01*
X59395238Y-85579271D02*
X59516190Y-85518795D01*
X59516190Y-85518795D02*
X59576666Y-85458318D01*
X59576666Y-85458318D02*
X59637143Y-85337366D01*
X59637143Y-85337366D02*
X59637143Y-85216414D01*
X59637143Y-85216414D02*
X59576666Y-85095461D01*
X59576666Y-85095461D02*
X59516190Y-85034985D01*
X59516190Y-85034985D02*
X59395238Y-84974509D01*
X59395238Y-84974509D02*
X59153333Y-84914033D01*
X59153333Y-84914033D02*
X59032381Y-84853556D01*
X59032381Y-84853556D02*
X58971904Y-84793080D01*
X58971904Y-84793080D02*
X58911428Y-84672128D01*
X58911428Y-84672128D02*
X58911428Y-84551175D01*
X58911428Y-84551175D02*
X58971904Y-84430223D01*
X58971904Y-84430223D02*
X59032381Y-84369747D01*
X59032381Y-84369747D02*
X59153333Y-84309271D01*
X59153333Y-84309271D02*
X59455714Y-84309271D01*
X59455714Y-84309271D02*
X59637143Y-84369747D01*
X60060476Y-84309271D02*
X60362857Y-85579271D01*
X60362857Y-85579271D02*
X60604762Y-84672128D01*
X60604762Y-84672128D02*
X60846667Y-85579271D01*
X60846667Y-85579271D02*
X61149048Y-84309271D01*
X62215952Y-76732604D02*
X62215952Y-77579271D01*
X61913571Y-76248795D02*
X61611190Y-77155937D01*
X61611190Y-77155937D02*
X62397381Y-77155937D01*
X62881190Y-77458318D02*
X62941667Y-77518795D01*
X62941667Y-77518795D02*
X62881190Y-77579271D01*
X62881190Y-77579271D02*
X62820714Y-77518795D01*
X62820714Y-77518795D02*
X62881190Y-77458318D01*
X62881190Y-77458318D02*
X62881190Y-77579271D01*
X63365000Y-76309271D02*
X64211667Y-76309271D01*
X64211667Y-76309271D02*
X63667381Y-77579271D01*
X65239762Y-76732604D02*
X65239762Y-77579271D01*
X64695476Y-76732604D02*
X64695476Y-77397842D01*
X64695476Y-77397842D02*
X64755953Y-77518795D01*
X64755953Y-77518795D02*
X64876905Y-77579271D01*
X64876905Y-77579271D02*
X65058334Y-77579271D01*
X65058334Y-77579271D02*
X65179286Y-77518795D01*
X65179286Y-77518795D02*
X65239762Y-77458318D01*
X66267858Y-76914033D02*
X65844524Y-76914033D01*
X65844524Y-77579271D02*
X65844524Y-76309271D01*
X65844524Y-76309271D02*
X66449286Y-76309271D01*
X14155476Y-74309271D02*
X14941667Y-74309271D01*
X14941667Y-74309271D02*
X14518333Y-74793080D01*
X14518333Y-74793080D02*
X14699762Y-74793080D01*
X14699762Y-74793080D02*
X14820714Y-74853556D01*
X14820714Y-74853556D02*
X14881190Y-74914033D01*
X14881190Y-74914033D02*
X14941667Y-75034985D01*
X14941667Y-75034985D02*
X14941667Y-75337366D01*
X14941667Y-75337366D02*
X14881190Y-75458318D01*
X14881190Y-75458318D02*
X14820714Y-75518795D01*
X14820714Y-75518795D02*
X14699762Y-75579271D01*
X14699762Y-75579271D02*
X14336905Y-75579271D01*
X14336905Y-75579271D02*
X14215952Y-75518795D01*
X14215952Y-75518795D02*
X14155476Y-75458318D01*
X15485952Y-75458318D02*
X15546429Y-75518795D01*
X15546429Y-75518795D02*
X15485952Y-75579271D01*
X15485952Y-75579271D02*
X15425476Y-75518795D01*
X15425476Y-75518795D02*
X15485952Y-75458318D01*
X15485952Y-75458318D02*
X15485952Y-75579271D01*
X15969762Y-74309271D02*
X16755953Y-74309271D01*
X16755953Y-74309271D02*
X16332619Y-74793080D01*
X16332619Y-74793080D02*
X16514048Y-74793080D01*
X16514048Y-74793080D02*
X16635000Y-74853556D01*
X16635000Y-74853556D02*
X16695476Y-74914033D01*
X16695476Y-74914033D02*
X16755953Y-75034985D01*
X16755953Y-75034985D02*
X16755953Y-75337366D01*
X16755953Y-75337366D02*
X16695476Y-75458318D01*
X16695476Y-75458318D02*
X16635000Y-75518795D01*
X16635000Y-75518795D02*
X16514048Y-75579271D01*
X16514048Y-75579271D02*
X16151191Y-75579271D01*
X16151191Y-75579271D02*
X16030238Y-75518795D01*
X16030238Y-75518795D02*
X15969762Y-75458318D01*
X17300238Y-75579271D02*
X17300238Y-74309271D01*
X17421191Y-75095461D02*
X17784048Y-75579271D01*
X17784048Y-74732604D02*
X17300238Y-75216414D01*
X43397380Y-34309271D02*
X43155475Y-34309271D01*
X43155475Y-34309271D02*
X43034523Y-34369747D01*
X43034523Y-34369747D02*
X42974047Y-34430223D01*
X42974047Y-34430223D02*
X42853094Y-34611652D01*
X42853094Y-34611652D02*
X42792618Y-34853556D01*
X42792618Y-34853556D02*
X42792618Y-35337366D01*
X42792618Y-35337366D02*
X42853094Y-35458318D01*
X42853094Y-35458318D02*
X42913571Y-35518795D01*
X42913571Y-35518795D02*
X43034523Y-35579271D01*
X43034523Y-35579271D02*
X43276428Y-35579271D01*
X43276428Y-35579271D02*
X43397380Y-35518795D01*
X43397380Y-35518795D02*
X43457856Y-35458318D01*
X43457856Y-35458318D02*
X43518333Y-35337366D01*
X43518333Y-35337366D02*
X43518333Y-35034985D01*
X43518333Y-35034985D02*
X43457856Y-34914033D01*
X43457856Y-34914033D02*
X43397380Y-34853556D01*
X43397380Y-34853556D02*
X43276428Y-34793080D01*
X43276428Y-34793080D02*
X43034523Y-34793080D01*
X43034523Y-34793080D02*
X42913571Y-34853556D01*
X42913571Y-34853556D02*
X42853094Y-34914033D01*
X42853094Y-34914033D02*
X42792618Y-35034985D01*
X44304523Y-34309271D02*
X44425476Y-34309271D01*
X44425476Y-34309271D02*
X44546428Y-34369747D01*
X44546428Y-34369747D02*
X44606904Y-34430223D01*
X44606904Y-34430223D02*
X44667380Y-34551175D01*
X44667380Y-34551175D02*
X44727857Y-34793080D01*
X44727857Y-34793080D02*
X44727857Y-35095461D01*
X44727857Y-35095461D02*
X44667380Y-35337366D01*
X44667380Y-35337366D02*
X44606904Y-35458318D01*
X44606904Y-35458318D02*
X44546428Y-35518795D01*
X44546428Y-35518795D02*
X44425476Y-35579271D01*
X44425476Y-35579271D02*
X44304523Y-35579271D01*
X44304523Y-35579271D02*
X44183571Y-35518795D01*
X44183571Y-35518795D02*
X44123095Y-35458318D01*
X44123095Y-35458318D02*
X44062618Y-35337366D01*
X44062618Y-35337366D02*
X44002142Y-35095461D01*
X44002142Y-35095461D02*
X44002142Y-34793080D01*
X44002142Y-34793080D02*
X44062618Y-34551175D01*
X44062618Y-34551175D02*
X44123095Y-34430223D01*
X44123095Y-34430223D02*
X44183571Y-34369747D01*
X44183571Y-34369747D02*
X44304523Y-34309271D01*
X45514047Y-34309271D02*
X45635000Y-34309271D01*
X45635000Y-34309271D02*
X45755952Y-34369747D01*
X45755952Y-34369747D02*
X45816428Y-34430223D01*
X45816428Y-34430223D02*
X45876904Y-34551175D01*
X45876904Y-34551175D02*
X45937381Y-34793080D01*
X45937381Y-34793080D02*
X45937381Y-35095461D01*
X45937381Y-35095461D02*
X45876904Y-35337366D01*
X45876904Y-35337366D02*
X45816428Y-35458318D01*
X45816428Y-35458318D02*
X45755952Y-35518795D01*
X45755952Y-35518795D02*
X45635000Y-35579271D01*
X45635000Y-35579271D02*
X45514047Y-35579271D01*
X45514047Y-35579271D02*
X45393095Y-35518795D01*
X45393095Y-35518795D02*
X45332619Y-35458318D01*
X45332619Y-35458318D02*
X45272142Y-35337366D01*
X45272142Y-35337366D02*
X45211666Y-35095461D01*
X45211666Y-35095461D02*
X45211666Y-34793080D01*
X45211666Y-34793080D02*
X45272142Y-34551175D01*
X45272142Y-34551175D02*
X45332619Y-34430223D01*
X45332619Y-34430223D02*
X45393095Y-34369747D01*
X45393095Y-34369747D02*
X45514047Y-34309271D01*
X47207381Y-35579271D02*
X46784047Y-34974509D01*
X46481666Y-35579271D02*
X46481666Y-34309271D01*
X46481666Y-34309271D02*
X46965476Y-34309271D01*
X46965476Y-34309271D02*
X47086428Y-34369747D01*
X47086428Y-34369747D02*
X47146905Y-34430223D01*
X47146905Y-34430223D02*
X47207381Y-34551175D01*
X47207381Y-34551175D02*
X47207381Y-34732604D01*
X47207381Y-34732604D02*
X47146905Y-34853556D01*
X47146905Y-34853556D02*
X47086428Y-34914033D01*
X47086428Y-34914033D02*
X46965476Y-34974509D01*
X46965476Y-34974509D02*
X46481666Y-34974509D01*
X59848810Y-30579271D02*
X59123095Y-30579271D01*
X59485952Y-30579271D02*
X59485952Y-29309271D01*
X59485952Y-29309271D02*
X59365000Y-29490699D01*
X59365000Y-29490699D02*
X59244048Y-29611652D01*
X59244048Y-29611652D02*
X59123095Y-29672128D01*
X60393095Y-30579271D02*
X60393095Y-29309271D01*
X60514048Y-30095461D02*
X60876905Y-30579271D01*
X60876905Y-29732604D02*
X60393095Y-30216414D01*
X64215952Y-27732604D02*
X64215952Y-28579271D01*
X63913571Y-27248795D02*
X63611190Y-28155937D01*
X63611190Y-28155937D02*
X64397381Y-28155937D01*
X64881190Y-28458318D02*
X64941667Y-28518795D01*
X64941667Y-28518795D02*
X64881190Y-28579271D01*
X64881190Y-28579271D02*
X64820714Y-28518795D01*
X64820714Y-28518795D02*
X64881190Y-28458318D01*
X64881190Y-28458318D02*
X64881190Y-28579271D01*
X65365000Y-27309271D02*
X66211667Y-27309271D01*
X66211667Y-27309271D02*
X65667381Y-28579271D01*
X67239762Y-27732604D02*
X67239762Y-28579271D01*
X66695476Y-27732604D02*
X66695476Y-28397842D01*
X66695476Y-28397842D02*
X66755953Y-28518795D01*
X66755953Y-28518795D02*
X66876905Y-28579271D01*
X66876905Y-28579271D02*
X67058334Y-28579271D01*
X67058334Y-28579271D02*
X67179286Y-28518795D01*
X67179286Y-28518795D02*
X67239762Y-28458318D01*
X68267858Y-27914033D02*
X67844524Y-27914033D01*
X67844524Y-28579271D02*
X67844524Y-27309271D01*
X67844524Y-27309271D02*
X68449286Y-27309271D01*
X67637143Y-78579271D02*
X66911428Y-78579271D01*
X67274285Y-78579271D02*
X67274285Y-77309271D01*
X67274285Y-77309271D02*
X67153333Y-77490699D01*
X67153333Y-77490699D02*
X67032381Y-77611652D01*
X67032381Y-77611652D02*
X66911428Y-77672128D01*
X68181428Y-78579271D02*
X68181428Y-77309271D01*
X68181428Y-77309271D02*
X68604762Y-78216414D01*
X68604762Y-78216414D02*
X69028095Y-77309271D01*
X69028095Y-77309271D02*
X69028095Y-78579271D01*
X63034524Y-80579271D02*
X62308809Y-80579271D01*
X62671666Y-80579271D02*
X62671666Y-79309271D01*
X62671666Y-79309271D02*
X62550714Y-79490699D01*
X62550714Y-79490699D02*
X62429762Y-79611652D01*
X62429762Y-79611652D02*
X62308809Y-79672128D01*
X63820714Y-79309271D02*
X63941667Y-79309271D01*
X63941667Y-79309271D02*
X64062619Y-79369747D01*
X64062619Y-79369747D02*
X64123095Y-79430223D01*
X64123095Y-79430223D02*
X64183571Y-79551175D01*
X64183571Y-79551175D02*
X64244048Y-79793080D01*
X64244048Y-79793080D02*
X64244048Y-80095461D01*
X64244048Y-80095461D02*
X64183571Y-80337366D01*
X64183571Y-80337366D02*
X64123095Y-80458318D01*
X64123095Y-80458318D02*
X64062619Y-80518795D01*
X64062619Y-80518795D02*
X63941667Y-80579271D01*
X63941667Y-80579271D02*
X63820714Y-80579271D01*
X63820714Y-80579271D02*
X63699762Y-80518795D01*
X63699762Y-80518795D02*
X63639286Y-80458318D01*
X63639286Y-80458318D02*
X63578809Y-80337366D01*
X63578809Y-80337366D02*
X63518333Y-80095461D01*
X63518333Y-80095461D02*
X63518333Y-79793080D01*
X63518333Y-79793080D02*
X63578809Y-79551175D01*
X63578809Y-79551175D02*
X63639286Y-79430223D01*
X63639286Y-79430223D02*
X63699762Y-79369747D01*
X63699762Y-79369747D02*
X63820714Y-79309271D01*
X65030238Y-79309271D02*
X65151191Y-79309271D01*
X65151191Y-79309271D02*
X65272143Y-79369747D01*
X65272143Y-79369747D02*
X65332619Y-79430223D01*
X65332619Y-79430223D02*
X65393095Y-79551175D01*
X65393095Y-79551175D02*
X65453572Y-79793080D01*
X65453572Y-79793080D02*
X65453572Y-80095461D01*
X65453572Y-80095461D02*
X65393095Y-80337366D01*
X65393095Y-80337366D02*
X65332619Y-80458318D01*
X65332619Y-80458318D02*
X65272143Y-80518795D01*
X65272143Y-80518795D02*
X65151191Y-80579271D01*
X65151191Y-80579271D02*
X65030238Y-80579271D01*
X65030238Y-80579271D02*
X64909286Y-80518795D01*
X64909286Y-80518795D02*
X64848810Y-80458318D01*
X64848810Y-80458318D02*
X64788333Y-80337366D01*
X64788333Y-80337366D02*
X64727857Y-80095461D01*
X64727857Y-80095461D02*
X64727857Y-79793080D01*
X64727857Y-79793080D02*
X64788333Y-79551175D01*
X64788333Y-79551175D02*
X64848810Y-79430223D01*
X64848810Y-79430223D02*
X64909286Y-79369747D01*
X64909286Y-79369747D02*
X65030238Y-79309271D01*
X65997857Y-79732604D02*
X65997857Y-80579271D01*
X65997857Y-79853556D02*
X66058334Y-79793080D01*
X66058334Y-79793080D02*
X66179286Y-79732604D01*
X66179286Y-79732604D02*
X66360715Y-79732604D01*
X66360715Y-79732604D02*
X66481667Y-79793080D01*
X66481667Y-79793080D02*
X66542143Y-79914033D01*
X66542143Y-79914033D02*
X66542143Y-80579271D01*
X67570239Y-79914033D02*
X67146905Y-79914033D01*
X67146905Y-80579271D02*
X67146905Y-79309271D01*
X67146905Y-79309271D02*
X67751667Y-79309271D01*
X109848810Y-16579271D02*
X109123095Y-16579271D01*
X109485952Y-16579271D02*
X109485952Y-15309271D01*
X109485952Y-15309271D02*
X109365000Y-15490699D01*
X109365000Y-15490699D02*
X109244048Y-15611652D01*
X109244048Y-15611652D02*
X109123095Y-15672128D01*
X110393095Y-16579271D02*
X110393095Y-15309271D01*
X110514048Y-16095461D02*
X110876905Y-16579271D01*
X110876905Y-15732604D02*
X110393095Y-16216414D01*
X20639286Y-12579271D02*
X19913571Y-12579271D01*
X20276428Y-12579271D02*
X20276428Y-11309271D01*
X20276428Y-11309271D02*
X20155476Y-11490699D01*
X20155476Y-11490699D02*
X20034524Y-11611652D01*
X20034524Y-11611652D02*
X19913571Y-11672128D01*
X21425476Y-11309271D02*
X21546429Y-11309271D01*
X21546429Y-11309271D02*
X21667381Y-11369747D01*
X21667381Y-11369747D02*
X21727857Y-11430223D01*
X21727857Y-11430223D02*
X21788333Y-11551175D01*
X21788333Y-11551175D02*
X21848810Y-11793080D01*
X21848810Y-11793080D02*
X21848810Y-12095461D01*
X21848810Y-12095461D02*
X21788333Y-12337366D01*
X21788333Y-12337366D02*
X21727857Y-12458318D01*
X21727857Y-12458318D02*
X21667381Y-12518795D01*
X21667381Y-12518795D02*
X21546429Y-12579271D01*
X21546429Y-12579271D02*
X21425476Y-12579271D01*
X21425476Y-12579271D02*
X21304524Y-12518795D01*
X21304524Y-12518795D02*
X21244048Y-12458318D01*
X21244048Y-12458318D02*
X21183571Y-12337366D01*
X21183571Y-12337366D02*
X21123095Y-12095461D01*
X21123095Y-12095461D02*
X21123095Y-11793080D01*
X21123095Y-11793080D02*
X21183571Y-11551175D01*
X21183571Y-11551175D02*
X21244048Y-11430223D01*
X21244048Y-11430223D02*
X21304524Y-11369747D01*
X21304524Y-11369747D02*
X21425476Y-11309271D01*
X22937381Y-11732604D02*
X22937381Y-12579271D01*
X22393095Y-11732604D02*
X22393095Y-12397842D01*
X22393095Y-12397842D02*
X22453572Y-12518795D01*
X22453572Y-12518795D02*
X22574524Y-12579271D01*
X22574524Y-12579271D02*
X22755953Y-12579271D01*
X22755953Y-12579271D02*
X22876905Y-12518795D01*
X22876905Y-12518795D02*
X22937381Y-12458318D01*
X23965477Y-11914033D02*
X23542143Y-11914033D01*
X23542143Y-12579271D02*
X23542143Y-11309271D01*
X23542143Y-11309271D02*
X24146905Y-11309271D01*
X60639286Y-30579271D02*
X59913571Y-30579271D01*
X60276428Y-30579271D02*
X60276428Y-29309271D01*
X60276428Y-29309271D02*
X60155476Y-29490699D01*
X60155476Y-29490699D02*
X60034524Y-29611652D01*
X60034524Y-29611652D02*
X59913571Y-29672128D01*
X61425476Y-29309271D02*
X61546429Y-29309271D01*
X61546429Y-29309271D02*
X61667381Y-29369747D01*
X61667381Y-29369747D02*
X61727857Y-29430223D01*
X61727857Y-29430223D02*
X61788333Y-29551175D01*
X61788333Y-29551175D02*
X61848810Y-29793080D01*
X61848810Y-29793080D02*
X61848810Y-30095461D01*
X61848810Y-30095461D02*
X61788333Y-30337366D01*
X61788333Y-30337366D02*
X61727857Y-30458318D01*
X61727857Y-30458318D02*
X61667381Y-30518795D01*
X61667381Y-30518795D02*
X61546429Y-30579271D01*
X61546429Y-30579271D02*
X61425476Y-30579271D01*
X61425476Y-30579271D02*
X61304524Y-30518795D01*
X61304524Y-30518795D02*
X61244048Y-30458318D01*
X61244048Y-30458318D02*
X61183571Y-30337366D01*
X61183571Y-30337366D02*
X61123095Y-30095461D01*
X61123095Y-30095461D02*
X61123095Y-29793080D01*
X61123095Y-29793080D02*
X61183571Y-29551175D01*
X61183571Y-29551175D02*
X61244048Y-29430223D01*
X61244048Y-29430223D02*
X61304524Y-29369747D01*
X61304524Y-29369747D02*
X61425476Y-29309271D01*
X62393095Y-29732604D02*
X62393095Y-30579271D01*
X62393095Y-29853556D02*
X62453572Y-29793080D01*
X62453572Y-29793080D02*
X62574524Y-29732604D01*
X62574524Y-29732604D02*
X62755953Y-29732604D01*
X62755953Y-29732604D02*
X62876905Y-29793080D01*
X62876905Y-29793080D02*
X62937381Y-29914033D01*
X62937381Y-29914033D02*
X62937381Y-30579271D01*
X63965477Y-29914033D02*
X63542143Y-29914033D01*
X63542143Y-30579271D02*
X63542143Y-29309271D01*
X63542143Y-29309271D02*
X64146905Y-29309271D01*
X61639286Y-8579271D02*
X60913571Y-8579271D01*
X61276428Y-8579271D02*
X61276428Y-7309271D01*
X61276428Y-7309271D02*
X61155476Y-7490699D01*
X61155476Y-7490699D02*
X61034524Y-7611652D01*
X61034524Y-7611652D02*
X60913571Y-7672128D01*
X62425476Y-7309271D02*
X62546429Y-7309271D01*
X62546429Y-7309271D02*
X62667381Y-7369747D01*
X62667381Y-7369747D02*
X62727857Y-7430223D01*
X62727857Y-7430223D02*
X62788333Y-7551175D01*
X62788333Y-7551175D02*
X62848810Y-7793080D01*
X62848810Y-7793080D02*
X62848810Y-8095461D01*
X62848810Y-8095461D02*
X62788333Y-8337366D01*
X62788333Y-8337366D02*
X62727857Y-8458318D01*
X62727857Y-8458318D02*
X62667381Y-8518795D01*
X62667381Y-8518795D02*
X62546429Y-8579271D01*
X62546429Y-8579271D02*
X62425476Y-8579271D01*
X62425476Y-8579271D02*
X62304524Y-8518795D01*
X62304524Y-8518795D02*
X62244048Y-8458318D01*
X62244048Y-8458318D02*
X62183571Y-8337366D01*
X62183571Y-8337366D02*
X62123095Y-8095461D01*
X62123095Y-8095461D02*
X62123095Y-7793080D01*
X62123095Y-7793080D02*
X62183571Y-7551175D01*
X62183571Y-7551175D02*
X62244048Y-7430223D01*
X62244048Y-7430223D02*
X62304524Y-7369747D01*
X62304524Y-7369747D02*
X62425476Y-7309271D01*
X63937381Y-7732604D02*
X63937381Y-8579271D01*
X63393095Y-7732604D02*
X63393095Y-8397842D01*
X63393095Y-8397842D02*
X63453572Y-8518795D01*
X63453572Y-8518795D02*
X63574524Y-8579271D01*
X63574524Y-8579271D02*
X63755953Y-8579271D01*
X63755953Y-8579271D02*
X63876905Y-8518795D01*
X63876905Y-8518795D02*
X63937381Y-8458318D01*
X64965477Y-7914033D02*
X64542143Y-7914033D01*
X64542143Y-8579271D02*
X64542143Y-7309271D01*
X64542143Y-7309271D02*
X65146905Y-7309271D01*
X10894046Y-75579271D02*
X10894046Y-74309271D01*
X10894046Y-74309271D02*
X11377856Y-74309271D01*
X11377856Y-74309271D02*
X11498808Y-74369747D01*
X11498808Y-74369747D02*
X11559285Y-74430223D01*
X11559285Y-74430223D02*
X11619761Y-74551175D01*
X11619761Y-74551175D02*
X11619761Y-74732604D01*
X11619761Y-74732604D02*
X11559285Y-74853556D01*
X11559285Y-74853556D02*
X11498808Y-74914033D01*
X11498808Y-74914033D02*
X11377856Y-74974509D01*
X11377856Y-74974509D02*
X10894046Y-74974509D01*
X12345475Y-75579271D02*
X12224523Y-75518795D01*
X12224523Y-75518795D02*
X12164046Y-75458318D01*
X12164046Y-75458318D02*
X12103570Y-75337366D01*
X12103570Y-75337366D02*
X12103570Y-74974509D01*
X12103570Y-74974509D02*
X12164046Y-74853556D01*
X12164046Y-74853556D02*
X12224523Y-74793080D01*
X12224523Y-74793080D02*
X12345475Y-74732604D01*
X12345475Y-74732604D02*
X12526904Y-74732604D01*
X12526904Y-74732604D02*
X12647856Y-74793080D01*
X12647856Y-74793080D02*
X12708332Y-74853556D01*
X12708332Y-74853556D02*
X12768808Y-74974509D01*
X12768808Y-74974509D02*
X12768808Y-75337366D01*
X12768808Y-75337366D02*
X12708332Y-75458318D01*
X12708332Y-75458318D02*
X12647856Y-75518795D01*
X12647856Y-75518795D02*
X12526904Y-75579271D01*
X12526904Y-75579271D02*
X12345475Y-75579271D01*
X13857380Y-74732604D02*
X13857380Y-75760699D01*
X13857380Y-75760699D02*
X13796904Y-75881652D01*
X13796904Y-75881652D02*
X13736428Y-75942128D01*
X13736428Y-75942128D02*
X13615475Y-76002604D01*
X13615475Y-76002604D02*
X13434047Y-76002604D01*
X13434047Y-76002604D02*
X13313094Y-75942128D01*
X13857380Y-75518795D02*
X13736428Y-75579271D01*
X13736428Y-75579271D02*
X13494523Y-75579271D01*
X13494523Y-75579271D02*
X13373571Y-75518795D01*
X13373571Y-75518795D02*
X13313094Y-75458318D01*
X13313094Y-75458318D02*
X13252618Y-75337366D01*
X13252618Y-75337366D02*
X13252618Y-74974509D01*
X13252618Y-74974509D02*
X13313094Y-74853556D01*
X13313094Y-74853556D02*
X13373571Y-74793080D01*
X13373571Y-74793080D02*
X13494523Y-74732604D01*
X13494523Y-74732604D02*
X13736428Y-74732604D01*
X13736428Y-74732604D02*
X13857380Y-74793080D01*
X14643571Y-75579271D02*
X14522619Y-75518795D01*
X14522619Y-75518795D02*
X14462142Y-75458318D01*
X14462142Y-75458318D02*
X14401666Y-75337366D01*
X14401666Y-75337366D02*
X14401666Y-74974509D01*
X14401666Y-74974509D02*
X14462142Y-74853556D01*
X14462142Y-74853556D02*
X14522619Y-74793080D01*
X14522619Y-74793080D02*
X14643571Y-74732604D01*
X14643571Y-74732604D02*
X14825000Y-74732604D01*
X14825000Y-74732604D02*
X14945952Y-74793080D01*
X14945952Y-74793080D02*
X15006428Y-74853556D01*
X15006428Y-74853556D02*
X15066904Y-74974509D01*
X15066904Y-74974509D02*
X15066904Y-75337366D01*
X15066904Y-75337366D02*
X15006428Y-75458318D01*
X15006428Y-75458318D02*
X14945952Y-75518795D01*
X14945952Y-75518795D02*
X14825000Y-75579271D01*
X14825000Y-75579271D02*
X14643571Y-75579271D01*
X15308810Y-75700223D02*
X16276429Y-75700223D01*
X16578809Y-75579271D02*
X16578809Y-74309271D01*
X16578809Y-74309271D02*
X17062619Y-74309271D01*
X17062619Y-74309271D02*
X17183571Y-74369747D01*
X17183571Y-74369747D02*
X17244048Y-74430223D01*
X17244048Y-74430223D02*
X17304524Y-74551175D01*
X17304524Y-74551175D02*
X17304524Y-74732604D01*
X17304524Y-74732604D02*
X17244048Y-74853556D01*
X17244048Y-74853556D02*
X17183571Y-74914033D01*
X17183571Y-74914033D02*
X17062619Y-74974509D01*
X17062619Y-74974509D02*
X16578809Y-74974509D01*
X18393095Y-75579271D02*
X18393095Y-74914033D01*
X18393095Y-74914033D02*
X18332619Y-74793080D01*
X18332619Y-74793080D02*
X18211667Y-74732604D01*
X18211667Y-74732604D02*
X17969762Y-74732604D01*
X17969762Y-74732604D02*
X17848809Y-74793080D01*
X18393095Y-75518795D02*
X18272143Y-75579271D01*
X18272143Y-75579271D02*
X17969762Y-75579271D01*
X17969762Y-75579271D02*
X17848809Y-75518795D01*
X17848809Y-75518795D02*
X17788333Y-75397842D01*
X17788333Y-75397842D02*
X17788333Y-75276890D01*
X17788333Y-75276890D02*
X17848809Y-75155937D01*
X17848809Y-75155937D02*
X17969762Y-75095461D01*
X17969762Y-75095461D02*
X18272143Y-75095461D01*
X18272143Y-75095461D02*
X18393095Y-75034985D01*
X19542143Y-75579271D02*
X19542143Y-74309271D01*
X19542143Y-75518795D02*
X19421191Y-75579271D01*
X19421191Y-75579271D02*
X19179286Y-75579271D01*
X19179286Y-75579271D02*
X19058334Y-75518795D01*
X19058334Y-75518795D02*
X18997857Y-75458318D01*
X18997857Y-75458318D02*
X18937381Y-75337366D01*
X18937381Y-75337366D02*
X18937381Y-74974509D01*
X18937381Y-74974509D02*
X18997857Y-74853556D01*
X18997857Y-74853556D02*
X19058334Y-74793080D01*
X19058334Y-74793080D02*
X19179286Y-74732604D01*
X19179286Y-74732604D02*
X19421191Y-74732604D01*
X19421191Y-74732604D02*
X19542143Y-74793080D01*
X19844525Y-75700223D02*
X20812144Y-75700223D01*
X21658810Y-74309271D02*
X21416905Y-74309271D01*
X21416905Y-74309271D02*
X21295953Y-74369747D01*
X21295953Y-74369747D02*
X21235477Y-74430223D01*
X21235477Y-74430223D02*
X21114524Y-74611652D01*
X21114524Y-74611652D02*
X21054048Y-74853556D01*
X21054048Y-74853556D02*
X21054048Y-75337366D01*
X21054048Y-75337366D02*
X21114524Y-75458318D01*
X21114524Y-75458318D02*
X21175001Y-75518795D01*
X21175001Y-75518795D02*
X21295953Y-75579271D01*
X21295953Y-75579271D02*
X21537858Y-75579271D01*
X21537858Y-75579271D02*
X21658810Y-75518795D01*
X21658810Y-75518795D02*
X21719286Y-75458318D01*
X21719286Y-75458318D02*
X21779763Y-75337366D01*
X21779763Y-75337366D02*
X21779763Y-75034985D01*
X21779763Y-75034985D02*
X21719286Y-74914033D01*
X21719286Y-74914033D02*
X21658810Y-74853556D01*
X21658810Y-74853556D02*
X21537858Y-74793080D01*
X21537858Y-74793080D02*
X21295953Y-74793080D01*
X21295953Y-74793080D02*
X21175001Y-74853556D01*
X21175001Y-74853556D02*
X21114524Y-74914033D01*
X21114524Y-74914033D02*
X21054048Y-75034985D01*
X22324048Y-75579271D02*
X22324048Y-74732604D01*
X22324048Y-74853556D02*
X22384525Y-74793080D01*
X22384525Y-74793080D02*
X22505477Y-74732604D01*
X22505477Y-74732604D02*
X22686906Y-74732604D01*
X22686906Y-74732604D02*
X22807858Y-74793080D01*
X22807858Y-74793080D02*
X22868334Y-74914033D01*
X22868334Y-74914033D02*
X22868334Y-75579271D01*
X22868334Y-74914033D02*
X22928810Y-74793080D01*
X22928810Y-74793080D02*
X23049763Y-74732604D01*
X23049763Y-74732604D02*
X23231191Y-74732604D01*
X23231191Y-74732604D02*
X23352144Y-74793080D01*
X23352144Y-74793080D02*
X23412620Y-74914033D01*
X23412620Y-74914033D02*
X23412620Y-75579271D01*
X24017381Y-75579271D02*
X24017381Y-74732604D01*
X24017381Y-74853556D02*
X24077858Y-74793080D01*
X24077858Y-74793080D02*
X24198810Y-74732604D01*
X24198810Y-74732604D02*
X24380239Y-74732604D01*
X24380239Y-74732604D02*
X24501191Y-74793080D01*
X24501191Y-74793080D02*
X24561667Y-74914033D01*
X24561667Y-74914033D02*
X24561667Y-75579271D01*
X24561667Y-74914033D02*
X24622143Y-74793080D01*
X24622143Y-74793080D02*
X24743096Y-74732604D01*
X24743096Y-74732604D02*
X24924524Y-74732604D01*
X24924524Y-74732604D02*
X25045477Y-74793080D01*
X25045477Y-74793080D02*
X25105953Y-74914033D01*
X25105953Y-74914033D02*
X25105953Y-75579271D01*
X87894046Y-75579271D02*
X87894046Y-74309271D01*
X87894046Y-74309271D02*
X88377856Y-74309271D01*
X88377856Y-74309271D02*
X88498808Y-74369747D01*
X88498808Y-74369747D02*
X88559285Y-74430223D01*
X88559285Y-74430223D02*
X88619761Y-74551175D01*
X88619761Y-74551175D02*
X88619761Y-74732604D01*
X88619761Y-74732604D02*
X88559285Y-74853556D01*
X88559285Y-74853556D02*
X88498808Y-74914033D01*
X88498808Y-74914033D02*
X88377856Y-74974509D01*
X88377856Y-74974509D02*
X87894046Y-74974509D01*
X89345475Y-75579271D02*
X89224523Y-75518795D01*
X89224523Y-75518795D02*
X89164046Y-75458318D01*
X89164046Y-75458318D02*
X89103570Y-75337366D01*
X89103570Y-75337366D02*
X89103570Y-74974509D01*
X89103570Y-74974509D02*
X89164046Y-74853556D01*
X89164046Y-74853556D02*
X89224523Y-74793080D01*
X89224523Y-74793080D02*
X89345475Y-74732604D01*
X89345475Y-74732604D02*
X89526904Y-74732604D01*
X89526904Y-74732604D02*
X89647856Y-74793080D01*
X89647856Y-74793080D02*
X89708332Y-74853556D01*
X89708332Y-74853556D02*
X89768808Y-74974509D01*
X89768808Y-74974509D02*
X89768808Y-75337366D01*
X89768808Y-75337366D02*
X89708332Y-75458318D01*
X89708332Y-75458318D02*
X89647856Y-75518795D01*
X89647856Y-75518795D02*
X89526904Y-75579271D01*
X89526904Y-75579271D02*
X89345475Y-75579271D01*
X90857380Y-74732604D02*
X90857380Y-75760699D01*
X90857380Y-75760699D02*
X90796904Y-75881652D01*
X90796904Y-75881652D02*
X90736428Y-75942128D01*
X90736428Y-75942128D02*
X90615475Y-76002604D01*
X90615475Y-76002604D02*
X90434047Y-76002604D01*
X90434047Y-76002604D02*
X90313094Y-75942128D01*
X90857380Y-75518795D02*
X90736428Y-75579271D01*
X90736428Y-75579271D02*
X90494523Y-75579271D01*
X90494523Y-75579271D02*
X90373571Y-75518795D01*
X90373571Y-75518795D02*
X90313094Y-75458318D01*
X90313094Y-75458318D02*
X90252618Y-75337366D01*
X90252618Y-75337366D02*
X90252618Y-74974509D01*
X90252618Y-74974509D02*
X90313094Y-74853556D01*
X90313094Y-74853556D02*
X90373571Y-74793080D01*
X90373571Y-74793080D02*
X90494523Y-74732604D01*
X90494523Y-74732604D02*
X90736428Y-74732604D01*
X90736428Y-74732604D02*
X90857380Y-74793080D01*
X91643571Y-75579271D02*
X91522619Y-75518795D01*
X91522619Y-75518795D02*
X91462142Y-75458318D01*
X91462142Y-75458318D02*
X91401666Y-75337366D01*
X91401666Y-75337366D02*
X91401666Y-74974509D01*
X91401666Y-74974509D02*
X91462142Y-74853556D01*
X91462142Y-74853556D02*
X91522619Y-74793080D01*
X91522619Y-74793080D02*
X91643571Y-74732604D01*
X91643571Y-74732604D02*
X91825000Y-74732604D01*
X91825000Y-74732604D02*
X91945952Y-74793080D01*
X91945952Y-74793080D02*
X92006428Y-74853556D01*
X92006428Y-74853556D02*
X92066904Y-74974509D01*
X92066904Y-74974509D02*
X92066904Y-75337366D01*
X92066904Y-75337366D02*
X92006428Y-75458318D01*
X92006428Y-75458318D02*
X91945952Y-75518795D01*
X91945952Y-75518795D02*
X91825000Y-75579271D01*
X91825000Y-75579271D02*
X91643571Y-75579271D01*
X92308810Y-75700223D02*
X93276429Y-75700223D01*
X93578809Y-75579271D02*
X93578809Y-74309271D01*
X93578809Y-74309271D02*
X94062619Y-74309271D01*
X94062619Y-74309271D02*
X94183571Y-74369747D01*
X94183571Y-74369747D02*
X94244048Y-74430223D01*
X94244048Y-74430223D02*
X94304524Y-74551175D01*
X94304524Y-74551175D02*
X94304524Y-74732604D01*
X94304524Y-74732604D02*
X94244048Y-74853556D01*
X94244048Y-74853556D02*
X94183571Y-74914033D01*
X94183571Y-74914033D02*
X94062619Y-74974509D01*
X94062619Y-74974509D02*
X93578809Y-74974509D01*
X95393095Y-75579271D02*
X95393095Y-74914033D01*
X95393095Y-74914033D02*
X95332619Y-74793080D01*
X95332619Y-74793080D02*
X95211667Y-74732604D01*
X95211667Y-74732604D02*
X94969762Y-74732604D01*
X94969762Y-74732604D02*
X94848809Y-74793080D01*
X95393095Y-75518795D02*
X95272143Y-75579271D01*
X95272143Y-75579271D02*
X94969762Y-75579271D01*
X94969762Y-75579271D02*
X94848809Y-75518795D01*
X94848809Y-75518795D02*
X94788333Y-75397842D01*
X94788333Y-75397842D02*
X94788333Y-75276890D01*
X94788333Y-75276890D02*
X94848809Y-75155937D01*
X94848809Y-75155937D02*
X94969762Y-75095461D01*
X94969762Y-75095461D02*
X95272143Y-75095461D01*
X95272143Y-75095461D02*
X95393095Y-75034985D01*
X96542143Y-75579271D02*
X96542143Y-74309271D01*
X96542143Y-75518795D02*
X96421191Y-75579271D01*
X96421191Y-75579271D02*
X96179286Y-75579271D01*
X96179286Y-75579271D02*
X96058334Y-75518795D01*
X96058334Y-75518795D02*
X95997857Y-75458318D01*
X95997857Y-75458318D02*
X95937381Y-75337366D01*
X95937381Y-75337366D02*
X95937381Y-74974509D01*
X95937381Y-74974509D02*
X95997857Y-74853556D01*
X95997857Y-74853556D02*
X96058334Y-74793080D01*
X96058334Y-74793080D02*
X96179286Y-74732604D01*
X96179286Y-74732604D02*
X96421191Y-74732604D01*
X96421191Y-74732604D02*
X96542143Y-74793080D01*
X96844525Y-75700223D02*
X97812144Y-75700223D01*
X98658810Y-74309271D02*
X98416905Y-74309271D01*
X98416905Y-74309271D02*
X98295953Y-74369747D01*
X98295953Y-74369747D02*
X98235477Y-74430223D01*
X98235477Y-74430223D02*
X98114524Y-74611652D01*
X98114524Y-74611652D02*
X98054048Y-74853556D01*
X98054048Y-74853556D02*
X98054048Y-75337366D01*
X98054048Y-75337366D02*
X98114524Y-75458318D01*
X98114524Y-75458318D02*
X98175001Y-75518795D01*
X98175001Y-75518795D02*
X98295953Y-75579271D01*
X98295953Y-75579271D02*
X98537858Y-75579271D01*
X98537858Y-75579271D02*
X98658810Y-75518795D01*
X98658810Y-75518795D02*
X98719286Y-75458318D01*
X98719286Y-75458318D02*
X98779763Y-75337366D01*
X98779763Y-75337366D02*
X98779763Y-75034985D01*
X98779763Y-75034985D02*
X98719286Y-74914033D01*
X98719286Y-74914033D02*
X98658810Y-74853556D01*
X98658810Y-74853556D02*
X98537858Y-74793080D01*
X98537858Y-74793080D02*
X98295953Y-74793080D01*
X98295953Y-74793080D02*
X98175001Y-74853556D01*
X98175001Y-74853556D02*
X98114524Y-74914033D01*
X98114524Y-74914033D02*
X98054048Y-75034985D01*
X99324048Y-75579271D02*
X99324048Y-74732604D01*
X99324048Y-74853556D02*
X99384525Y-74793080D01*
X99384525Y-74793080D02*
X99505477Y-74732604D01*
X99505477Y-74732604D02*
X99686906Y-74732604D01*
X99686906Y-74732604D02*
X99807858Y-74793080D01*
X99807858Y-74793080D02*
X99868334Y-74914033D01*
X99868334Y-74914033D02*
X99868334Y-75579271D01*
X99868334Y-74914033D02*
X99928810Y-74793080D01*
X99928810Y-74793080D02*
X100049763Y-74732604D01*
X100049763Y-74732604D02*
X100231191Y-74732604D01*
X100231191Y-74732604D02*
X100352144Y-74793080D01*
X100352144Y-74793080D02*
X100412620Y-74914033D01*
X100412620Y-74914033D02*
X100412620Y-75579271D01*
X101017381Y-75579271D02*
X101017381Y-74732604D01*
X101017381Y-74853556D02*
X101077858Y-74793080D01*
X101077858Y-74793080D02*
X101198810Y-74732604D01*
X101198810Y-74732604D02*
X101380239Y-74732604D01*
X101380239Y-74732604D02*
X101501191Y-74793080D01*
X101501191Y-74793080D02*
X101561667Y-74914033D01*
X101561667Y-74914033D02*
X101561667Y-75579271D01*
X101561667Y-74914033D02*
X101622143Y-74793080D01*
X101622143Y-74793080D02*
X101743096Y-74732604D01*
X101743096Y-74732604D02*
X101924524Y-74732604D01*
X101924524Y-74732604D02*
X102045477Y-74793080D01*
X102045477Y-74793080D02*
X102105953Y-74914033D01*
X102105953Y-74914033D02*
X102105953Y-75579271D01*
X65881190Y-5309271D02*
X65276428Y-5309271D01*
X65276428Y-5309271D02*
X65215952Y-5914033D01*
X65215952Y-5914033D02*
X65276428Y-5853556D01*
X65276428Y-5853556D02*
X65397381Y-5793080D01*
X65397381Y-5793080D02*
X65699762Y-5793080D01*
X65699762Y-5793080D02*
X65820714Y-5853556D01*
X65820714Y-5853556D02*
X65881190Y-5914033D01*
X65881190Y-5914033D02*
X65941667Y-6034985D01*
X65941667Y-6034985D02*
X65941667Y-6337366D01*
X65941667Y-6337366D02*
X65881190Y-6458318D01*
X65881190Y-6458318D02*
X65820714Y-6518795D01*
X65820714Y-6518795D02*
X65699762Y-6579271D01*
X65699762Y-6579271D02*
X65397381Y-6579271D01*
X65397381Y-6579271D02*
X65276428Y-6518795D01*
X65276428Y-6518795D02*
X65215952Y-6458318D01*
X66485952Y-6458318D02*
X66546429Y-6518795D01*
X66546429Y-6518795D02*
X66485952Y-6579271D01*
X66485952Y-6579271D02*
X66425476Y-6518795D01*
X66425476Y-6518795D02*
X66485952Y-6458318D01*
X66485952Y-6458318D02*
X66485952Y-6579271D01*
X67755953Y-6579271D02*
X67030238Y-6579271D01*
X67393095Y-6579271D02*
X67393095Y-5309271D01*
X67393095Y-5309271D02*
X67272143Y-5490699D01*
X67272143Y-5490699D02*
X67151191Y-5611652D01*
X67151191Y-5611652D02*
X67030238Y-5672128D01*
X68300238Y-6579271D02*
X68300238Y-5309271D01*
X68421191Y-6095461D02*
X68784048Y-6579271D01*
X68784048Y-5732604D02*
X68300238Y-6216414D01*
X117922141Y-84579271D02*
X117922141Y-83309271D01*
X117922141Y-83309271D02*
X118345475Y-84216414D01*
X118345475Y-84216414D02*
X118768808Y-83309271D01*
X118768808Y-83309271D02*
X118768808Y-84579271D01*
X119554999Y-84579271D02*
X119434047Y-84518795D01*
X119434047Y-84518795D02*
X119373570Y-84458318D01*
X119373570Y-84458318D02*
X119313094Y-84337366D01*
X119313094Y-84337366D02*
X119313094Y-83974509D01*
X119313094Y-83974509D02*
X119373570Y-83853556D01*
X119373570Y-83853556D02*
X119434047Y-83793080D01*
X119434047Y-83793080D02*
X119554999Y-83732604D01*
X119554999Y-83732604D02*
X119736428Y-83732604D01*
X119736428Y-83732604D02*
X119857380Y-83793080D01*
X119857380Y-83793080D02*
X119917856Y-83853556D01*
X119917856Y-83853556D02*
X119978332Y-83974509D01*
X119978332Y-83974509D02*
X119978332Y-84337366D01*
X119978332Y-84337366D02*
X119917856Y-84458318D01*
X119917856Y-84458318D02*
X119857380Y-84518795D01*
X119857380Y-84518795D02*
X119736428Y-84579271D01*
X119736428Y-84579271D02*
X119554999Y-84579271D01*
X121066904Y-83732604D02*
X121066904Y-84579271D01*
X120522618Y-83732604D02*
X120522618Y-84397842D01*
X120522618Y-84397842D02*
X120583095Y-84518795D01*
X120583095Y-84518795D02*
X120704047Y-84579271D01*
X120704047Y-84579271D02*
X120885476Y-84579271D01*
X120885476Y-84579271D02*
X121006428Y-84518795D01*
X121006428Y-84518795D02*
X121066904Y-84458318D01*
X121671666Y-83732604D02*
X121671666Y-84579271D01*
X121671666Y-83853556D02*
X121732143Y-83793080D01*
X121732143Y-83793080D02*
X121853095Y-83732604D01*
X121853095Y-83732604D02*
X122034524Y-83732604D01*
X122034524Y-83732604D02*
X122155476Y-83793080D01*
X122155476Y-83793080D02*
X122215952Y-83914033D01*
X122215952Y-83914033D02*
X122215952Y-84579271D01*
X122639286Y-83732604D02*
X123123095Y-83732604D01*
X122820714Y-83309271D02*
X122820714Y-84397842D01*
X122820714Y-84397842D02*
X122881191Y-84518795D01*
X122881191Y-84518795D02*
X123002143Y-84579271D01*
X123002143Y-84579271D02*
X123123095Y-84579271D01*
X123546428Y-84579271D02*
X123546428Y-83732604D01*
X123546428Y-83309271D02*
X123485952Y-83369747D01*
X123485952Y-83369747D02*
X123546428Y-83430223D01*
X123546428Y-83430223D02*
X123606905Y-83369747D01*
X123606905Y-83369747D02*
X123546428Y-83309271D01*
X123546428Y-83309271D02*
X123546428Y-83430223D01*
X124151190Y-83732604D02*
X124151190Y-84579271D01*
X124151190Y-83853556D02*
X124211667Y-83793080D01*
X124211667Y-83793080D02*
X124332619Y-83732604D01*
X124332619Y-83732604D02*
X124514048Y-83732604D01*
X124514048Y-83732604D02*
X124635000Y-83793080D01*
X124635000Y-83793080D02*
X124695476Y-83914033D01*
X124695476Y-83914033D02*
X124695476Y-84579271D01*
X125844524Y-83732604D02*
X125844524Y-84760699D01*
X125844524Y-84760699D02*
X125784048Y-84881652D01*
X125784048Y-84881652D02*
X125723572Y-84942128D01*
X125723572Y-84942128D02*
X125602619Y-85002604D01*
X125602619Y-85002604D02*
X125421191Y-85002604D01*
X125421191Y-85002604D02*
X125300238Y-84942128D01*
X125844524Y-84518795D02*
X125723572Y-84579271D01*
X125723572Y-84579271D02*
X125481667Y-84579271D01*
X125481667Y-84579271D02*
X125360715Y-84518795D01*
X125360715Y-84518795D02*
X125300238Y-84458318D01*
X125300238Y-84458318D02*
X125239762Y-84337366D01*
X125239762Y-84337366D02*
X125239762Y-83974509D01*
X125239762Y-83974509D02*
X125300238Y-83853556D01*
X125300238Y-83853556D02*
X125360715Y-83793080D01*
X125360715Y-83793080D02*
X125481667Y-83732604D01*
X125481667Y-83732604D02*
X125723572Y-83732604D01*
X125723572Y-83732604D02*
X125844524Y-83793080D01*
X126449286Y-84579271D02*
X126449286Y-83309271D01*
X126449286Y-83914033D02*
X127175001Y-83914033D01*
X127175001Y-84579271D02*
X127175001Y-83309271D01*
X127961191Y-84579271D02*
X127840239Y-84518795D01*
X127840239Y-84518795D02*
X127779762Y-84458318D01*
X127779762Y-84458318D02*
X127719286Y-84337366D01*
X127719286Y-84337366D02*
X127719286Y-83974509D01*
X127719286Y-83974509D02*
X127779762Y-83853556D01*
X127779762Y-83853556D02*
X127840239Y-83793080D01*
X127840239Y-83793080D02*
X127961191Y-83732604D01*
X127961191Y-83732604D02*
X128142620Y-83732604D01*
X128142620Y-83732604D02*
X128263572Y-83793080D01*
X128263572Y-83793080D02*
X128324048Y-83853556D01*
X128324048Y-83853556D02*
X128384524Y-83974509D01*
X128384524Y-83974509D02*
X128384524Y-84337366D01*
X128384524Y-84337366D02*
X128324048Y-84458318D01*
X128324048Y-84458318D02*
X128263572Y-84518795D01*
X128263572Y-84518795D02*
X128142620Y-84579271D01*
X128142620Y-84579271D02*
X127961191Y-84579271D01*
X129110239Y-84579271D02*
X128989287Y-84518795D01*
X128989287Y-84518795D02*
X128928810Y-84397842D01*
X128928810Y-84397842D02*
X128928810Y-83309271D01*
X130077858Y-84518795D02*
X129956906Y-84579271D01*
X129956906Y-84579271D02*
X129715001Y-84579271D01*
X129715001Y-84579271D02*
X129594048Y-84518795D01*
X129594048Y-84518795D02*
X129533572Y-84397842D01*
X129533572Y-84397842D02*
X129533572Y-83914033D01*
X129533572Y-83914033D02*
X129594048Y-83793080D01*
X129594048Y-83793080D02*
X129715001Y-83732604D01*
X129715001Y-83732604D02*
X129956906Y-83732604D01*
X129956906Y-83732604D02*
X130077858Y-83793080D01*
X130077858Y-83793080D02*
X130138334Y-83914033D01*
X130138334Y-83914033D02*
X130138334Y-84034985D01*
X130138334Y-84034985D02*
X129533572Y-84155937D01*
X64639286Y-27579271D02*
X63913571Y-27579271D01*
X64276428Y-27579271D02*
X64276428Y-26309271D01*
X64276428Y-26309271D02*
X64155476Y-26490699D01*
X64155476Y-26490699D02*
X64034524Y-26611652D01*
X64034524Y-26611652D02*
X63913571Y-26672128D01*
X65425476Y-26309271D02*
X65546429Y-26309271D01*
X65546429Y-26309271D02*
X65667381Y-26369747D01*
X65667381Y-26369747D02*
X65727857Y-26430223D01*
X65727857Y-26430223D02*
X65788333Y-26551175D01*
X65788333Y-26551175D02*
X65848810Y-26793080D01*
X65848810Y-26793080D02*
X65848810Y-27095461D01*
X65848810Y-27095461D02*
X65788333Y-27337366D01*
X65788333Y-27337366D02*
X65727857Y-27458318D01*
X65727857Y-27458318D02*
X65667381Y-27518795D01*
X65667381Y-27518795D02*
X65546429Y-27579271D01*
X65546429Y-27579271D02*
X65425476Y-27579271D01*
X65425476Y-27579271D02*
X65304524Y-27518795D01*
X65304524Y-27518795D02*
X65244048Y-27458318D01*
X65244048Y-27458318D02*
X65183571Y-27337366D01*
X65183571Y-27337366D02*
X65123095Y-27095461D01*
X65123095Y-27095461D02*
X65123095Y-26793080D01*
X65123095Y-26793080D02*
X65183571Y-26551175D01*
X65183571Y-26551175D02*
X65244048Y-26430223D01*
X65244048Y-26430223D02*
X65304524Y-26369747D01*
X65304524Y-26369747D02*
X65425476Y-26309271D01*
X66393095Y-26732604D02*
X66393095Y-27579271D01*
X66393095Y-26853556D02*
X66453572Y-26793080D01*
X66453572Y-26793080D02*
X66574524Y-26732604D01*
X66574524Y-26732604D02*
X66755953Y-26732604D01*
X66755953Y-26732604D02*
X66876905Y-26793080D01*
X66876905Y-26793080D02*
X66937381Y-26914033D01*
X66937381Y-26914033D02*
X66937381Y-27579271D01*
X67965477Y-26914033D02*
X67542143Y-26914033D01*
X67542143Y-27579271D02*
X67542143Y-26309271D01*
X67542143Y-26309271D02*
X68146905Y-26309271D01*
X112155476Y-14309271D02*
X112941667Y-14309271D01*
X112941667Y-14309271D02*
X112518333Y-14793080D01*
X112518333Y-14793080D02*
X112699762Y-14793080D01*
X112699762Y-14793080D02*
X112820714Y-14853556D01*
X112820714Y-14853556D02*
X112881190Y-14914033D01*
X112881190Y-14914033D02*
X112941667Y-15034985D01*
X112941667Y-15034985D02*
X112941667Y-15337366D01*
X112941667Y-15337366D02*
X112881190Y-15458318D01*
X112881190Y-15458318D02*
X112820714Y-15518795D01*
X112820714Y-15518795D02*
X112699762Y-15579271D01*
X112699762Y-15579271D02*
X112336905Y-15579271D01*
X112336905Y-15579271D02*
X112215952Y-15518795D01*
X112215952Y-15518795D02*
X112155476Y-15458318D01*
X113485952Y-15458318D02*
X113546429Y-15518795D01*
X113546429Y-15518795D02*
X113485952Y-15579271D01*
X113485952Y-15579271D02*
X113425476Y-15518795D01*
X113425476Y-15518795D02*
X113485952Y-15458318D01*
X113485952Y-15458318D02*
X113485952Y-15579271D01*
X113969762Y-14309271D02*
X114755953Y-14309271D01*
X114755953Y-14309271D02*
X114332619Y-14793080D01*
X114332619Y-14793080D02*
X114514048Y-14793080D01*
X114514048Y-14793080D02*
X114635000Y-14853556D01*
X114635000Y-14853556D02*
X114695476Y-14914033D01*
X114695476Y-14914033D02*
X114755953Y-15034985D01*
X114755953Y-15034985D02*
X114755953Y-15337366D01*
X114755953Y-15337366D02*
X114695476Y-15458318D01*
X114695476Y-15458318D02*
X114635000Y-15518795D01*
X114635000Y-15518795D02*
X114514048Y-15579271D01*
X114514048Y-15579271D02*
X114151191Y-15579271D01*
X114151191Y-15579271D02*
X114030238Y-15518795D01*
X114030238Y-15518795D02*
X113969762Y-15458318D01*
X115300238Y-15579271D02*
X115300238Y-14309271D01*
X115421191Y-15095461D02*
X115784048Y-15579271D01*
X115784048Y-14732604D02*
X115300238Y-15216414D01*
X60639286Y-76579271D02*
X59913571Y-76579271D01*
X60276428Y-76579271D02*
X60276428Y-75309271D01*
X60276428Y-75309271D02*
X60155476Y-75490699D01*
X60155476Y-75490699D02*
X60034524Y-75611652D01*
X60034524Y-75611652D02*
X59913571Y-75672128D01*
X61425476Y-75309271D02*
X61546429Y-75309271D01*
X61546429Y-75309271D02*
X61667381Y-75369747D01*
X61667381Y-75369747D02*
X61727857Y-75430223D01*
X61727857Y-75430223D02*
X61788333Y-75551175D01*
X61788333Y-75551175D02*
X61848810Y-75793080D01*
X61848810Y-75793080D02*
X61848810Y-76095461D01*
X61848810Y-76095461D02*
X61788333Y-76337366D01*
X61788333Y-76337366D02*
X61727857Y-76458318D01*
X61727857Y-76458318D02*
X61667381Y-76518795D01*
X61667381Y-76518795D02*
X61546429Y-76579271D01*
X61546429Y-76579271D02*
X61425476Y-76579271D01*
X61425476Y-76579271D02*
X61304524Y-76518795D01*
X61304524Y-76518795D02*
X61244048Y-76458318D01*
X61244048Y-76458318D02*
X61183571Y-76337366D01*
X61183571Y-76337366D02*
X61123095Y-76095461D01*
X61123095Y-76095461D02*
X61123095Y-75793080D01*
X61123095Y-75793080D02*
X61183571Y-75551175D01*
X61183571Y-75551175D02*
X61244048Y-75430223D01*
X61244048Y-75430223D02*
X61304524Y-75369747D01*
X61304524Y-75369747D02*
X61425476Y-75309271D01*
X62937381Y-75732604D02*
X62937381Y-76579271D01*
X62393095Y-75732604D02*
X62393095Y-76397842D01*
X62393095Y-76397842D02*
X62453572Y-76518795D01*
X62453572Y-76518795D02*
X62574524Y-76579271D01*
X62574524Y-76579271D02*
X62755953Y-76579271D01*
X62755953Y-76579271D02*
X62876905Y-76518795D01*
X62876905Y-76518795D02*
X62937381Y-76458318D01*
X63965477Y-75914033D02*
X63542143Y-75914033D01*
X63542143Y-76579271D02*
X63542143Y-75309271D01*
X63542143Y-75309271D02*
X64146905Y-75309271D01*
X19848810Y-76579271D02*
X19123095Y-76579271D01*
X19485952Y-76579271D02*
X19485952Y-75309271D01*
X19485952Y-75309271D02*
X19365000Y-75490699D01*
X19365000Y-75490699D02*
X19244048Y-75611652D01*
X19244048Y-75611652D02*
X19123095Y-75672128D01*
X20393095Y-76579271D02*
X20393095Y-75309271D01*
X20514048Y-76095461D02*
X20876905Y-76579271D01*
X20876905Y-75732604D02*
X20393095Y-76216414D01*
X89034524Y-76579271D02*
X88308809Y-76579271D01*
X88671666Y-76579271D02*
X88671666Y-75309271D01*
X88671666Y-75309271D02*
X88550714Y-75490699D01*
X88550714Y-75490699D02*
X88429762Y-75611652D01*
X88429762Y-75611652D02*
X88308809Y-75672128D01*
X89820714Y-75309271D02*
X89941667Y-75309271D01*
X89941667Y-75309271D02*
X90062619Y-75369747D01*
X90062619Y-75369747D02*
X90123095Y-75430223D01*
X90123095Y-75430223D02*
X90183571Y-75551175D01*
X90183571Y-75551175D02*
X90244048Y-75793080D01*
X90244048Y-75793080D02*
X90244048Y-76095461D01*
X90244048Y-76095461D02*
X90183571Y-76337366D01*
X90183571Y-76337366D02*
X90123095Y-76458318D01*
X90123095Y-76458318D02*
X90062619Y-76518795D01*
X90062619Y-76518795D02*
X89941667Y-76579271D01*
X89941667Y-76579271D02*
X89820714Y-76579271D01*
X89820714Y-76579271D02*
X89699762Y-76518795D01*
X89699762Y-76518795D02*
X89639286Y-76458318D01*
X89639286Y-76458318D02*
X89578809Y-76337366D01*
X89578809Y-76337366D02*
X89518333Y-76095461D01*
X89518333Y-76095461D02*
X89518333Y-75793080D01*
X89518333Y-75793080D02*
X89578809Y-75551175D01*
X89578809Y-75551175D02*
X89639286Y-75430223D01*
X89639286Y-75430223D02*
X89699762Y-75369747D01*
X89699762Y-75369747D02*
X89820714Y-75309271D01*
X91030238Y-75309271D02*
X91151191Y-75309271D01*
X91151191Y-75309271D02*
X91272143Y-75369747D01*
X91272143Y-75369747D02*
X91332619Y-75430223D01*
X91332619Y-75430223D02*
X91393095Y-75551175D01*
X91393095Y-75551175D02*
X91453572Y-75793080D01*
X91453572Y-75793080D02*
X91453572Y-76095461D01*
X91453572Y-76095461D02*
X91393095Y-76337366D01*
X91393095Y-76337366D02*
X91332619Y-76458318D01*
X91332619Y-76458318D02*
X91272143Y-76518795D01*
X91272143Y-76518795D02*
X91151191Y-76579271D01*
X91151191Y-76579271D02*
X91030238Y-76579271D01*
X91030238Y-76579271D02*
X90909286Y-76518795D01*
X90909286Y-76518795D02*
X90848810Y-76458318D01*
X90848810Y-76458318D02*
X90788333Y-76337366D01*
X90788333Y-76337366D02*
X90727857Y-76095461D01*
X90727857Y-76095461D02*
X90727857Y-75793080D01*
X90727857Y-75793080D02*
X90788333Y-75551175D01*
X90788333Y-75551175D02*
X90848810Y-75430223D01*
X90848810Y-75430223D02*
X90909286Y-75369747D01*
X90909286Y-75369747D02*
X91030238Y-75309271D01*
X91997857Y-75732604D02*
X91997857Y-76579271D01*
X91997857Y-75853556D02*
X92058334Y-75793080D01*
X92058334Y-75793080D02*
X92179286Y-75732604D01*
X92179286Y-75732604D02*
X92360715Y-75732604D01*
X92360715Y-75732604D02*
X92481667Y-75793080D01*
X92481667Y-75793080D02*
X92542143Y-75914033D01*
X92542143Y-75914033D02*
X92542143Y-76579271D01*
X93570239Y-75914033D02*
X93146905Y-75914033D01*
X93146905Y-76579271D02*
X93146905Y-75309271D01*
X93146905Y-75309271D02*
X93751667Y-75309271D01*
X45252618Y-60579271D02*
X44647856Y-60579271D01*
X44647856Y-60579271D02*
X44647856Y-59309271D01*
X45675951Y-60579271D02*
X45675951Y-59309271D01*
X46220237Y-60518795D02*
X46401666Y-60579271D01*
X46401666Y-60579271D02*
X46704047Y-60579271D01*
X46704047Y-60579271D02*
X46824999Y-60518795D01*
X46824999Y-60518795D02*
X46885475Y-60458318D01*
X46885475Y-60458318D02*
X46945952Y-60337366D01*
X46945952Y-60337366D02*
X46945952Y-60216414D01*
X46945952Y-60216414D02*
X46885475Y-60095461D01*
X46885475Y-60095461D02*
X46824999Y-60034985D01*
X46824999Y-60034985D02*
X46704047Y-59974509D01*
X46704047Y-59974509D02*
X46462142Y-59914033D01*
X46462142Y-59914033D02*
X46341190Y-59853556D01*
X46341190Y-59853556D02*
X46280713Y-59793080D01*
X46280713Y-59793080D02*
X46220237Y-59672128D01*
X46220237Y-59672128D02*
X46220237Y-59551175D01*
X46220237Y-59551175D02*
X46280713Y-59430223D01*
X46280713Y-59430223D02*
X46341190Y-59369747D01*
X46341190Y-59369747D02*
X46462142Y-59309271D01*
X46462142Y-59309271D02*
X46764523Y-59309271D01*
X46764523Y-59309271D02*
X46945952Y-59369747D01*
X47429761Y-59430223D02*
X47490237Y-59369747D01*
X47490237Y-59369747D02*
X47611190Y-59309271D01*
X47611190Y-59309271D02*
X47913571Y-59309271D01*
X47913571Y-59309271D02*
X48034523Y-59369747D01*
X48034523Y-59369747D02*
X48094999Y-59430223D01*
X48094999Y-59430223D02*
X48155476Y-59551175D01*
X48155476Y-59551175D02*
X48155476Y-59672128D01*
X48155476Y-59672128D02*
X48094999Y-59853556D01*
X48094999Y-59853556D02*
X47369285Y-60579271D01*
X47369285Y-60579271D02*
X48155476Y-60579271D01*
X48699761Y-60579271D02*
X48699761Y-59309271D01*
X48699761Y-59309271D02*
X49002142Y-59309271D01*
X49002142Y-59309271D02*
X49183571Y-59369747D01*
X49183571Y-59369747D02*
X49304523Y-59490699D01*
X49304523Y-59490699D02*
X49365000Y-59611652D01*
X49365000Y-59611652D02*
X49425476Y-59853556D01*
X49425476Y-59853556D02*
X49425476Y-60034985D01*
X49425476Y-60034985D02*
X49365000Y-60276890D01*
X49365000Y-60276890D02*
X49304523Y-60397842D01*
X49304523Y-60397842D02*
X49183571Y-60518795D01*
X49183571Y-60518795D02*
X49002142Y-60579271D01*
X49002142Y-60579271D02*
X48699761Y-60579271D01*
X49969761Y-60579271D02*
X49969761Y-59309271D01*
X49969761Y-59914033D02*
X50695476Y-59914033D01*
X50695476Y-60579271D02*
X50695476Y-59309271D01*
X51965476Y-60579271D02*
X51239761Y-60579271D01*
X51602618Y-60579271D02*
X51602618Y-59309271D01*
X51602618Y-59309271D02*
X51481666Y-59490699D01*
X51481666Y-59490699D02*
X51360714Y-59611652D01*
X51360714Y-59611652D02*
X51239761Y-59672128D01*
X52449285Y-59430223D02*
X52509761Y-59369747D01*
X52509761Y-59369747D02*
X52630714Y-59309271D01*
X52630714Y-59309271D02*
X52933095Y-59309271D01*
X52933095Y-59309271D02*
X53054047Y-59369747D01*
X53054047Y-59369747D02*
X53114523Y-59430223D01*
X53114523Y-59430223D02*
X53175000Y-59551175D01*
X53175000Y-59551175D02*
X53175000Y-59672128D01*
X53175000Y-59672128D02*
X53114523Y-59853556D01*
X53114523Y-59853556D02*
X52388809Y-60579271D01*
X52388809Y-60579271D02*
X53175000Y-60579271D01*
X53537857Y-59309271D02*
X54263571Y-59309271D01*
X53900714Y-60579271D02*
X53900714Y-59309271D01*
X55412619Y-60579271D02*
X54989285Y-59974509D01*
X54686904Y-60579271D02*
X54686904Y-59309271D01*
X54686904Y-59309271D02*
X55170714Y-59309271D01*
X55170714Y-59309271D02*
X55291666Y-59369747D01*
X55291666Y-59369747D02*
X55352143Y-59430223D01*
X55352143Y-59430223D02*
X55412619Y-59551175D01*
X55412619Y-59551175D02*
X55412619Y-59732604D01*
X55412619Y-59732604D02*
X55352143Y-59853556D01*
X55352143Y-59853556D02*
X55291666Y-59914033D01*
X55291666Y-59914033D02*
X55170714Y-59974509D01*
X55170714Y-59974509D02*
X54686904Y-59974509D01*
X-77858Y-6579271D02*
X-77858Y-5309271D01*
X-77858Y-5309271D02*
X345475Y-6216414D01*
X345475Y-6216414D02*
X768808Y-5309271D01*
X768808Y-5309271D02*
X768808Y-6579271D01*
X1554999Y-6579271D02*
X1434047Y-6518795D01*
X1434047Y-6518795D02*
X1373570Y-6458318D01*
X1373570Y-6458318D02*
X1313094Y-6337366D01*
X1313094Y-6337366D02*
X1313094Y-5974509D01*
X1313094Y-5974509D02*
X1373570Y-5853556D01*
X1373570Y-5853556D02*
X1434047Y-5793080D01*
X1434047Y-5793080D02*
X1554999Y-5732604D01*
X1554999Y-5732604D02*
X1736428Y-5732604D01*
X1736428Y-5732604D02*
X1857380Y-5793080D01*
X1857380Y-5793080D02*
X1917856Y-5853556D01*
X1917856Y-5853556D02*
X1978332Y-5974509D01*
X1978332Y-5974509D02*
X1978332Y-6337366D01*
X1978332Y-6337366D02*
X1917856Y-6458318D01*
X1917856Y-6458318D02*
X1857380Y-6518795D01*
X1857380Y-6518795D02*
X1736428Y-6579271D01*
X1736428Y-6579271D02*
X1554999Y-6579271D01*
X3066904Y-5732604D02*
X3066904Y-6579271D01*
X2522618Y-5732604D02*
X2522618Y-6397842D01*
X2522618Y-6397842D02*
X2583095Y-6518795D01*
X2583095Y-6518795D02*
X2704047Y-6579271D01*
X2704047Y-6579271D02*
X2885476Y-6579271D01*
X2885476Y-6579271D02*
X3006428Y-6518795D01*
X3006428Y-6518795D02*
X3066904Y-6458318D01*
X3671666Y-5732604D02*
X3671666Y-6579271D01*
X3671666Y-5853556D02*
X3732143Y-5793080D01*
X3732143Y-5793080D02*
X3853095Y-5732604D01*
X3853095Y-5732604D02*
X4034524Y-5732604D01*
X4034524Y-5732604D02*
X4155476Y-5793080D01*
X4155476Y-5793080D02*
X4215952Y-5914033D01*
X4215952Y-5914033D02*
X4215952Y-6579271D01*
X4639286Y-5732604D02*
X5123095Y-5732604D01*
X4820714Y-5309271D02*
X4820714Y-6397842D01*
X4820714Y-6397842D02*
X4881191Y-6518795D01*
X4881191Y-6518795D02*
X5002143Y-6579271D01*
X5002143Y-6579271D02*
X5123095Y-6579271D01*
X5546428Y-6579271D02*
X5546428Y-5732604D01*
X5546428Y-5309271D02*
X5485952Y-5369747D01*
X5485952Y-5369747D02*
X5546428Y-5430223D01*
X5546428Y-5430223D02*
X5606905Y-5369747D01*
X5606905Y-5369747D02*
X5546428Y-5309271D01*
X5546428Y-5309271D02*
X5546428Y-5430223D01*
X6151190Y-5732604D02*
X6151190Y-6579271D01*
X6151190Y-5853556D02*
X6211667Y-5793080D01*
X6211667Y-5793080D02*
X6332619Y-5732604D01*
X6332619Y-5732604D02*
X6514048Y-5732604D01*
X6514048Y-5732604D02*
X6635000Y-5793080D01*
X6635000Y-5793080D02*
X6695476Y-5914033D01*
X6695476Y-5914033D02*
X6695476Y-6579271D01*
X7844524Y-5732604D02*
X7844524Y-6760699D01*
X7844524Y-6760699D02*
X7784048Y-6881652D01*
X7784048Y-6881652D02*
X7723572Y-6942128D01*
X7723572Y-6942128D02*
X7602619Y-7002604D01*
X7602619Y-7002604D02*
X7421191Y-7002604D01*
X7421191Y-7002604D02*
X7300238Y-6942128D01*
X7844524Y-6518795D02*
X7723572Y-6579271D01*
X7723572Y-6579271D02*
X7481667Y-6579271D01*
X7481667Y-6579271D02*
X7360715Y-6518795D01*
X7360715Y-6518795D02*
X7300238Y-6458318D01*
X7300238Y-6458318D02*
X7239762Y-6337366D01*
X7239762Y-6337366D02*
X7239762Y-5974509D01*
X7239762Y-5974509D02*
X7300238Y-5853556D01*
X7300238Y-5853556D02*
X7360715Y-5793080D01*
X7360715Y-5793080D02*
X7481667Y-5732604D01*
X7481667Y-5732604D02*
X7723572Y-5732604D01*
X7723572Y-5732604D02*
X7844524Y-5793080D01*
X8449286Y-6579271D02*
X8449286Y-5309271D01*
X8449286Y-5914033D02*
X9175001Y-5914033D01*
X9175001Y-6579271D02*
X9175001Y-5309271D01*
X9961191Y-6579271D02*
X9840239Y-6518795D01*
X9840239Y-6518795D02*
X9779762Y-6458318D01*
X9779762Y-6458318D02*
X9719286Y-6337366D01*
X9719286Y-6337366D02*
X9719286Y-5974509D01*
X9719286Y-5974509D02*
X9779762Y-5853556D01*
X9779762Y-5853556D02*
X9840239Y-5793080D01*
X9840239Y-5793080D02*
X9961191Y-5732604D01*
X9961191Y-5732604D02*
X10142620Y-5732604D01*
X10142620Y-5732604D02*
X10263572Y-5793080D01*
X10263572Y-5793080D02*
X10324048Y-5853556D01*
X10324048Y-5853556D02*
X10384524Y-5974509D01*
X10384524Y-5974509D02*
X10384524Y-6337366D01*
X10384524Y-6337366D02*
X10324048Y-6458318D01*
X10324048Y-6458318D02*
X10263572Y-6518795D01*
X10263572Y-6518795D02*
X10142620Y-6579271D01*
X10142620Y-6579271D02*
X9961191Y-6579271D01*
X11110239Y-6579271D02*
X10989287Y-6518795D01*
X10989287Y-6518795D02*
X10928810Y-6397842D01*
X10928810Y-6397842D02*
X10928810Y-5309271D01*
X12077858Y-6518795D02*
X11956906Y-6579271D01*
X11956906Y-6579271D02*
X11715001Y-6579271D01*
X11715001Y-6579271D02*
X11594048Y-6518795D01*
X11594048Y-6518795D02*
X11533572Y-6397842D01*
X11533572Y-6397842D02*
X11533572Y-5914033D01*
X11533572Y-5914033D02*
X11594048Y-5793080D01*
X11594048Y-5793080D02*
X11715001Y-5732604D01*
X11715001Y-5732604D02*
X11956906Y-5732604D01*
X11956906Y-5732604D02*
X12077858Y-5793080D01*
X12077858Y-5793080D02*
X12138334Y-5914033D01*
X12138334Y-5914033D02*
X12138334Y-6034985D01*
X12138334Y-6034985D02*
X11533572Y-6155937D01*
X65161904Y-71309271D02*
X65948095Y-71309271D01*
X65948095Y-71309271D02*
X65524761Y-71793080D01*
X65524761Y-71793080D02*
X65706190Y-71793080D01*
X65706190Y-71793080D02*
X65827142Y-71853556D01*
X65827142Y-71853556D02*
X65887618Y-71914033D01*
X65887618Y-71914033D02*
X65948095Y-72034985D01*
X65948095Y-72034985D02*
X65948095Y-72337366D01*
X65948095Y-72337366D02*
X65887618Y-72458318D01*
X65887618Y-72458318D02*
X65827142Y-72518795D01*
X65827142Y-72518795D02*
X65706190Y-72579271D01*
X65706190Y-72579271D02*
X65343333Y-72579271D01*
X65343333Y-72579271D02*
X65222380Y-72518795D01*
X65222380Y-72518795D02*
X65161904Y-72458318D01*
X66431904Y-71430223D02*
X66492380Y-71369747D01*
X66492380Y-71369747D02*
X66613333Y-71309271D01*
X66613333Y-71309271D02*
X66915714Y-71309271D01*
X66915714Y-71309271D02*
X67036666Y-71369747D01*
X67036666Y-71369747D02*
X67097142Y-71430223D01*
X67097142Y-71430223D02*
X67157619Y-71551175D01*
X67157619Y-71551175D02*
X67157619Y-71672128D01*
X67157619Y-71672128D02*
X67097142Y-71853556D01*
X67097142Y-71853556D02*
X66371428Y-72579271D01*
X66371428Y-72579271D02*
X67157619Y-72579271D01*
X67701904Y-72458318D02*
X67762381Y-72518795D01*
X67762381Y-72518795D02*
X67701904Y-72579271D01*
X67701904Y-72579271D02*
X67641428Y-72518795D01*
X67641428Y-72518795D02*
X67701904Y-72458318D01*
X67701904Y-72458318D02*
X67701904Y-72579271D01*
X68185714Y-71309271D02*
X69032381Y-71309271D01*
X69032381Y-71309271D02*
X68488095Y-72579271D01*
X70060476Y-71309271D02*
X69818571Y-71309271D01*
X69818571Y-71309271D02*
X69697619Y-71369747D01*
X69697619Y-71369747D02*
X69637143Y-71430223D01*
X69637143Y-71430223D02*
X69516190Y-71611652D01*
X69516190Y-71611652D02*
X69455714Y-71853556D01*
X69455714Y-71853556D02*
X69455714Y-72337366D01*
X69455714Y-72337366D02*
X69516190Y-72458318D01*
X69516190Y-72458318D02*
X69576667Y-72518795D01*
X69576667Y-72518795D02*
X69697619Y-72579271D01*
X69697619Y-72579271D02*
X69939524Y-72579271D01*
X69939524Y-72579271D02*
X70060476Y-72518795D01*
X70060476Y-72518795D02*
X70120952Y-72458318D01*
X70120952Y-72458318D02*
X70181429Y-72337366D01*
X70181429Y-72337366D02*
X70181429Y-72034985D01*
X70181429Y-72034985D02*
X70120952Y-71914033D01*
X70120952Y-71914033D02*
X70060476Y-71853556D01*
X70060476Y-71853556D02*
X69939524Y-71793080D01*
X69939524Y-71793080D02*
X69697619Y-71793080D01*
X69697619Y-71793080D02*
X69576667Y-71853556D01*
X69576667Y-71853556D02*
X69516190Y-71914033D01*
X69516190Y-71914033D02*
X69455714Y-72034985D01*
X70907143Y-71853556D02*
X70786191Y-71793080D01*
X70786191Y-71793080D02*
X70725714Y-71732604D01*
X70725714Y-71732604D02*
X70665238Y-71611652D01*
X70665238Y-71611652D02*
X70665238Y-71551175D01*
X70665238Y-71551175D02*
X70725714Y-71430223D01*
X70725714Y-71430223D02*
X70786191Y-71369747D01*
X70786191Y-71369747D02*
X70907143Y-71309271D01*
X70907143Y-71309271D02*
X71149048Y-71309271D01*
X71149048Y-71309271D02*
X71270000Y-71369747D01*
X71270000Y-71369747D02*
X71330476Y-71430223D01*
X71330476Y-71430223D02*
X71390953Y-71551175D01*
X71390953Y-71551175D02*
X71390953Y-71611652D01*
X71390953Y-71611652D02*
X71330476Y-71732604D01*
X71330476Y-71732604D02*
X71270000Y-71793080D01*
X71270000Y-71793080D02*
X71149048Y-71853556D01*
X71149048Y-71853556D02*
X70907143Y-71853556D01*
X70907143Y-71853556D02*
X70786191Y-71914033D01*
X70786191Y-71914033D02*
X70725714Y-71974509D01*
X70725714Y-71974509D02*
X70665238Y-72095461D01*
X70665238Y-72095461D02*
X70665238Y-72337366D01*
X70665238Y-72337366D02*
X70725714Y-72458318D01*
X70725714Y-72458318D02*
X70786191Y-72518795D01*
X70786191Y-72518795D02*
X70907143Y-72579271D01*
X70907143Y-72579271D02*
X71149048Y-72579271D01*
X71149048Y-72579271D02*
X71270000Y-72518795D01*
X71270000Y-72518795D02*
X71330476Y-72458318D01*
X71330476Y-72458318D02*
X71390953Y-72337366D01*
X71390953Y-72337366D02*
X71390953Y-72095461D01*
X71390953Y-72095461D02*
X71330476Y-71974509D01*
X71330476Y-71974509D02*
X71270000Y-71914033D01*
X71270000Y-71914033D02*
X71149048Y-71853556D01*
X71935238Y-72579271D02*
X71935238Y-71309271D01*
X72056191Y-72095461D02*
X72419048Y-72579271D01*
X72419048Y-71732604D02*
X71935238Y-72216414D01*
X72963333Y-72579271D02*
X72963333Y-71309271D01*
X72963333Y-71914033D02*
X73689048Y-71914033D01*
X73689048Y-72579271D02*
X73689048Y-71309271D01*
X74172857Y-71732604D02*
X74838095Y-71732604D01*
X74838095Y-71732604D02*
X74172857Y-72579271D01*
X74172857Y-72579271D02*
X74838095Y-72579271D01*
X26215952Y-34732604D02*
X26215952Y-35579271D01*
X25913571Y-34248795D02*
X25611190Y-35155937D01*
X25611190Y-35155937D02*
X26397381Y-35155937D01*
X26881190Y-35458318D02*
X26941667Y-35518795D01*
X26941667Y-35518795D02*
X26881190Y-35579271D01*
X26881190Y-35579271D02*
X26820714Y-35518795D01*
X26820714Y-35518795D02*
X26881190Y-35458318D01*
X26881190Y-35458318D02*
X26881190Y-35579271D01*
X27365000Y-34309271D02*
X28211667Y-34309271D01*
X28211667Y-34309271D02*
X27667381Y-35579271D01*
X29239762Y-34732604D02*
X29239762Y-35579271D01*
X28695476Y-34732604D02*
X28695476Y-35397842D01*
X28695476Y-35397842D02*
X28755953Y-35518795D01*
X28755953Y-35518795D02*
X28876905Y-35579271D01*
X28876905Y-35579271D02*
X29058334Y-35579271D01*
X29058334Y-35579271D02*
X29179286Y-35518795D01*
X29179286Y-35518795D02*
X29239762Y-35458318D01*
X30267858Y-34914033D02*
X29844524Y-34914033D01*
X29844524Y-35579271D02*
X29844524Y-34309271D01*
X29844524Y-34309271D02*
X30449286Y-34309271D01*
X117922141Y-6579271D02*
X117922141Y-5309271D01*
X117922141Y-5309271D02*
X118345475Y-6216414D01*
X118345475Y-6216414D02*
X118768808Y-5309271D01*
X118768808Y-5309271D02*
X118768808Y-6579271D01*
X119554999Y-6579271D02*
X119434047Y-6518795D01*
X119434047Y-6518795D02*
X119373570Y-6458318D01*
X119373570Y-6458318D02*
X119313094Y-6337366D01*
X119313094Y-6337366D02*
X119313094Y-5974509D01*
X119313094Y-5974509D02*
X119373570Y-5853556D01*
X119373570Y-5853556D02*
X119434047Y-5793080D01*
X119434047Y-5793080D02*
X119554999Y-5732604D01*
X119554999Y-5732604D02*
X119736428Y-5732604D01*
X119736428Y-5732604D02*
X119857380Y-5793080D01*
X119857380Y-5793080D02*
X119917856Y-5853556D01*
X119917856Y-5853556D02*
X119978332Y-5974509D01*
X119978332Y-5974509D02*
X119978332Y-6337366D01*
X119978332Y-6337366D02*
X119917856Y-6458318D01*
X119917856Y-6458318D02*
X119857380Y-6518795D01*
X119857380Y-6518795D02*
X119736428Y-6579271D01*
X119736428Y-6579271D02*
X119554999Y-6579271D01*
X121066904Y-5732604D02*
X121066904Y-6579271D01*
X120522618Y-5732604D02*
X120522618Y-6397842D01*
X120522618Y-6397842D02*
X120583095Y-6518795D01*
X120583095Y-6518795D02*
X120704047Y-6579271D01*
X120704047Y-6579271D02*
X120885476Y-6579271D01*
X120885476Y-6579271D02*
X121006428Y-6518795D01*
X121006428Y-6518795D02*
X121066904Y-6458318D01*
X121671666Y-5732604D02*
X121671666Y-6579271D01*
X121671666Y-5853556D02*
X121732143Y-5793080D01*
X121732143Y-5793080D02*
X121853095Y-5732604D01*
X121853095Y-5732604D02*
X122034524Y-5732604D01*
X122034524Y-5732604D02*
X122155476Y-5793080D01*
X122155476Y-5793080D02*
X122215952Y-5914033D01*
X122215952Y-5914033D02*
X122215952Y-6579271D01*
X122639286Y-5732604D02*
X123123095Y-5732604D01*
X122820714Y-5309271D02*
X122820714Y-6397842D01*
X122820714Y-6397842D02*
X122881191Y-6518795D01*
X122881191Y-6518795D02*
X123002143Y-6579271D01*
X123002143Y-6579271D02*
X123123095Y-6579271D01*
X123546428Y-6579271D02*
X123546428Y-5732604D01*
X123546428Y-5309271D02*
X123485952Y-5369747D01*
X123485952Y-5369747D02*
X123546428Y-5430223D01*
X123546428Y-5430223D02*
X123606905Y-5369747D01*
X123606905Y-5369747D02*
X123546428Y-5309271D01*
X123546428Y-5309271D02*
X123546428Y-5430223D01*
X124151190Y-5732604D02*
X124151190Y-6579271D01*
X124151190Y-5853556D02*
X124211667Y-5793080D01*
X124211667Y-5793080D02*
X124332619Y-5732604D01*
X124332619Y-5732604D02*
X124514048Y-5732604D01*
X124514048Y-5732604D02*
X124635000Y-5793080D01*
X124635000Y-5793080D02*
X124695476Y-5914033D01*
X124695476Y-5914033D02*
X124695476Y-6579271D01*
X125844524Y-5732604D02*
X125844524Y-6760699D01*
X125844524Y-6760699D02*
X125784048Y-6881652D01*
X125784048Y-6881652D02*
X125723572Y-6942128D01*
X125723572Y-6942128D02*
X125602619Y-7002604D01*
X125602619Y-7002604D02*
X125421191Y-7002604D01*
X125421191Y-7002604D02*
X125300238Y-6942128D01*
X125844524Y-6518795D02*
X125723572Y-6579271D01*
X125723572Y-6579271D02*
X125481667Y-6579271D01*
X125481667Y-6579271D02*
X125360715Y-6518795D01*
X125360715Y-6518795D02*
X125300238Y-6458318D01*
X125300238Y-6458318D02*
X125239762Y-6337366D01*
X125239762Y-6337366D02*
X125239762Y-5974509D01*
X125239762Y-5974509D02*
X125300238Y-5853556D01*
X125300238Y-5853556D02*
X125360715Y-5793080D01*
X125360715Y-5793080D02*
X125481667Y-5732604D01*
X125481667Y-5732604D02*
X125723572Y-5732604D01*
X125723572Y-5732604D02*
X125844524Y-5793080D01*
X126449286Y-6579271D02*
X126449286Y-5309271D01*
X126449286Y-5914033D02*
X127175001Y-5914033D01*
X127175001Y-6579271D02*
X127175001Y-5309271D01*
X127961191Y-6579271D02*
X127840239Y-6518795D01*
X127840239Y-6518795D02*
X127779762Y-6458318D01*
X127779762Y-6458318D02*
X127719286Y-6337366D01*
X127719286Y-6337366D02*
X127719286Y-5974509D01*
X127719286Y-5974509D02*
X127779762Y-5853556D01*
X127779762Y-5853556D02*
X127840239Y-5793080D01*
X127840239Y-5793080D02*
X127961191Y-5732604D01*
X127961191Y-5732604D02*
X128142620Y-5732604D01*
X128142620Y-5732604D02*
X128263572Y-5793080D01*
X128263572Y-5793080D02*
X128324048Y-5853556D01*
X128324048Y-5853556D02*
X128384524Y-5974509D01*
X128384524Y-5974509D02*
X128384524Y-6337366D01*
X128384524Y-6337366D02*
X128324048Y-6458318D01*
X128324048Y-6458318D02*
X128263572Y-6518795D01*
X128263572Y-6518795D02*
X128142620Y-6579271D01*
X128142620Y-6579271D02*
X127961191Y-6579271D01*
X129110239Y-6579271D02*
X128989287Y-6518795D01*
X128989287Y-6518795D02*
X128928810Y-6397842D01*
X128928810Y-6397842D02*
X128928810Y-5309271D01*
X130077858Y-6518795D02*
X129956906Y-6579271D01*
X129956906Y-6579271D02*
X129715001Y-6579271D01*
X129715001Y-6579271D02*
X129594048Y-6518795D01*
X129594048Y-6518795D02*
X129533572Y-6397842D01*
X129533572Y-6397842D02*
X129533572Y-5914033D01*
X129533572Y-5914033D02*
X129594048Y-5793080D01*
X129594048Y-5793080D02*
X129715001Y-5732604D01*
X129715001Y-5732604D02*
X129956906Y-5732604D01*
X129956906Y-5732604D02*
X130077858Y-5793080D01*
X130077858Y-5793080D02*
X130138334Y-5914033D01*
X130138334Y-5914033D02*
X130138334Y-6034985D01*
X130138334Y-6034985D02*
X129533572Y-6155937D01*
X22490237Y-19430223D02*
X22550713Y-19369747D01*
X22550713Y-19369747D02*
X22671666Y-19309271D01*
X22671666Y-19309271D02*
X22974047Y-19309271D01*
X22974047Y-19309271D02*
X23094999Y-19369747D01*
X23094999Y-19369747D02*
X23155475Y-19430223D01*
X23155475Y-19430223D02*
X23215952Y-19551175D01*
X23215952Y-19551175D02*
X23215952Y-19672128D01*
X23215952Y-19672128D02*
X23155475Y-19853556D01*
X23155475Y-19853556D02*
X22429761Y-20579271D01*
X22429761Y-20579271D02*
X23215952Y-20579271D01*
X23760237Y-20458318D02*
X23820714Y-20518795D01*
X23820714Y-20518795D02*
X23760237Y-20579271D01*
X23760237Y-20579271D02*
X23699761Y-20518795D01*
X23699761Y-20518795D02*
X23760237Y-20458318D01*
X23760237Y-20458318D02*
X23760237Y-20579271D01*
X24304523Y-19430223D02*
X24364999Y-19369747D01*
X24364999Y-19369747D02*
X24485952Y-19309271D01*
X24485952Y-19309271D02*
X24788333Y-19309271D01*
X24788333Y-19309271D02*
X24909285Y-19369747D01*
X24909285Y-19369747D02*
X24969761Y-19430223D01*
X24969761Y-19430223D02*
X25030238Y-19551175D01*
X25030238Y-19551175D02*
X25030238Y-19672128D01*
X25030238Y-19672128D02*
X24969761Y-19853556D01*
X24969761Y-19853556D02*
X24244047Y-20579271D01*
X24244047Y-20579271D02*
X25030238Y-20579271D01*
X26118809Y-19732604D02*
X26118809Y-20579271D01*
X25574523Y-19732604D02*
X25574523Y-20397842D01*
X25574523Y-20397842D02*
X25635000Y-20518795D01*
X25635000Y-20518795D02*
X25755952Y-20579271D01*
X25755952Y-20579271D02*
X25937381Y-20579271D01*
X25937381Y-20579271D02*
X26058333Y-20518795D01*
X26058333Y-20518795D02*
X26118809Y-20458318D01*
X26723571Y-20579271D02*
X26723571Y-19309271D01*
X26723571Y-19914033D02*
X27449286Y-19914033D01*
X27449286Y-20579271D02*
X27449286Y-19309271D01*
X15244048Y-18579271D02*
X14518333Y-18579271D01*
X14881190Y-18579271D02*
X14881190Y-17309271D01*
X14881190Y-17309271D02*
X14760238Y-17490699D01*
X14760238Y-17490699D02*
X14639286Y-17611652D01*
X14639286Y-17611652D02*
X14518333Y-17672128D01*
X16030238Y-17309271D02*
X16151191Y-17309271D01*
X16151191Y-17309271D02*
X16272143Y-17369747D01*
X16272143Y-17369747D02*
X16332619Y-17430223D01*
X16332619Y-17430223D02*
X16393095Y-17551175D01*
X16393095Y-17551175D02*
X16453572Y-17793080D01*
X16453572Y-17793080D02*
X16453572Y-18095461D01*
X16453572Y-18095461D02*
X16393095Y-18337366D01*
X16393095Y-18337366D02*
X16332619Y-18458318D01*
X16332619Y-18458318D02*
X16272143Y-18518795D01*
X16272143Y-18518795D02*
X16151191Y-18579271D01*
X16151191Y-18579271D02*
X16030238Y-18579271D01*
X16030238Y-18579271D02*
X15909286Y-18518795D01*
X15909286Y-18518795D02*
X15848810Y-18458318D01*
X15848810Y-18458318D02*
X15788333Y-18337366D01*
X15788333Y-18337366D02*
X15727857Y-18095461D01*
X15727857Y-18095461D02*
X15727857Y-17793080D01*
X15727857Y-17793080D02*
X15788333Y-17551175D01*
X15788333Y-17551175D02*
X15848810Y-17430223D01*
X15848810Y-17430223D02*
X15909286Y-17369747D01*
X15909286Y-17369747D02*
X16030238Y-17309271D01*
X16997857Y-18579271D02*
X16997857Y-17309271D01*
X17118810Y-18095461D02*
X17481667Y-18579271D01*
X17481667Y-17732604D02*
X16997857Y-18216414D01*
X55958809Y-4309271D02*
X56684523Y-4309271D01*
X56321666Y-5579271D02*
X56321666Y-4309271D01*
X57349761Y-4974509D02*
X57349761Y-5579271D01*
X56926428Y-4309271D02*
X57349761Y-4974509D01*
X57349761Y-4974509D02*
X57773095Y-4309271D01*
X58196427Y-5579271D02*
X58196427Y-4309271D01*
X58196427Y-4309271D02*
X58680237Y-4309271D01*
X58680237Y-4309271D02*
X58801189Y-4369747D01*
X58801189Y-4369747D02*
X58861666Y-4430223D01*
X58861666Y-4430223D02*
X58922142Y-4551175D01*
X58922142Y-4551175D02*
X58922142Y-4732604D01*
X58922142Y-4732604D02*
X58861666Y-4853556D01*
X58861666Y-4853556D02*
X58801189Y-4914033D01*
X58801189Y-4914033D02*
X58680237Y-4974509D01*
X58680237Y-4974509D02*
X58196427Y-4974509D01*
X59466427Y-4914033D02*
X59889761Y-4914033D01*
X60071189Y-5579271D02*
X59466427Y-5579271D01*
X59466427Y-5579271D02*
X59466427Y-4309271D01*
X59466427Y-4309271D02*
X60071189Y-4309271D01*
X60615475Y-5095461D02*
X61583095Y-5095461D01*
X62913571Y-5458318D02*
X62853095Y-5518795D01*
X62853095Y-5518795D02*
X62671666Y-5579271D01*
X62671666Y-5579271D02*
X62550714Y-5579271D01*
X62550714Y-5579271D02*
X62369285Y-5518795D01*
X62369285Y-5518795D02*
X62248333Y-5397842D01*
X62248333Y-5397842D02*
X62187856Y-5276890D01*
X62187856Y-5276890D02*
X62127380Y-5034985D01*
X62127380Y-5034985D02*
X62127380Y-4853556D01*
X62127380Y-4853556D02*
X62187856Y-4611652D01*
X62187856Y-4611652D02*
X62248333Y-4490699D01*
X62248333Y-4490699D02*
X62369285Y-4369747D01*
X62369285Y-4369747D02*
X62550714Y-4309271D01*
X62550714Y-4309271D02*
X62671666Y-4309271D01*
X62671666Y-4309271D02*
X62853095Y-4369747D01*
X62853095Y-4369747D02*
X62913571Y-4430223D01*
X63457856Y-5095461D02*
X64425476Y-5095461D01*
X64909285Y-4309271D02*
X65695476Y-4309271D01*
X65695476Y-4309271D02*
X65272142Y-4793080D01*
X65272142Y-4793080D02*
X65453571Y-4793080D01*
X65453571Y-4793080D02*
X65574523Y-4853556D01*
X65574523Y-4853556D02*
X65634999Y-4914033D01*
X65634999Y-4914033D02*
X65695476Y-5034985D01*
X65695476Y-5034985D02*
X65695476Y-5337366D01*
X65695476Y-5337366D02*
X65634999Y-5458318D01*
X65634999Y-5458318D02*
X65574523Y-5518795D01*
X65574523Y-5518795D02*
X65453571Y-5579271D01*
X65453571Y-5579271D02*
X65090714Y-5579271D01*
X65090714Y-5579271D02*
X64969761Y-5518795D01*
X64969761Y-5518795D02*
X64909285Y-5458318D01*
X66905000Y-5579271D02*
X66179285Y-5579271D01*
X66542142Y-5579271D02*
X66542142Y-4309271D01*
X66542142Y-4309271D02*
X66421190Y-4490699D01*
X66421190Y-4490699D02*
X66300238Y-4611652D01*
X66300238Y-4611652D02*
X66179285Y-4672128D01*
X67449285Y-5095461D02*
X68416905Y-5095461D01*
X69021666Y-5579271D02*
X69021666Y-4309271D01*
X69021666Y-4309271D02*
X69445000Y-5216414D01*
X69445000Y-5216414D02*
X69868333Y-4309271D01*
X69868333Y-4309271D02*
X69868333Y-5579271D01*
X70473095Y-5095461D02*
X71440715Y-5095461D01*
X72710715Y-5579271D02*
X71985000Y-5579271D01*
X72347857Y-5579271D02*
X72347857Y-4309271D01*
X72347857Y-4309271D02*
X72226905Y-4490699D01*
X72226905Y-4490699D02*
X72105953Y-4611652D01*
X72105953Y-4611652D02*
X71985000Y-4672128D01*
X73194524Y-4430223D02*
X73255000Y-4369747D01*
X73255000Y-4369747D02*
X73375953Y-4309271D01*
X73375953Y-4309271D02*
X73678334Y-4309271D01*
X73678334Y-4309271D02*
X73799286Y-4369747D01*
X73799286Y-4369747D02*
X73859762Y-4430223D01*
X73859762Y-4430223D02*
X73920239Y-4551175D01*
X73920239Y-4551175D02*
X73920239Y-4672128D01*
X73920239Y-4672128D02*
X73859762Y-4853556D01*
X73859762Y-4853556D02*
X73134048Y-5579271D01*
X73134048Y-5579271D02*
X73920239Y-5579271D01*
X19848810Y-16579271D02*
X19123095Y-16579271D01*
X19485952Y-16579271D02*
X19485952Y-15309271D01*
X19485952Y-15309271D02*
X19365000Y-15490699D01*
X19365000Y-15490699D02*
X19244048Y-15611652D01*
X19244048Y-15611652D02*
X19123095Y-15672128D01*
X20393095Y-16579271D02*
X20393095Y-15309271D01*
X20514048Y-16095461D02*
X20876905Y-16579271D01*
X20876905Y-15732604D02*
X20393095Y-16216414D01*
X66639286Y-30579271D02*
X65913571Y-30579271D01*
X66276428Y-30579271D02*
X66276428Y-29309271D01*
X66276428Y-29309271D02*
X66155476Y-29490699D01*
X66155476Y-29490699D02*
X66034524Y-29611652D01*
X66034524Y-29611652D02*
X65913571Y-29672128D01*
X67425476Y-29309271D02*
X67546429Y-29309271D01*
X67546429Y-29309271D02*
X67667381Y-29369747D01*
X67667381Y-29369747D02*
X67727857Y-29430223D01*
X67727857Y-29430223D02*
X67788333Y-29551175D01*
X67788333Y-29551175D02*
X67848810Y-29793080D01*
X67848810Y-29793080D02*
X67848810Y-30095461D01*
X67848810Y-30095461D02*
X67788333Y-30337366D01*
X67788333Y-30337366D02*
X67727857Y-30458318D01*
X67727857Y-30458318D02*
X67667381Y-30518795D01*
X67667381Y-30518795D02*
X67546429Y-30579271D01*
X67546429Y-30579271D02*
X67425476Y-30579271D01*
X67425476Y-30579271D02*
X67304524Y-30518795D01*
X67304524Y-30518795D02*
X67244048Y-30458318D01*
X67244048Y-30458318D02*
X67183571Y-30337366D01*
X67183571Y-30337366D02*
X67123095Y-30095461D01*
X67123095Y-30095461D02*
X67123095Y-29793080D01*
X67123095Y-29793080D02*
X67183571Y-29551175D01*
X67183571Y-29551175D02*
X67244048Y-29430223D01*
X67244048Y-29430223D02*
X67304524Y-29369747D01*
X67304524Y-29369747D02*
X67425476Y-29309271D01*
X68393095Y-29732604D02*
X68393095Y-30579271D01*
X68393095Y-29853556D02*
X68453572Y-29793080D01*
X68453572Y-29793080D02*
X68574524Y-29732604D01*
X68574524Y-29732604D02*
X68755953Y-29732604D01*
X68755953Y-29732604D02*
X68876905Y-29793080D01*
X68876905Y-29793080D02*
X68937381Y-29914033D01*
X68937381Y-29914033D02*
X68937381Y-30579271D01*
X69965477Y-29914033D02*
X69542143Y-29914033D01*
X69542143Y-30579271D02*
X69542143Y-29309271D01*
X69542143Y-29309271D02*
X70146905Y-29309271D01*
X69637143Y-80579271D02*
X68911428Y-80579271D01*
X69274285Y-80579271D02*
X69274285Y-79309271D01*
X69274285Y-79309271D02*
X69153333Y-79490699D01*
X69153333Y-79490699D02*
X69032381Y-79611652D01*
X69032381Y-79611652D02*
X68911428Y-79672128D01*
X70181428Y-80579271D02*
X70181428Y-79309271D01*
X70181428Y-79309271D02*
X70604762Y-80216414D01*
X70604762Y-80216414D02*
X71028095Y-79309271D01*
X71028095Y-79309271D02*
X71028095Y-80579271D01*
X11740713Y-15579271D02*
X11740713Y-14309271D01*
X11740713Y-14309271D02*
X12224523Y-14309271D01*
X12224523Y-14309271D02*
X12345475Y-14369747D01*
X12345475Y-14369747D02*
X12405952Y-14430223D01*
X12405952Y-14430223D02*
X12466428Y-14551175D01*
X12466428Y-14551175D02*
X12466428Y-14732604D01*
X12466428Y-14732604D02*
X12405952Y-14853556D01*
X12405952Y-14853556D02*
X12345475Y-14914033D01*
X12345475Y-14914033D02*
X12224523Y-14974509D01*
X12224523Y-14974509D02*
X11740713Y-14974509D01*
X13010713Y-14914033D02*
X13434047Y-14914033D01*
X13615475Y-15579271D02*
X13010713Y-15579271D01*
X13010713Y-15579271D02*
X13010713Y-14309271D01*
X13010713Y-14309271D02*
X13615475Y-14309271D01*
X14099285Y-15518795D02*
X14280714Y-15579271D01*
X14280714Y-15579271D02*
X14583095Y-15579271D01*
X14583095Y-15579271D02*
X14704047Y-15518795D01*
X14704047Y-15518795D02*
X14764523Y-15458318D01*
X14764523Y-15458318D02*
X14825000Y-15337366D01*
X14825000Y-15337366D02*
X14825000Y-15216414D01*
X14825000Y-15216414D02*
X14764523Y-15095461D01*
X14764523Y-15095461D02*
X14704047Y-15034985D01*
X14704047Y-15034985D02*
X14583095Y-14974509D01*
X14583095Y-14974509D02*
X14341190Y-14914033D01*
X14341190Y-14914033D02*
X14220238Y-14853556D01*
X14220238Y-14853556D02*
X14159761Y-14793080D01*
X14159761Y-14793080D02*
X14099285Y-14672128D01*
X14099285Y-14672128D02*
X14099285Y-14551175D01*
X14099285Y-14551175D02*
X14159761Y-14430223D01*
X14159761Y-14430223D02*
X14220238Y-14369747D01*
X14220238Y-14369747D02*
X14341190Y-14309271D01*
X14341190Y-14309271D02*
X14643571Y-14309271D01*
X14643571Y-14309271D02*
X14825000Y-14369747D01*
X15369285Y-15579271D02*
X15369285Y-14309271D01*
X15369285Y-14309271D02*
X15671666Y-14309271D01*
X15671666Y-14309271D02*
X15853095Y-14369747D01*
X15853095Y-14369747D02*
X15974047Y-14490699D01*
X15974047Y-14490699D02*
X16034524Y-14611652D01*
X16034524Y-14611652D02*
X16095000Y-14853556D01*
X16095000Y-14853556D02*
X16095000Y-15034985D01*
X16095000Y-15034985D02*
X16034524Y-15276890D01*
X16034524Y-15276890D02*
X15974047Y-15397842D01*
X15974047Y-15397842D02*
X15853095Y-15518795D01*
X15853095Y-15518795D02*
X15671666Y-15579271D01*
X15671666Y-15579271D02*
X15369285Y-15579271D01*
X17244047Y-14309271D02*
X16639285Y-14309271D01*
X16639285Y-14309271D02*
X16578809Y-14914033D01*
X16578809Y-14914033D02*
X16639285Y-14853556D01*
X16639285Y-14853556D02*
X16760238Y-14793080D01*
X16760238Y-14793080D02*
X17062619Y-14793080D01*
X17062619Y-14793080D02*
X17183571Y-14853556D01*
X17183571Y-14853556D02*
X17244047Y-14914033D01*
X17244047Y-14914033D02*
X17304524Y-15034985D01*
X17304524Y-15034985D02*
X17304524Y-15337366D01*
X17304524Y-15337366D02*
X17244047Y-15458318D01*
X17244047Y-15458318D02*
X17183571Y-15518795D01*
X17183571Y-15518795D02*
X17062619Y-15579271D01*
X17062619Y-15579271D02*
X16760238Y-15579271D01*
X16760238Y-15579271D02*
X16639285Y-15518795D01*
X16639285Y-15518795D02*
X16578809Y-15458318D01*
X17667381Y-14309271D02*
X18090714Y-15579271D01*
X18090714Y-15579271D02*
X18514048Y-14309271D01*
X19179285Y-14309271D02*
X19300238Y-14309271D01*
X19300238Y-14309271D02*
X19421190Y-14369747D01*
X19421190Y-14369747D02*
X19481666Y-14430223D01*
X19481666Y-14430223D02*
X19542142Y-14551175D01*
X19542142Y-14551175D02*
X19602619Y-14793080D01*
X19602619Y-14793080D02*
X19602619Y-15095461D01*
X19602619Y-15095461D02*
X19542142Y-15337366D01*
X19542142Y-15337366D02*
X19481666Y-15458318D01*
X19481666Y-15458318D02*
X19421190Y-15518795D01*
X19421190Y-15518795D02*
X19300238Y-15579271D01*
X19300238Y-15579271D02*
X19179285Y-15579271D01*
X19179285Y-15579271D02*
X19058333Y-15518795D01*
X19058333Y-15518795D02*
X18997857Y-15458318D01*
X18997857Y-15458318D02*
X18937380Y-15337366D01*
X18937380Y-15337366D02*
X18876904Y-15095461D01*
X18876904Y-15095461D02*
X18876904Y-14793080D01*
X18876904Y-14793080D02*
X18937380Y-14551175D01*
X18937380Y-14551175D02*
X18997857Y-14430223D01*
X18997857Y-14430223D02*
X19058333Y-14369747D01*
X19058333Y-14369747D02*
X19179285Y-14309271D01*
X20086428Y-15518795D02*
X20267857Y-15579271D01*
X20267857Y-15579271D02*
X20570238Y-15579271D01*
X20570238Y-15579271D02*
X20691190Y-15518795D01*
X20691190Y-15518795D02*
X20751666Y-15458318D01*
X20751666Y-15458318D02*
X20812143Y-15337366D01*
X20812143Y-15337366D02*
X20812143Y-15216414D01*
X20812143Y-15216414D02*
X20751666Y-15095461D01*
X20751666Y-15095461D02*
X20691190Y-15034985D01*
X20691190Y-15034985D02*
X20570238Y-14974509D01*
X20570238Y-14974509D02*
X20328333Y-14914033D01*
X20328333Y-14914033D02*
X20207381Y-14853556D01*
X20207381Y-14853556D02*
X20146904Y-14793080D01*
X20146904Y-14793080D02*
X20086428Y-14672128D01*
X20086428Y-14672128D02*
X20086428Y-14551175D01*
X20086428Y-14551175D02*
X20146904Y-14430223D01*
X20146904Y-14430223D02*
X20207381Y-14369747D01*
X20207381Y-14369747D02*
X20328333Y-14309271D01*
X20328333Y-14309271D02*
X20630714Y-14309271D01*
X20630714Y-14309271D02*
X20812143Y-14369747D01*
X22021667Y-15579271D02*
X21295952Y-15579271D01*
X21658809Y-15579271D02*
X21658809Y-14309271D01*
X21658809Y-14309271D02*
X21537857Y-14490699D01*
X21537857Y-14490699D02*
X21416905Y-14611652D01*
X21416905Y-14611652D02*
X21295952Y-14672128D01*
X22989286Y-14914033D02*
X23170714Y-14974509D01*
X23170714Y-14974509D02*
X23231191Y-15034985D01*
X23231191Y-15034985D02*
X23291667Y-15155937D01*
X23291667Y-15155937D02*
X23291667Y-15337366D01*
X23291667Y-15337366D02*
X23231191Y-15458318D01*
X23231191Y-15458318D02*
X23170714Y-15518795D01*
X23170714Y-15518795D02*
X23049762Y-15579271D01*
X23049762Y-15579271D02*
X22565952Y-15579271D01*
X22565952Y-15579271D02*
X22565952Y-14309271D01*
X22565952Y-14309271D02*
X22989286Y-14309271D01*
X22989286Y-14309271D02*
X23110238Y-14369747D01*
X23110238Y-14369747D02*
X23170714Y-14430223D01*
X23170714Y-14430223D02*
X23231191Y-14551175D01*
X23231191Y-14551175D02*
X23231191Y-14672128D01*
X23231191Y-14672128D02*
X23170714Y-14793080D01*
X23170714Y-14793080D02*
X23110238Y-14853556D01*
X23110238Y-14853556D02*
X22989286Y-14914033D01*
X22989286Y-14914033D02*
X22565952Y-14914033D01*
X24440714Y-15579271D02*
X23835952Y-15579271D01*
X23835952Y-15579271D02*
X23835952Y-14309271D01*
X68215952Y-77732604D02*
X68215952Y-78579271D01*
X67913571Y-77248795D02*
X67611190Y-78155937D01*
X67611190Y-78155937D02*
X68397381Y-78155937D01*
X68881190Y-78458318D02*
X68941667Y-78518795D01*
X68941667Y-78518795D02*
X68881190Y-78579271D01*
X68881190Y-78579271D02*
X68820714Y-78518795D01*
X68820714Y-78518795D02*
X68881190Y-78458318D01*
X68881190Y-78458318D02*
X68881190Y-78579271D01*
X69365000Y-77309271D02*
X70211667Y-77309271D01*
X70211667Y-77309271D02*
X69667381Y-78579271D01*
X71239762Y-77732604D02*
X71239762Y-78579271D01*
X70695476Y-77732604D02*
X70695476Y-78397842D01*
X70695476Y-78397842D02*
X70755953Y-78518795D01*
X70755953Y-78518795D02*
X70876905Y-78579271D01*
X70876905Y-78579271D02*
X71058334Y-78579271D01*
X71058334Y-78579271D02*
X71179286Y-78518795D01*
X71179286Y-78518795D02*
X71239762Y-78458318D01*
X72267858Y-77914033D02*
X71844524Y-77914033D01*
X71844524Y-78579271D02*
X71844524Y-77309271D01*
X71844524Y-77309271D02*
X72449286Y-77309271D01*
X72066904Y-69309271D02*
X72853095Y-69309271D01*
X72853095Y-69309271D02*
X72429761Y-69793080D01*
X72429761Y-69793080D02*
X72611190Y-69793080D01*
X72611190Y-69793080D02*
X72732142Y-69853556D01*
X72732142Y-69853556D02*
X72792618Y-69914033D01*
X72792618Y-69914033D02*
X72853095Y-70034985D01*
X72853095Y-70034985D02*
X72853095Y-70337366D01*
X72853095Y-70337366D02*
X72792618Y-70458318D01*
X72792618Y-70458318D02*
X72732142Y-70518795D01*
X72732142Y-70518795D02*
X72611190Y-70579271D01*
X72611190Y-70579271D02*
X72248333Y-70579271D01*
X72248333Y-70579271D02*
X72127380Y-70518795D01*
X72127380Y-70518795D02*
X72066904Y-70458318D01*
X73336904Y-69430223D02*
X73397380Y-69369747D01*
X73397380Y-69369747D02*
X73518333Y-69309271D01*
X73518333Y-69309271D02*
X73820714Y-69309271D01*
X73820714Y-69309271D02*
X73941666Y-69369747D01*
X73941666Y-69369747D02*
X74002142Y-69430223D01*
X74002142Y-69430223D02*
X74062619Y-69551175D01*
X74062619Y-69551175D02*
X74062619Y-69672128D01*
X74062619Y-69672128D02*
X74002142Y-69853556D01*
X74002142Y-69853556D02*
X73276428Y-70579271D01*
X73276428Y-70579271D02*
X74062619Y-70579271D01*
X74606904Y-70579271D02*
X74606904Y-69309271D01*
X74606904Y-69309271D02*
X75030238Y-70216414D01*
X75030238Y-70216414D02*
X75453571Y-69309271D01*
X75453571Y-69309271D02*
X75453571Y-70579271D01*
X76058333Y-70579271D02*
X76058333Y-69309271D01*
X76058333Y-69914033D02*
X76784048Y-69914033D01*
X76784048Y-70579271D02*
X76784048Y-69309271D01*
X77267857Y-69732604D02*
X77933095Y-69732604D01*
X77933095Y-69732604D02*
X77267857Y-70579271D01*
X77267857Y-70579271D02*
X77933095Y-70579271D01*
X67244048Y-70579271D02*
X66518333Y-70579271D01*
X66881190Y-70579271D02*
X66881190Y-69309271D01*
X66881190Y-69309271D02*
X66760238Y-69490699D01*
X66760238Y-69490699D02*
X66639286Y-69611652D01*
X66639286Y-69611652D02*
X66518333Y-69672128D01*
X68030238Y-69309271D02*
X68151191Y-69309271D01*
X68151191Y-69309271D02*
X68272143Y-69369747D01*
X68272143Y-69369747D02*
X68332619Y-69430223D01*
X68332619Y-69430223D02*
X68393095Y-69551175D01*
X68393095Y-69551175D02*
X68453572Y-69793080D01*
X68453572Y-69793080D02*
X68453572Y-70095461D01*
X68453572Y-70095461D02*
X68393095Y-70337366D01*
X68393095Y-70337366D02*
X68332619Y-70458318D01*
X68332619Y-70458318D02*
X68272143Y-70518795D01*
X68272143Y-70518795D02*
X68151191Y-70579271D01*
X68151191Y-70579271D02*
X68030238Y-70579271D01*
X68030238Y-70579271D02*
X67909286Y-70518795D01*
X67909286Y-70518795D02*
X67848810Y-70458318D01*
X67848810Y-70458318D02*
X67788333Y-70337366D01*
X67788333Y-70337366D02*
X67727857Y-70095461D01*
X67727857Y-70095461D02*
X67727857Y-69793080D01*
X67727857Y-69793080D02*
X67788333Y-69551175D01*
X67788333Y-69551175D02*
X67848810Y-69430223D01*
X67848810Y-69430223D02*
X67909286Y-69369747D01*
X67909286Y-69369747D02*
X68030238Y-69309271D01*
X68997857Y-70579271D02*
X68997857Y-69309271D01*
X69118810Y-70095461D02*
X69481667Y-70579271D01*
X69481667Y-69732604D02*
X68997857Y-70216414D01*
X104894046Y-15579271D02*
X104894046Y-14309271D01*
X104894046Y-14309271D02*
X105377856Y-14309271D01*
X105377856Y-14309271D02*
X105498808Y-14369747D01*
X105498808Y-14369747D02*
X105559285Y-14430223D01*
X105559285Y-14430223D02*
X105619761Y-14551175D01*
X105619761Y-14551175D02*
X105619761Y-14732604D01*
X105619761Y-14732604D02*
X105559285Y-14853556D01*
X105559285Y-14853556D02*
X105498808Y-14914033D01*
X105498808Y-14914033D02*
X105377856Y-14974509D01*
X105377856Y-14974509D02*
X104894046Y-14974509D01*
X106345475Y-15579271D02*
X106224523Y-15518795D01*
X106224523Y-15518795D02*
X106164046Y-15458318D01*
X106164046Y-15458318D02*
X106103570Y-15337366D01*
X106103570Y-15337366D02*
X106103570Y-14974509D01*
X106103570Y-14974509D02*
X106164046Y-14853556D01*
X106164046Y-14853556D02*
X106224523Y-14793080D01*
X106224523Y-14793080D02*
X106345475Y-14732604D01*
X106345475Y-14732604D02*
X106526904Y-14732604D01*
X106526904Y-14732604D02*
X106647856Y-14793080D01*
X106647856Y-14793080D02*
X106708332Y-14853556D01*
X106708332Y-14853556D02*
X106768808Y-14974509D01*
X106768808Y-14974509D02*
X106768808Y-15337366D01*
X106768808Y-15337366D02*
X106708332Y-15458318D01*
X106708332Y-15458318D02*
X106647856Y-15518795D01*
X106647856Y-15518795D02*
X106526904Y-15579271D01*
X106526904Y-15579271D02*
X106345475Y-15579271D01*
X107857380Y-14732604D02*
X107857380Y-15760699D01*
X107857380Y-15760699D02*
X107796904Y-15881652D01*
X107796904Y-15881652D02*
X107736428Y-15942128D01*
X107736428Y-15942128D02*
X107615475Y-16002604D01*
X107615475Y-16002604D02*
X107434047Y-16002604D01*
X107434047Y-16002604D02*
X107313094Y-15942128D01*
X107857380Y-15518795D02*
X107736428Y-15579271D01*
X107736428Y-15579271D02*
X107494523Y-15579271D01*
X107494523Y-15579271D02*
X107373571Y-15518795D01*
X107373571Y-15518795D02*
X107313094Y-15458318D01*
X107313094Y-15458318D02*
X107252618Y-15337366D01*
X107252618Y-15337366D02*
X107252618Y-14974509D01*
X107252618Y-14974509D02*
X107313094Y-14853556D01*
X107313094Y-14853556D02*
X107373571Y-14793080D01*
X107373571Y-14793080D02*
X107494523Y-14732604D01*
X107494523Y-14732604D02*
X107736428Y-14732604D01*
X107736428Y-14732604D02*
X107857380Y-14793080D01*
X108643571Y-15579271D02*
X108522619Y-15518795D01*
X108522619Y-15518795D02*
X108462142Y-15458318D01*
X108462142Y-15458318D02*
X108401666Y-15337366D01*
X108401666Y-15337366D02*
X108401666Y-14974509D01*
X108401666Y-14974509D02*
X108462142Y-14853556D01*
X108462142Y-14853556D02*
X108522619Y-14793080D01*
X108522619Y-14793080D02*
X108643571Y-14732604D01*
X108643571Y-14732604D02*
X108825000Y-14732604D01*
X108825000Y-14732604D02*
X108945952Y-14793080D01*
X108945952Y-14793080D02*
X109006428Y-14853556D01*
X109006428Y-14853556D02*
X109066904Y-14974509D01*
X109066904Y-14974509D02*
X109066904Y-15337366D01*
X109066904Y-15337366D02*
X109006428Y-15458318D01*
X109006428Y-15458318D02*
X108945952Y-15518795D01*
X108945952Y-15518795D02*
X108825000Y-15579271D01*
X108825000Y-15579271D02*
X108643571Y-15579271D01*
X109308810Y-15700223D02*
X110276429Y-15700223D01*
X110578809Y-15579271D02*
X110578809Y-14309271D01*
X110578809Y-14309271D02*
X111062619Y-14309271D01*
X111062619Y-14309271D02*
X111183571Y-14369747D01*
X111183571Y-14369747D02*
X111244048Y-14430223D01*
X111244048Y-14430223D02*
X111304524Y-14551175D01*
X111304524Y-14551175D02*
X111304524Y-14732604D01*
X111304524Y-14732604D02*
X111244048Y-14853556D01*
X111244048Y-14853556D02*
X111183571Y-14914033D01*
X111183571Y-14914033D02*
X111062619Y-14974509D01*
X111062619Y-14974509D02*
X110578809Y-14974509D01*
X112393095Y-15579271D02*
X112393095Y-14914033D01*
X112393095Y-14914033D02*
X112332619Y-14793080D01*
X112332619Y-14793080D02*
X112211667Y-14732604D01*
X112211667Y-14732604D02*
X111969762Y-14732604D01*
X111969762Y-14732604D02*
X111848809Y-14793080D01*
X112393095Y-15518795D02*
X112272143Y-15579271D01*
X112272143Y-15579271D02*
X111969762Y-15579271D01*
X111969762Y-15579271D02*
X111848809Y-15518795D01*
X111848809Y-15518795D02*
X111788333Y-15397842D01*
X111788333Y-15397842D02*
X111788333Y-15276890D01*
X111788333Y-15276890D02*
X111848809Y-15155937D01*
X111848809Y-15155937D02*
X111969762Y-15095461D01*
X111969762Y-15095461D02*
X112272143Y-15095461D01*
X112272143Y-15095461D02*
X112393095Y-15034985D01*
X113542143Y-15579271D02*
X113542143Y-14309271D01*
X113542143Y-15518795D02*
X113421191Y-15579271D01*
X113421191Y-15579271D02*
X113179286Y-15579271D01*
X113179286Y-15579271D02*
X113058334Y-15518795D01*
X113058334Y-15518795D02*
X112997857Y-15458318D01*
X112997857Y-15458318D02*
X112937381Y-15337366D01*
X112937381Y-15337366D02*
X112937381Y-14974509D01*
X112937381Y-14974509D02*
X112997857Y-14853556D01*
X112997857Y-14853556D02*
X113058334Y-14793080D01*
X113058334Y-14793080D02*
X113179286Y-14732604D01*
X113179286Y-14732604D02*
X113421191Y-14732604D01*
X113421191Y-14732604D02*
X113542143Y-14793080D01*
X113844525Y-15700223D02*
X114812144Y-15700223D01*
X115658810Y-14309271D02*
X115416905Y-14309271D01*
X115416905Y-14309271D02*
X115295953Y-14369747D01*
X115295953Y-14369747D02*
X115235477Y-14430223D01*
X115235477Y-14430223D02*
X115114524Y-14611652D01*
X115114524Y-14611652D02*
X115054048Y-14853556D01*
X115054048Y-14853556D02*
X115054048Y-15337366D01*
X115054048Y-15337366D02*
X115114524Y-15458318D01*
X115114524Y-15458318D02*
X115175001Y-15518795D01*
X115175001Y-15518795D02*
X115295953Y-15579271D01*
X115295953Y-15579271D02*
X115537858Y-15579271D01*
X115537858Y-15579271D02*
X115658810Y-15518795D01*
X115658810Y-15518795D02*
X115719286Y-15458318D01*
X115719286Y-15458318D02*
X115779763Y-15337366D01*
X115779763Y-15337366D02*
X115779763Y-15034985D01*
X115779763Y-15034985D02*
X115719286Y-14914033D01*
X115719286Y-14914033D02*
X115658810Y-14853556D01*
X115658810Y-14853556D02*
X115537858Y-14793080D01*
X115537858Y-14793080D02*
X115295953Y-14793080D01*
X115295953Y-14793080D02*
X115175001Y-14853556D01*
X115175001Y-14853556D02*
X115114524Y-14914033D01*
X115114524Y-14914033D02*
X115054048Y-15034985D01*
X116324048Y-15579271D02*
X116324048Y-14732604D01*
X116324048Y-14853556D02*
X116384525Y-14793080D01*
X116384525Y-14793080D02*
X116505477Y-14732604D01*
X116505477Y-14732604D02*
X116686906Y-14732604D01*
X116686906Y-14732604D02*
X116807858Y-14793080D01*
X116807858Y-14793080D02*
X116868334Y-14914033D01*
X116868334Y-14914033D02*
X116868334Y-15579271D01*
X116868334Y-14914033D02*
X116928810Y-14793080D01*
X116928810Y-14793080D02*
X117049763Y-14732604D01*
X117049763Y-14732604D02*
X117231191Y-14732604D01*
X117231191Y-14732604D02*
X117352144Y-14793080D01*
X117352144Y-14793080D02*
X117412620Y-14914033D01*
X117412620Y-14914033D02*
X117412620Y-15579271D01*
X118017381Y-15579271D02*
X118017381Y-14732604D01*
X118017381Y-14853556D02*
X118077858Y-14793080D01*
X118077858Y-14793080D02*
X118198810Y-14732604D01*
X118198810Y-14732604D02*
X118380239Y-14732604D01*
X118380239Y-14732604D02*
X118501191Y-14793080D01*
X118501191Y-14793080D02*
X118561667Y-14914033D01*
X118561667Y-14914033D02*
X118561667Y-15579271D01*
X118561667Y-14914033D02*
X118622143Y-14793080D01*
X118622143Y-14793080D02*
X118743096Y-14732604D01*
X118743096Y-14732604D02*
X118924524Y-14732604D01*
X118924524Y-14732604D02*
X119045477Y-14793080D01*
X119045477Y-14793080D02*
X119105953Y-14914033D01*
X119105953Y-14914033D02*
X119105953Y-15579271D01*
X61611190Y-25430223D02*
X61671666Y-25369747D01*
X61671666Y-25369747D02*
X61792619Y-25309271D01*
X61792619Y-25309271D02*
X62095000Y-25309271D01*
X62095000Y-25309271D02*
X62215952Y-25369747D01*
X62215952Y-25369747D02*
X62276428Y-25430223D01*
X62276428Y-25430223D02*
X62336905Y-25551175D01*
X62336905Y-25551175D02*
X62336905Y-25672128D01*
X62336905Y-25672128D02*
X62276428Y-25853556D01*
X62276428Y-25853556D02*
X61550714Y-26579271D01*
X61550714Y-26579271D02*
X62336905Y-26579271D01*
X62881190Y-26458318D02*
X62941667Y-26518795D01*
X62941667Y-26518795D02*
X62881190Y-26579271D01*
X62881190Y-26579271D02*
X62820714Y-26518795D01*
X62820714Y-26518795D02*
X62881190Y-26458318D01*
X62881190Y-26458318D02*
X62881190Y-26579271D01*
X63425476Y-25430223D02*
X63485952Y-25369747D01*
X63485952Y-25369747D02*
X63606905Y-25309271D01*
X63606905Y-25309271D02*
X63909286Y-25309271D01*
X63909286Y-25309271D02*
X64030238Y-25369747D01*
X64030238Y-25369747D02*
X64090714Y-25430223D01*
X64090714Y-25430223D02*
X64151191Y-25551175D01*
X64151191Y-25551175D02*
X64151191Y-25672128D01*
X64151191Y-25672128D02*
X64090714Y-25853556D01*
X64090714Y-25853556D02*
X63365000Y-26579271D01*
X63365000Y-26579271D02*
X64151191Y-26579271D01*
X65239762Y-25732604D02*
X65239762Y-26579271D01*
X64695476Y-25732604D02*
X64695476Y-26397842D01*
X64695476Y-26397842D02*
X64755953Y-26518795D01*
X64755953Y-26518795D02*
X64876905Y-26579271D01*
X64876905Y-26579271D02*
X65058334Y-26579271D01*
X65058334Y-26579271D02*
X65179286Y-26518795D01*
X65179286Y-26518795D02*
X65239762Y-26458318D01*
X66267858Y-25914033D02*
X65844524Y-25914033D01*
X65844524Y-26579271D02*
X65844524Y-25309271D01*
X65844524Y-25309271D02*
X66449286Y-25309271D01*
X17244048Y-20579271D02*
X16518333Y-20579271D01*
X16881190Y-20579271D02*
X16881190Y-19309271D01*
X16881190Y-19309271D02*
X16760238Y-19490699D01*
X16760238Y-19490699D02*
X16639286Y-19611652D01*
X16639286Y-19611652D02*
X16518333Y-19672128D01*
X18030238Y-19309271D02*
X18151191Y-19309271D01*
X18151191Y-19309271D02*
X18272143Y-19369747D01*
X18272143Y-19369747D02*
X18332619Y-19430223D01*
X18332619Y-19430223D02*
X18393095Y-19551175D01*
X18393095Y-19551175D02*
X18453572Y-19793080D01*
X18453572Y-19793080D02*
X18453572Y-20095461D01*
X18453572Y-20095461D02*
X18393095Y-20337366D01*
X18393095Y-20337366D02*
X18332619Y-20458318D01*
X18332619Y-20458318D02*
X18272143Y-20518795D01*
X18272143Y-20518795D02*
X18151191Y-20579271D01*
X18151191Y-20579271D02*
X18030238Y-20579271D01*
X18030238Y-20579271D02*
X17909286Y-20518795D01*
X17909286Y-20518795D02*
X17848810Y-20458318D01*
X17848810Y-20458318D02*
X17788333Y-20337366D01*
X17788333Y-20337366D02*
X17727857Y-20095461D01*
X17727857Y-20095461D02*
X17727857Y-19793080D01*
X17727857Y-19793080D02*
X17788333Y-19551175D01*
X17788333Y-19551175D02*
X17848810Y-19430223D01*
X17848810Y-19430223D02*
X17909286Y-19369747D01*
X17909286Y-19369747D02*
X18030238Y-19309271D01*
X18997857Y-20579271D02*
X18997857Y-19309271D01*
X19118810Y-20095461D02*
X19481667Y-20579271D01*
X19481667Y-19732604D02*
X18997857Y-20216414D01*
X60127381Y-28579271D02*
X59401666Y-28579271D01*
X59764523Y-28579271D02*
X59764523Y-27309271D01*
X59764523Y-27309271D02*
X59643571Y-27490699D01*
X59643571Y-27490699D02*
X59522619Y-27611652D01*
X59522619Y-27611652D02*
X59401666Y-27672128D01*
X60671666Y-28579271D02*
X60671666Y-27309271D01*
X60792619Y-28095461D02*
X61155476Y-28579271D01*
X61155476Y-27732604D02*
X60671666Y-28216414D01*
X62909285Y-27309271D02*
X63030238Y-27309271D01*
X63030238Y-27309271D02*
X63151190Y-27369747D01*
X63151190Y-27369747D02*
X63211666Y-27430223D01*
X63211666Y-27430223D02*
X63272142Y-27551175D01*
X63272142Y-27551175D02*
X63332619Y-27793080D01*
X63332619Y-27793080D02*
X63332619Y-28095461D01*
X63332619Y-28095461D02*
X63272142Y-28337366D01*
X63272142Y-28337366D02*
X63211666Y-28458318D01*
X63211666Y-28458318D02*
X63151190Y-28518795D01*
X63151190Y-28518795D02*
X63030238Y-28579271D01*
X63030238Y-28579271D02*
X62909285Y-28579271D01*
X62909285Y-28579271D02*
X62788333Y-28518795D01*
X62788333Y-28518795D02*
X62727857Y-28458318D01*
X62727857Y-28458318D02*
X62667380Y-28337366D01*
X62667380Y-28337366D02*
X62606904Y-28095461D01*
X62606904Y-28095461D02*
X62606904Y-27793080D01*
X62606904Y-27793080D02*
X62667380Y-27551175D01*
X62667380Y-27551175D02*
X62727857Y-27430223D01*
X62727857Y-27430223D02*
X62788333Y-27369747D01*
X62788333Y-27369747D02*
X62909285Y-27309271D01*
X63876904Y-28458318D02*
X63937381Y-28518795D01*
X63937381Y-28518795D02*
X63876904Y-28579271D01*
X63876904Y-28579271D02*
X63816428Y-28518795D01*
X63816428Y-28518795D02*
X63876904Y-28458318D01*
X63876904Y-28458318D02*
X63876904Y-28579271D01*
X65146905Y-28579271D02*
X64421190Y-28579271D01*
X64784047Y-28579271D02*
X64784047Y-27309271D01*
X64784047Y-27309271D02*
X64663095Y-27490699D01*
X64663095Y-27490699D02*
X64542143Y-27611652D01*
X64542143Y-27611652D02*
X64421190Y-27672128D01*
X65630714Y-28579271D02*
X66598333Y-27309271D01*
X65812143Y-27309271D02*
X65933095Y-27369747D01*
X65933095Y-27369747D02*
X65993571Y-27490699D01*
X65993571Y-27490699D02*
X65933095Y-27611652D01*
X65933095Y-27611652D02*
X65812143Y-27672128D01*
X65812143Y-27672128D02*
X65691190Y-27611652D01*
X65691190Y-27611652D02*
X65630714Y-27490699D01*
X65630714Y-27490699D02*
X65691190Y-27369747D01*
X65691190Y-27369747D02*
X65812143Y-27309271D01*
X66537857Y-28518795D02*
X66598333Y-28397842D01*
X66598333Y-28397842D02*
X66537857Y-28276890D01*
X66537857Y-28276890D02*
X66416905Y-28216414D01*
X66416905Y-28216414D02*
X66295952Y-28276890D01*
X66295952Y-28276890D02*
X66235476Y-28397842D01*
X66235476Y-28397842D02*
X66295952Y-28518795D01*
X66295952Y-28518795D02*
X66416905Y-28579271D01*
X66416905Y-28579271D02*
X66537857Y-28518795D01*
X-77858Y-84579271D02*
X-77858Y-83309271D01*
X-77858Y-83309271D02*
X345475Y-84216414D01*
X345475Y-84216414D02*
X768808Y-83309271D01*
X768808Y-83309271D02*
X768808Y-84579271D01*
X1554999Y-84579271D02*
X1434047Y-84518795D01*
X1434047Y-84518795D02*
X1373570Y-84458318D01*
X1373570Y-84458318D02*
X1313094Y-84337366D01*
X1313094Y-84337366D02*
X1313094Y-83974509D01*
X1313094Y-83974509D02*
X1373570Y-83853556D01*
X1373570Y-83853556D02*
X1434047Y-83793080D01*
X1434047Y-83793080D02*
X1554999Y-83732604D01*
X1554999Y-83732604D02*
X1736428Y-83732604D01*
X1736428Y-83732604D02*
X1857380Y-83793080D01*
X1857380Y-83793080D02*
X1917856Y-83853556D01*
X1917856Y-83853556D02*
X1978332Y-83974509D01*
X1978332Y-83974509D02*
X1978332Y-84337366D01*
X1978332Y-84337366D02*
X1917856Y-84458318D01*
X1917856Y-84458318D02*
X1857380Y-84518795D01*
X1857380Y-84518795D02*
X1736428Y-84579271D01*
X1736428Y-84579271D02*
X1554999Y-84579271D01*
X3066904Y-83732604D02*
X3066904Y-84579271D01*
X2522618Y-83732604D02*
X2522618Y-84397842D01*
X2522618Y-84397842D02*
X2583095Y-84518795D01*
X2583095Y-84518795D02*
X2704047Y-84579271D01*
X2704047Y-84579271D02*
X2885476Y-84579271D01*
X2885476Y-84579271D02*
X3006428Y-84518795D01*
X3006428Y-84518795D02*
X3066904Y-84458318D01*
X3671666Y-83732604D02*
X3671666Y-84579271D01*
X3671666Y-83853556D02*
X3732143Y-83793080D01*
X3732143Y-83793080D02*
X3853095Y-83732604D01*
X3853095Y-83732604D02*
X4034524Y-83732604D01*
X4034524Y-83732604D02*
X4155476Y-83793080D01*
X4155476Y-83793080D02*
X4215952Y-83914033D01*
X4215952Y-83914033D02*
X4215952Y-84579271D01*
X4639286Y-83732604D02*
X5123095Y-83732604D01*
X4820714Y-83309271D02*
X4820714Y-84397842D01*
X4820714Y-84397842D02*
X4881191Y-84518795D01*
X4881191Y-84518795D02*
X5002143Y-84579271D01*
X5002143Y-84579271D02*
X5123095Y-84579271D01*
X5546428Y-84579271D02*
X5546428Y-83732604D01*
X5546428Y-83309271D02*
X5485952Y-83369747D01*
X5485952Y-83369747D02*
X5546428Y-83430223D01*
X5546428Y-83430223D02*
X5606905Y-83369747D01*
X5606905Y-83369747D02*
X5546428Y-83309271D01*
X5546428Y-83309271D02*
X5546428Y-83430223D01*
X6151190Y-83732604D02*
X6151190Y-84579271D01*
X6151190Y-83853556D02*
X6211667Y-83793080D01*
X6211667Y-83793080D02*
X6332619Y-83732604D01*
X6332619Y-83732604D02*
X6514048Y-83732604D01*
X6514048Y-83732604D02*
X6635000Y-83793080D01*
X6635000Y-83793080D02*
X6695476Y-83914033D01*
X6695476Y-83914033D02*
X6695476Y-84579271D01*
X7844524Y-83732604D02*
X7844524Y-84760699D01*
X7844524Y-84760699D02*
X7784048Y-84881652D01*
X7784048Y-84881652D02*
X7723572Y-84942128D01*
X7723572Y-84942128D02*
X7602619Y-85002604D01*
X7602619Y-85002604D02*
X7421191Y-85002604D01*
X7421191Y-85002604D02*
X7300238Y-84942128D01*
X7844524Y-84518795D02*
X7723572Y-84579271D01*
X7723572Y-84579271D02*
X7481667Y-84579271D01*
X7481667Y-84579271D02*
X7360715Y-84518795D01*
X7360715Y-84518795D02*
X7300238Y-84458318D01*
X7300238Y-84458318D02*
X7239762Y-84337366D01*
X7239762Y-84337366D02*
X7239762Y-83974509D01*
X7239762Y-83974509D02*
X7300238Y-83853556D01*
X7300238Y-83853556D02*
X7360715Y-83793080D01*
X7360715Y-83793080D02*
X7481667Y-83732604D01*
X7481667Y-83732604D02*
X7723572Y-83732604D01*
X7723572Y-83732604D02*
X7844524Y-83793080D01*
X8449286Y-84579271D02*
X8449286Y-83309271D01*
X8449286Y-83914033D02*
X9175001Y-83914033D01*
X9175001Y-84579271D02*
X9175001Y-83309271D01*
X9961191Y-84579271D02*
X9840239Y-84518795D01*
X9840239Y-84518795D02*
X9779762Y-84458318D01*
X9779762Y-84458318D02*
X9719286Y-84337366D01*
X9719286Y-84337366D02*
X9719286Y-83974509D01*
X9719286Y-83974509D02*
X9779762Y-83853556D01*
X9779762Y-83853556D02*
X9840239Y-83793080D01*
X9840239Y-83793080D02*
X9961191Y-83732604D01*
X9961191Y-83732604D02*
X10142620Y-83732604D01*
X10142620Y-83732604D02*
X10263572Y-83793080D01*
X10263572Y-83793080D02*
X10324048Y-83853556D01*
X10324048Y-83853556D02*
X10384524Y-83974509D01*
X10384524Y-83974509D02*
X10384524Y-84337366D01*
X10384524Y-84337366D02*
X10324048Y-84458318D01*
X10324048Y-84458318D02*
X10263572Y-84518795D01*
X10263572Y-84518795D02*
X10142620Y-84579271D01*
X10142620Y-84579271D02*
X9961191Y-84579271D01*
X11110239Y-84579271D02*
X10989287Y-84518795D01*
X10989287Y-84518795D02*
X10928810Y-84397842D01*
X10928810Y-84397842D02*
X10928810Y-83309271D01*
X12077858Y-84518795D02*
X11956906Y-84579271D01*
X11956906Y-84579271D02*
X11715001Y-84579271D01*
X11715001Y-84579271D02*
X11594048Y-84518795D01*
X11594048Y-84518795D02*
X11533572Y-84397842D01*
X11533572Y-84397842D02*
X11533572Y-83914033D01*
X11533572Y-83914033D02*
X11594048Y-83793080D01*
X11594048Y-83793080D02*
X11715001Y-83732604D01*
X11715001Y-83732604D02*
X11956906Y-83732604D01*
X11956906Y-83732604D02*
X12077858Y-83793080D01*
X12077858Y-83793080D02*
X12138334Y-83914033D01*
X12138334Y-83914033D02*
X12138334Y-84034985D01*
X12138334Y-84034985D02*
X11533572Y-84155937D01*
X17244048Y-18579271D02*
X16518333Y-18579271D01*
X16881190Y-18579271D02*
X16881190Y-17309271D01*
X16881190Y-17309271D02*
X16760238Y-17490699D01*
X16760238Y-17490699D02*
X16639286Y-17611652D01*
X16639286Y-17611652D02*
X16518333Y-17672128D01*
X18332619Y-17732604D02*
X18332619Y-18579271D01*
X17788333Y-17732604D02*
X17788333Y-18397842D01*
X17788333Y-18397842D02*
X17848810Y-18518795D01*
X17848810Y-18518795D02*
X17969762Y-18579271D01*
X17969762Y-18579271D02*
X18151191Y-18579271D01*
X18151191Y-18579271D02*
X18272143Y-18518795D01*
X18272143Y-18518795D02*
X18332619Y-18458318D01*
X19360715Y-17914033D02*
X18937381Y-17914033D01*
X18937381Y-18579271D02*
X18937381Y-17309271D01*
X18937381Y-17309271D02*
X19542143Y-17309271D01*
X28034524Y-20579271D02*
X27308809Y-20579271D01*
X27671666Y-20579271D02*
X27671666Y-19309271D01*
X27671666Y-19309271D02*
X27550714Y-19490699D01*
X27550714Y-19490699D02*
X27429762Y-19611652D01*
X27429762Y-19611652D02*
X27308809Y-19672128D01*
X28820714Y-19309271D02*
X28941667Y-19309271D01*
X28941667Y-19309271D02*
X29062619Y-19369747D01*
X29062619Y-19369747D02*
X29123095Y-19430223D01*
X29123095Y-19430223D02*
X29183571Y-19551175D01*
X29183571Y-19551175D02*
X29244048Y-19793080D01*
X29244048Y-19793080D02*
X29244048Y-20095461D01*
X29244048Y-20095461D02*
X29183571Y-20337366D01*
X29183571Y-20337366D02*
X29123095Y-20458318D01*
X29123095Y-20458318D02*
X29062619Y-20518795D01*
X29062619Y-20518795D02*
X28941667Y-20579271D01*
X28941667Y-20579271D02*
X28820714Y-20579271D01*
X28820714Y-20579271D02*
X28699762Y-20518795D01*
X28699762Y-20518795D02*
X28639286Y-20458318D01*
X28639286Y-20458318D02*
X28578809Y-20337366D01*
X28578809Y-20337366D02*
X28518333Y-20095461D01*
X28518333Y-20095461D02*
X28518333Y-19793080D01*
X28518333Y-19793080D02*
X28578809Y-19551175D01*
X28578809Y-19551175D02*
X28639286Y-19430223D01*
X28639286Y-19430223D02*
X28699762Y-19369747D01*
X28699762Y-19369747D02*
X28820714Y-19309271D01*
X30030238Y-19309271D02*
X30151191Y-19309271D01*
X30151191Y-19309271D02*
X30272143Y-19369747D01*
X30272143Y-19369747D02*
X30332619Y-19430223D01*
X30332619Y-19430223D02*
X30393095Y-19551175D01*
X30393095Y-19551175D02*
X30453572Y-19793080D01*
X30453572Y-19793080D02*
X30453572Y-20095461D01*
X30453572Y-20095461D02*
X30393095Y-20337366D01*
X30393095Y-20337366D02*
X30332619Y-20458318D01*
X30332619Y-20458318D02*
X30272143Y-20518795D01*
X30272143Y-20518795D02*
X30151191Y-20579271D01*
X30151191Y-20579271D02*
X30030238Y-20579271D01*
X30030238Y-20579271D02*
X29909286Y-20518795D01*
X29909286Y-20518795D02*
X29848810Y-20458318D01*
X29848810Y-20458318D02*
X29788333Y-20337366D01*
X29788333Y-20337366D02*
X29727857Y-20095461D01*
X29727857Y-20095461D02*
X29727857Y-19793080D01*
X29727857Y-19793080D02*
X29788333Y-19551175D01*
X29788333Y-19551175D02*
X29848810Y-19430223D01*
X29848810Y-19430223D02*
X29909286Y-19369747D01*
X29909286Y-19369747D02*
X30030238Y-19309271D01*
X30997857Y-19732604D02*
X30997857Y-20579271D01*
X30997857Y-19853556D02*
X31058334Y-19793080D01*
X31058334Y-19793080D02*
X31179286Y-19732604D01*
X31179286Y-19732604D02*
X31360715Y-19732604D01*
X31360715Y-19732604D02*
X31481667Y-19793080D01*
X31481667Y-19793080D02*
X31542143Y-19914033D01*
X31542143Y-19914033D02*
X31542143Y-20579271D01*
X32570239Y-19914033D02*
X32146905Y-19914033D01*
X32146905Y-20579271D02*
X32146905Y-19309271D01*
X32146905Y-19309271D02*
X32751667Y-19309271D01*
X92848810Y-76579271D02*
X92123095Y-76579271D01*
X92485952Y-76579271D02*
X92485952Y-75309271D01*
X92485952Y-75309271D02*
X92365000Y-75490699D01*
X92365000Y-75490699D02*
X92244048Y-75611652D01*
X92244048Y-75611652D02*
X92123095Y-75672128D01*
X93393095Y-76579271D02*
X93393095Y-75309271D01*
X93514048Y-76095461D02*
X93876905Y-76579271D01*
X93876905Y-75732604D02*
X93393095Y-76216414D01*
X67244048Y-74579271D02*
X66518333Y-74579271D01*
X66881190Y-74579271D02*
X66881190Y-73309271D01*
X66881190Y-73309271D02*
X66760238Y-73490699D01*
X66760238Y-73490699D02*
X66639286Y-73611652D01*
X66639286Y-73611652D02*
X66518333Y-73672128D01*
X68030238Y-73309271D02*
X68151191Y-73309271D01*
X68151191Y-73309271D02*
X68272143Y-73369747D01*
X68272143Y-73369747D02*
X68332619Y-73430223D01*
X68332619Y-73430223D02*
X68393095Y-73551175D01*
X68393095Y-73551175D02*
X68453572Y-73793080D01*
X68453572Y-73793080D02*
X68453572Y-74095461D01*
X68453572Y-74095461D02*
X68393095Y-74337366D01*
X68393095Y-74337366D02*
X68332619Y-74458318D01*
X68332619Y-74458318D02*
X68272143Y-74518795D01*
X68272143Y-74518795D02*
X68151191Y-74579271D01*
X68151191Y-74579271D02*
X68030238Y-74579271D01*
X68030238Y-74579271D02*
X67909286Y-74518795D01*
X67909286Y-74518795D02*
X67848810Y-74458318D01*
X67848810Y-74458318D02*
X67788333Y-74337366D01*
X67788333Y-74337366D02*
X67727857Y-74095461D01*
X67727857Y-74095461D02*
X67727857Y-73793080D01*
X67727857Y-73793080D02*
X67788333Y-73551175D01*
X67788333Y-73551175D02*
X67848810Y-73430223D01*
X67848810Y-73430223D02*
X67909286Y-73369747D01*
X67909286Y-73369747D02*
X68030238Y-73309271D01*
X68997857Y-74579271D02*
X68997857Y-73309271D01*
X69118810Y-74095461D02*
X69481667Y-74579271D01*
X69481667Y-73732604D02*
X68997857Y-74216414D01*
X30639286Y-32579271D02*
X29913571Y-32579271D01*
X30276428Y-32579271D02*
X30276428Y-31309271D01*
X30276428Y-31309271D02*
X30155476Y-31490699D01*
X30155476Y-31490699D02*
X30034524Y-31611652D01*
X30034524Y-31611652D02*
X29913571Y-31672128D01*
X31425476Y-31309271D02*
X31546429Y-31309271D01*
X31546429Y-31309271D02*
X31667381Y-31369747D01*
X31667381Y-31369747D02*
X31727857Y-31430223D01*
X31727857Y-31430223D02*
X31788333Y-31551175D01*
X31788333Y-31551175D02*
X31848810Y-31793080D01*
X31848810Y-31793080D02*
X31848810Y-32095461D01*
X31848810Y-32095461D02*
X31788333Y-32337366D01*
X31788333Y-32337366D02*
X31727857Y-32458318D01*
X31727857Y-32458318D02*
X31667381Y-32518795D01*
X31667381Y-32518795D02*
X31546429Y-32579271D01*
X31546429Y-32579271D02*
X31425476Y-32579271D01*
X31425476Y-32579271D02*
X31304524Y-32518795D01*
X31304524Y-32518795D02*
X31244048Y-32458318D01*
X31244048Y-32458318D02*
X31183571Y-32337366D01*
X31183571Y-32337366D02*
X31123095Y-32095461D01*
X31123095Y-32095461D02*
X31123095Y-31793080D01*
X31123095Y-31793080D02*
X31183571Y-31551175D01*
X31183571Y-31551175D02*
X31244048Y-31430223D01*
X31244048Y-31430223D02*
X31304524Y-31369747D01*
X31304524Y-31369747D02*
X31425476Y-31309271D01*
X32393095Y-31732604D02*
X32393095Y-32579271D01*
X32393095Y-31853556D02*
X32453572Y-31793080D01*
X32453572Y-31793080D02*
X32574524Y-31732604D01*
X32574524Y-31732604D02*
X32755953Y-31732604D01*
X32755953Y-31732604D02*
X32876905Y-31793080D01*
X32876905Y-31793080D02*
X32937381Y-31914033D01*
X32937381Y-31914033D02*
X32937381Y-32579271D01*
X33965477Y-31914033D02*
X33542143Y-31914033D01*
X33542143Y-32579271D02*
X33542143Y-31309271D01*
X33542143Y-31309271D02*
X34146905Y-31309271D01*
X20034524Y-76579271D02*
X19308809Y-76579271D01*
X19671666Y-76579271D02*
X19671666Y-75309271D01*
X19671666Y-75309271D02*
X19550714Y-75490699D01*
X19550714Y-75490699D02*
X19429762Y-75611652D01*
X19429762Y-75611652D02*
X19308809Y-75672128D01*
X20820714Y-75309271D02*
X20941667Y-75309271D01*
X20941667Y-75309271D02*
X21062619Y-75369747D01*
X21062619Y-75369747D02*
X21123095Y-75430223D01*
X21123095Y-75430223D02*
X21183571Y-75551175D01*
X21183571Y-75551175D02*
X21244048Y-75793080D01*
X21244048Y-75793080D02*
X21244048Y-76095461D01*
X21244048Y-76095461D02*
X21183571Y-76337366D01*
X21183571Y-76337366D02*
X21123095Y-76458318D01*
X21123095Y-76458318D02*
X21062619Y-76518795D01*
X21062619Y-76518795D02*
X20941667Y-76579271D01*
X20941667Y-76579271D02*
X20820714Y-76579271D01*
X20820714Y-76579271D02*
X20699762Y-76518795D01*
X20699762Y-76518795D02*
X20639286Y-76458318D01*
X20639286Y-76458318D02*
X20578809Y-76337366D01*
X20578809Y-76337366D02*
X20518333Y-76095461D01*
X20518333Y-76095461D02*
X20518333Y-75793080D01*
X20518333Y-75793080D02*
X20578809Y-75551175D01*
X20578809Y-75551175D02*
X20639286Y-75430223D01*
X20639286Y-75430223D02*
X20699762Y-75369747D01*
X20699762Y-75369747D02*
X20820714Y-75309271D01*
X22030238Y-75309271D02*
X22151191Y-75309271D01*
X22151191Y-75309271D02*
X22272143Y-75369747D01*
X22272143Y-75369747D02*
X22332619Y-75430223D01*
X22332619Y-75430223D02*
X22393095Y-75551175D01*
X22393095Y-75551175D02*
X22453572Y-75793080D01*
X22453572Y-75793080D02*
X22453572Y-76095461D01*
X22453572Y-76095461D02*
X22393095Y-76337366D01*
X22393095Y-76337366D02*
X22332619Y-76458318D01*
X22332619Y-76458318D02*
X22272143Y-76518795D01*
X22272143Y-76518795D02*
X22151191Y-76579271D01*
X22151191Y-76579271D02*
X22030238Y-76579271D01*
X22030238Y-76579271D02*
X21909286Y-76518795D01*
X21909286Y-76518795D02*
X21848810Y-76458318D01*
X21848810Y-76458318D02*
X21788333Y-76337366D01*
X21788333Y-76337366D02*
X21727857Y-76095461D01*
X21727857Y-76095461D02*
X21727857Y-75793080D01*
X21727857Y-75793080D02*
X21788333Y-75551175D01*
X21788333Y-75551175D02*
X21848810Y-75430223D01*
X21848810Y-75430223D02*
X21909286Y-75369747D01*
X21909286Y-75369747D02*
X22030238Y-75309271D01*
X22997857Y-75732604D02*
X22997857Y-76579271D01*
X22997857Y-75853556D02*
X23058334Y-75793080D01*
X23058334Y-75793080D02*
X23179286Y-75732604D01*
X23179286Y-75732604D02*
X23360715Y-75732604D01*
X23360715Y-75732604D02*
X23481667Y-75793080D01*
X23481667Y-75793080D02*
X23542143Y-75914033D01*
X23542143Y-75914033D02*
X23542143Y-76579271D01*
X24570239Y-75914033D02*
X24146905Y-75914033D01*
X24146905Y-76579271D02*
X24146905Y-75309271D01*
X24146905Y-75309271D02*
X24751667Y-75309271D01*
X11740713Y-75579271D02*
X11740713Y-74309271D01*
X11740713Y-74309271D02*
X12224523Y-74309271D01*
X12224523Y-74309271D02*
X12345475Y-74369747D01*
X12345475Y-74369747D02*
X12405952Y-74430223D01*
X12405952Y-74430223D02*
X12466428Y-74551175D01*
X12466428Y-74551175D02*
X12466428Y-74732604D01*
X12466428Y-74732604D02*
X12405952Y-74853556D01*
X12405952Y-74853556D02*
X12345475Y-74914033D01*
X12345475Y-74914033D02*
X12224523Y-74974509D01*
X12224523Y-74974509D02*
X11740713Y-74974509D01*
X13010713Y-74914033D02*
X13434047Y-74914033D01*
X13615475Y-75579271D02*
X13010713Y-75579271D01*
X13010713Y-75579271D02*
X13010713Y-74309271D01*
X13010713Y-74309271D02*
X13615475Y-74309271D01*
X14099285Y-75518795D02*
X14280714Y-75579271D01*
X14280714Y-75579271D02*
X14583095Y-75579271D01*
X14583095Y-75579271D02*
X14704047Y-75518795D01*
X14704047Y-75518795D02*
X14764523Y-75458318D01*
X14764523Y-75458318D02*
X14825000Y-75337366D01*
X14825000Y-75337366D02*
X14825000Y-75216414D01*
X14825000Y-75216414D02*
X14764523Y-75095461D01*
X14764523Y-75095461D02*
X14704047Y-75034985D01*
X14704047Y-75034985D02*
X14583095Y-74974509D01*
X14583095Y-74974509D02*
X14341190Y-74914033D01*
X14341190Y-74914033D02*
X14220238Y-74853556D01*
X14220238Y-74853556D02*
X14159761Y-74793080D01*
X14159761Y-74793080D02*
X14099285Y-74672128D01*
X14099285Y-74672128D02*
X14099285Y-74551175D01*
X14099285Y-74551175D02*
X14159761Y-74430223D01*
X14159761Y-74430223D02*
X14220238Y-74369747D01*
X14220238Y-74369747D02*
X14341190Y-74309271D01*
X14341190Y-74309271D02*
X14643571Y-74309271D01*
X14643571Y-74309271D02*
X14825000Y-74369747D01*
X15369285Y-75579271D02*
X15369285Y-74309271D01*
X15369285Y-74309271D02*
X15671666Y-74309271D01*
X15671666Y-74309271D02*
X15853095Y-74369747D01*
X15853095Y-74369747D02*
X15974047Y-74490699D01*
X15974047Y-74490699D02*
X16034524Y-74611652D01*
X16034524Y-74611652D02*
X16095000Y-74853556D01*
X16095000Y-74853556D02*
X16095000Y-75034985D01*
X16095000Y-75034985D02*
X16034524Y-75276890D01*
X16034524Y-75276890D02*
X15974047Y-75397842D01*
X15974047Y-75397842D02*
X15853095Y-75518795D01*
X15853095Y-75518795D02*
X15671666Y-75579271D01*
X15671666Y-75579271D02*
X15369285Y-75579271D01*
X17244047Y-74309271D02*
X16639285Y-74309271D01*
X16639285Y-74309271D02*
X16578809Y-74914033D01*
X16578809Y-74914033D02*
X16639285Y-74853556D01*
X16639285Y-74853556D02*
X16760238Y-74793080D01*
X16760238Y-74793080D02*
X17062619Y-74793080D01*
X17062619Y-74793080D02*
X17183571Y-74853556D01*
X17183571Y-74853556D02*
X17244047Y-74914033D01*
X17244047Y-74914033D02*
X17304524Y-75034985D01*
X17304524Y-75034985D02*
X17304524Y-75337366D01*
X17304524Y-75337366D02*
X17244047Y-75458318D01*
X17244047Y-75458318D02*
X17183571Y-75518795D01*
X17183571Y-75518795D02*
X17062619Y-75579271D01*
X17062619Y-75579271D02*
X16760238Y-75579271D01*
X16760238Y-75579271D02*
X16639285Y-75518795D01*
X16639285Y-75518795D02*
X16578809Y-75458318D01*
X17667381Y-74309271D02*
X18090714Y-75579271D01*
X18090714Y-75579271D02*
X18514048Y-74309271D01*
X19179285Y-74309271D02*
X19300238Y-74309271D01*
X19300238Y-74309271D02*
X19421190Y-74369747D01*
X19421190Y-74369747D02*
X19481666Y-74430223D01*
X19481666Y-74430223D02*
X19542142Y-74551175D01*
X19542142Y-74551175D02*
X19602619Y-74793080D01*
X19602619Y-74793080D02*
X19602619Y-75095461D01*
X19602619Y-75095461D02*
X19542142Y-75337366D01*
X19542142Y-75337366D02*
X19481666Y-75458318D01*
X19481666Y-75458318D02*
X19421190Y-75518795D01*
X19421190Y-75518795D02*
X19300238Y-75579271D01*
X19300238Y-75579271D02*
X19179285Y-75579271D01*
X19179285Y-75579271D02*
X19058333Y-75518795D01*
X19058333Y-75518795D02*
X18997857Y-75458318D01*
X18997857Y-75458318D02*
X18937380Y-75337366D01*
X18937380Y-75337366D02*
X18876904Y-75095461D01*
X18876904Y-75095461D02*
X18876904Y-74793080D01*
X18876904Y-74793080D02*
X18937380Y-74551175D01*
X18937380Y-74551175D02*
X18997857Y-74430223D01*
X18997857Y-74430223D02*
X19058333Y-74369747D01*
X19058333Y-74369747D02*
X19179285Y-74309271D01*
X20086428Y-75518795D02*
X20267857Y-75579271D01*
X20267857Y-75579271D02*
X20570238Y-75579271D01*
X20570238Y-75579271D02*
X20691190Y-75518795D01*
X20691190Y-75518795D02*
X20751666Y-75458318D01*
X20751666Y-75458318D02*
X20812143Y-75337366D01*
X20812143Y-75337366D02*
X20812143Y-75216414D01*
X20812143Y-75216414D02*
X20751666Y-75095461D01*
X20751666Y-75095461D02*
X20691190Y-75034985D01*
X20691190Y-75034985D02*
X20570238Y-74974509D01*
X20570238Y-74974509D02*
X20328333Y-74914033D01*
X20328333Y-74914033D02*
X20207381Y-74853556D01*
X20207381Y-74853556D02*
X20146904Y-74793080D01*
X20146904Y-74793080D02*
X20086428Y-74672128D01*
X20086428Y-74672128D02*
X20086428Y-74551175D01*
X20086428Y-74551175D02*
X20146904Y-74430223D01*
X20146904Y-74430223D02*
X20207381Y-74369747D01*
X20207381Y-74369747D02*
X20328333Y-74309271D01*
X20328333Y-74309271D02*
X20630714Y-74309271D01*
X20630714Y-74309271D02*
X20812143Y-74369747D01*
X22021667Y-75579271D02*
X21295952Y-75579271D01*
X21658809Y-75579271D02*
X21658809Y-74309271D01*
X21658809Y-74309271D02*
X21537857Y-74490699D01*
X21537857Y-74490699D02*
X21416905Y-74611652D01*
X21416905Y-74611652D02*
X21295952Y-74672128D01*
X22989286Y-74914033D02*
X23170714Y-74974509D01*
X23170714Y-74974509D02*
X23231191Y-75034985D01*
X23231191Y-75034985D02*
X23291667Y-75155937D01*
X23291667Y-75155937D02*
X23291667Y-75337366D01*
X23291667Y-75337366D02*
X23231191Y-75458318D01*
X23231191Y-75458318D02*
X23170714Y-75518795D01*
X23170714Y-75518795D02*
X23049762Y-75579271D01*
X23049762Y-75579271D02*
X22565952Y-75579271D01*
X22565952Y-75579271D02*
X22565952Y-74309271D01*
X22565952Y-74309271D02*
X22989286Y-74309271D01*
X22989286Y-74309271D02*
X23110238Y-74369747D01*
X23110238Y-74369747D02*
X23170714Y-74430223D01*
X23170714Y-74430223D02*
X23231191Y-74551175D01*
X23231191Y-74551175D02*
X23231191Y-74672128D01*
X23231191Y-74672128D02*
X23170714Y-74793080D01*
X23170714Y-74793080D02*
X23110238Y-74853556D01*
X23110238Y-74853556D02*
X22989286Y-74914033D01*
X22989286Y-74914033D02*
X22565952Y-74914033D01*
X24440714Y-75579271D02*
X23835952Y-75579271D01*
X23835952Y-75579271D02*
X23835952Y-74309271D01*
X95155476Y-74309271D02*
X95941667Y-74309271D01*
X95941667Y-74309271D02*
X95518333Y-74793080D01*
X95518333Y-74793080D02*
X95699762Y-74793080D01*
X95699762Y-74793080D02*
X95820714Y-74853556D01*
X95820714Y-74853556D02*
X95881190Y-74914033D01*
X95881190Y-74914033D02*
X95941667Y-75034985D01*
X95941667Y-75034985D02*
X95941667Y-75337366D01*
X95941667Y-75337366D02*
X95881190Y-75458318D01*
X95881190Y-75458318D02*
X95820714Y-75518795D01*
X95820714Y-75518795D02*
X95699762Y-75579271D01*
X95699762Y-75579271D02*
X95336905Y-75579271D01*
X95336905Y-75579271D02*
X95215952Y-75518795D01*
X95215952Y-75518795D02*
X95155476Y-75458318D01*
X96485952Y-75458318D02*
X96546429Y-75518795D01*
X96546429Y-75518795D02*
X96485952Y-75579271D01*
X96485952Y-75579271D02*
X96425476Y-75518795D01*
X96425476Y-75518795D02*
X96485952Y-75458318D01*
X96485952Y-75458318D02*
X96485952Y-75579271D01*
X96969762Y-74309271D02*
X97755953Y-74309271D01*
X97755953Y-74309271D02*
X97332619Y-74793080D01*
X97332619Y-74793080D02*
X97514048Y-74793080D01*
X97514048Y-74793080D02*
X97635000Y-74853556D01*
X97635000Y-74853556D02*
X97695476Y-74914033D01*
X97695476Y-74914033D02*
X97755953Y-75034985D01*
X97755953Y-75034985D02*
X97755953Y-75337366D01*
X97755953Y-75337366D02*
X97695476Y-75458318D01*
X97695476Y-75458318D02*
X97635000Y-75518795D01*
X97635000Y-75518795D02*
X97514048Y-75579271D01*
X97514048Y-75579271D02*
X97151191Y-75579271D01*
X97151191Y-75579271D02*
X97030238Y-75518795D01*
X97030238Y-75518795D02*
X96969762Y-75458318D01*
X98300238Y-75579271D02*
X98300238Y-74309271D01*
X98421191Y-75095461D02*
X98784048Y-75579271D01*
X98784048Y-74732604D02*
X98300238Y-75216414D01*
X17123095Y-15430223D02*
X17183571Y-15369747D01*
X17183571Y-15369747D02*
X17304524Y-15309271D01*
X17304524Y-15309271D02*
X17606905Y-15309271D01*
X17606905Y-15309271D02*
X17727857Y-15369747D01*
X17727857Y-15369747D02*
X17788333Y-15430223D01*
X17788333Y-15430223D02*
X17848810Y-15551175D01*
X17848810Y-15551175D02*
X17848810Y-15672128D01*
X17848810Y-15672128D02*
X17788333Y-15853556D01*
X17788333Y-15853556D02*
X17062619Y-16579271D01*
X17062619Y-16579271D02*
X17848810Y-16579271D01*
X18393095Y-16579271D02*
X18393095Y-15309271D01*
X18514048Y-16095461D02*
X18876905Y-16579271D01*
X18876905Y-15732604D02*
X18393095Y-16216414D01*
X57244048Y-85579271D02*
X56518333Y-85579271D01*
X56881190Y-85579271D02*
X56881190Y-84309271D01*
X56881190Y-84309271D02*
X56760238Y-84490699D01*
X56760238Y-84490699D02*
X56639286Y-84611652D01*
X56639286Y-84611652D02*
X56518333Y-84672128D01*
X58030238Y-84309271D02*
X58151191Y-84309271D01*
X58151191Y-84309271D02*
X58272143Y-84369747D01*
X58272143Y-84369747D02*
X58332619Y-84430223D01*
X58332619Y-84430223D02*
X58393095Y-84551175D01*
X58393095Y-84551175D02*
X58453572Y-84793080D01*
X58453572Y-84793080D02*
X58453572Y-85095461D01*
X58453572Y-85095461D02*
X58393095Y-85337366D01*
X58393095Y-85337366D02*
X58332619Y-85458318D01*
X58332619Y-85458318D02*
X58272143Y-85518795D01*
X58272143Y-85518795D02*
X58151191Y-85579271D01*
X58151191Y-85579271D02*
X58030238Y-85579271D01*
X58030238Y-85579271D02*
X57909286Y-85518795D01*
X57909286Y-85518795D02*
X57848810Y-85458318D01*
X57848810Y-85458318D02*
X57788333Y-85337366D01*
X57788333Y-85337366D02*
X57727857Y-85095461D01*
X57727857Y-85095461D02*
X57727857Y-84793080D01*
X57727857Y-84793080D02*
X57788333Y-84551175D01*
X57788333Y-84551175D02*
X57848810Y-84430223D01*
X57848810Y-84430223D02*
X57909286Y-84369747D01*
X57909286Y-84369747D02*
X58030238Y-84309271D01*
X58997857Y-85579271D02*
X58997857Y-84309271D01*
X59118810Y-85095461D02*
X59481667Y-85579271D01*
X59481667Y-84732604D02*
X58997857Y-85216414D01*
X32034524Y-24579271D02*
X31308809Y-24579271D01*
X31671666Y-24579271D02*
X31671666Y-23309271D01*
X31671666Y-23309271D02*
X31550714Y-23490699D01*
X31550714Y-23490699D02*
X31429762Y-23611652D01*
X31429762Y-23611652D02*
X31308809Y-23672128D01*
X32820714Y-23309271D02*
X32941667Y-23309271D01*
X32941667Y-23309271D02*
X33062619Y-23369747D01*
X33062619Y-23369747D02*
X33123095Y-23430223D01*
X33123095Y-23430223D02*
X33183571Y-23551175D01*
X33183571Y-23551175D02*
X33244048Y-23793080D01*
X33244048Y-23793080D02*
X33244048Y-24095461D01*
X33244048Y-24095461D02*
X33183571Y-24337366D01*
X33183571Y-24337366D02*
X33123095Y-24458318D01*
X33123095Y-24458318D02*
X33062619Y-24518795D01*
X33062619Y-24518795D02*
X32941667Y-24579271D01*
X32941667Y-24579271D02*
X32820714Y-24579271D01*
X32820714Y-24579271D02*
X32699762Y-24518795D01*
X32699762Y-24518795D02*
X32639286Y-24458318D01*
X32639286Y-24458318D02*
X32578809Y-24337366D01*
X32578809Y-24337366D02*
X32518333Y-24095461D01*
X32518333Y-24095461D02*
X32518333Y-23793080D01*
X32518333Y-23793080D02*
X32578809Y-23551175D01*
X32578809Y-23551175D02*
X32639286Y-23430223D01*
X32639286Y-23430223D02*
X32699762Y-23369747D01*
X32699762Y-23369747D02*
X32820714Y-23309271D01*
X34030238Y-23309271D02*
X34151191Y-23309271D01*
X34151191Y-23309271D02*
X34272143Y-23369747D01*
X34272143Y-23369747D02*
X34332619Y-23430223D01*
X34332619Y-23430223D02*
X34393095Y-23551175D01*
X34393095Y-23551175D02*
X34453572Y-23793080D01*
X34453572Y-23793080D02*
X34453572Y-24095461D01*
X34453572Y-24095461D02*
X34393095Y-24337366D01*
X34393095Y-24337366D02*
X34332619Y-24458318D01*
X34332619Y-24458318D02*
X34272143Y-24518795D01*
X34272143Y-24518795D02*
X34151191Y-24579271D01*
X34151191Y-24579271D02*
X34030238Y-24579271D01*
X34030238Y-24579271D02*
X33909286Y-24518795D01*
X33909286Y-24518795D02*
X33848810Y-24458318D01*
X33848810Y-24458318D02*
X33788333Y-24337366D01*
X33788333Y-24337366D02*
X33727857Y-24095461D01*
X33727857Y-24095461D02*
X33727857Y-23793080D01*
X33727857Y-23793080D02*
X33788333Y-23551175D01*
X33788333Y-23551175D02*
X33848810Y-23430223D01*
X33848810Y-23430223D02*
X33909286Y-23369747D01*
X33909286Y-23369747D02*
X34030238Y-23309271D01*
X34997857Y-23732604D02*
X34997857Y-24579271D01*
X34997857Y-23853556D02*
X35058334Y-23793080D01*
X35058334Y-23793080D02*
X35179286Y-23732604D01*
X35179286Y-23732604D02*
X35360715Y-23732604D01*
X35360715Y-23732604D02*
X35481667Y-23793080D01*
X35481667Y-23793080D02*
X35542143Y-23914033D01*
X35542143Y-23914033D02*
X35542143Y-24579271D01*
X36570239Y-23914033D02*
X36146905Y-23914033D01*
X36146905Y-24579271D02*
X36146905Y-23309271D01*
X36146905Y-23309271D02*
X36751667Y-23309271D01*
X53820714Y-54732604D02*
X53820714Y-55579271D01*
X53518333Y-54248795D02*
X53215952Y-55155937D01*
X53215952Y-55155937D02*
X54002143Y-55155937D01*
X54485952Y-55458318D02*
X54546429Y-55518795D01*
X54546429Y-55518795D02*
X54485952Y-55579271D01*
X54485952Y-55579271D02*
X54425476Y-55518795D01*
X54425476Y-55518795D02*
X54485952Y-55458318D01*
X54485952Y-55458318D02*
X54485952Y-55579271D01*
X54969762Y-54309271D02*
X55816429Y-54309271D01*
X55816429Y-54309271D02*
X55272143Y-55579271D01*
X56300238Y-55579271D02*
X56300238Y-54309271D01*
X56421191Y-55095461D02*
X56784048Y-55579271D01*
X56784048Y-54732604D02*
X56300238Y-55216414D01*
X62639286Y-27579271D02*
X61913571Y-27579271D01*
X62276428Y-27579271D02*
X62276428Y-26309271D01*
X62276428Y-26309271D02*
X62155476Y-26490699D01*
X62155476Y-26490699D02*
X62034524Y-26611652D01*
X62034524Y-26611652D02*
X61913571Y-26672128D01*
X63425476Y-26309271D02*
X63546429Y-26309271D01*
X63546429Y-26309271D02*
X63667381Y-26369747D01*
X63667381Y-26369747D02*
X63727857Y-26430223D01*
X63727857Y-26430223D02*
X63788333Y-26551175D01*
X63788333Y-26551175D02*
X63848810Y-26793080D01*
X63848810Y-26793080D02*
X63848810Y-27095461D01*
X63848810Y-27095461D02*
X63788333Y-27337366D01*
X63788333Y-27337366D02*
X63727857Y-27458318D01*
X63727857Y-27458318D02*
X63667381Y-27518795D01*
X63667381Y-27518795D02*
X63546429Y-27579271D01*
X63546429Y-27579271D02*
X63425476Y-27579271D01*
X63425476Y-27579271D02*
X63304524Y-27518795D01*
X63304524Y-27518795D02*
X63244048Y-27458318D01*
X63244048Y-27458318D02*
X63183571Y-27337366D01*
X63183571Y-27337366D02*
X63123095Y-27095461D01*
X63123095Y-27095461D02*
X63123095Y-26793080D01*
X63123095Y-26793080D02*
X63183571Y-26551175D01*
X63183571Y-26551175D02*
X63244048Y-26430223D01*
X63244048Y-26430223D02*
X63304524Y-26369747D01*
X63304524Y-26369747D02*
X63425476Y-26309271D01*
X64393095Y-26732604D02*
X64393095Y-27579271D01*
X64393095Y-26853556D02*
X64453572Y-26793080D01*
X64453572Y-26793080D02*
X64574524Y-26732604D01*
X64574524Y-26732604D02*
X64755953Y-26732604D01*
X64755953Y-26732604D02*
X64876905Y-26793080D01*
X64876905Y-26793080D02*
X64937381Y-26914033D01*
X64937381Y-26914033D02*
X64937381Y-27579271D01*
X65965477Y-26914033D02*
X65542143Y-26914033D01*
X65542143Y-27579271D02*
X65542143Y-26309271D01*
X65542143Y-26309271D02*
X66146905Y-26309271D01*
X20034524Y-16579271D02*
X19308809Y-16579271D01*
X19671666Y-16579271D02*
X19671666Y-15309271D01*
X19671666Y-15309271D02*
X19550714Y-15490699D01*
X19550714Y-15490699D02*
X19429762Y-15611652D01*
X19429762Y-15611652D02*
X19308809Y-15672128D01*
X20820714Y-15309271D02*
X20941667Y-15309271D01*
X20941667Y-15309271D02*
X21062619Y-15369747D01*
X21062619Y-15369747D02*
X21123095Y-15430223D01*
X21123095Y-15430223D02*
X21183571Y-15551175D01*
X21183571Y-15551175D02*
X21244048Y-15793080D01*
X21244048Y-15793080D02*
X21244048Y-16095461D01*
X21244048Y-16095461D02*
X21183571Y-16337366D01*
X21183571Y-16337366D02*
X21123095Y-16458318D01*
X21123095Y-16458318D02*
X21062619Y-16518795D01*
X21062619Y-16518795D02*
X20941667Y-16579271D01*
X20941667Y-16579271D02*
X20820714Y-16579271D01*
X20820714Y-16579271D02*
X20699762Y-16518795D01*
X20699762Y-16518795D02*
X20639286Y-16458318D01*
X20639286Y-16458318D02*
X20578809Y-16337366D01*
X20578809Y-16337366D02*
X20518333Y-16095461D01*
X20518333Y-16095461D02*
X20518333Y-15793080D01*
X20518333Y-15793080D02*
X20578809Y-15551175D01*
X20578809Y-15551175D02*
X20639286Y-15430223D01*
X20639286Y-15430223D02*
X20699762Y-15369747D01*
X20699762Y-15369747D02*
X20820714Y-15309271D01*
X22030238Y-15309271D02*
X22151191Y-15309271D01*
X22151191Y-15309271D02*
X22272143Y-15369747D01*
X22272143Y-15369747D02*
X22332619Y-15430223D01*
X22332619Y-15430223D02*
X22393095Y-15551175D01*
X22393095Y-15551175D02*
X22453572Y-15793080D01*
X22453572Y-15793080D02*
X22453572Y-16095461D01*
X22453572Y-16095461D02*
X22393095Y-16337366D01*
X22393095Y-16337366D02*
X22332619Y-16458318D01*
X22332619Y-16458318D02*
X22272143Y-16518795D01*
X22272143Y-16518795D02*
X22151191Y-16579271D01*
X22151191Y-16579271D02*
X22030238Y-16579271D01*
X22030238Y-16579271D02*
X21909286Y-16518795D01*
X21909286Y-16518795D02*
X21848810Y-16458318D01*
X21848810Y-16458318D02*
X21788333Y-16337366D01*
X21788333Y-16337366D02*
X21727857Y-16095461D01*
X21727857Y-16095461D02*
X21727857Y-15793080D01*
X21727857Y-15793080D02*
X21788333Y-15551175D01*
X21788333Y-15551175D02*
X21848810Y-15430223D01*
X21848810Y-15430223D02*
X21909286Y-15369747D01*
X21909286Y-15369747D02*
X22030238Y-15309271D01*
X22997857Y-15732604D02*
X22997857Y-16579271D01*
X22997857Y-15853556D02*
X23058334Y-15793080D01*
X23058334Y-15793080D02*
X23179286Y-15732604D01*
X23179286Y-15732604D02*
X23360715Y-15732604D01*
X23360715Y-15732604D02*
X23481667Y-15793080D01*
X23481667Y-15793080D02*
X23542143Y-15914033D01*
X23542143Y-15914033D02*
X23542143Y-16579271D01*
X24570239Y-15914033D02*
X24146905Y-15914033D01*
X24146905Y-16579271D02*
X24146905Y-15309271D01*
X24146905Y-15309271D02*
X24751667Y-15309271D01*
X14557142Y-14914033D02*
X14980476Y-14914033D01*
X15161904Y-15579271D02*
X14557142Y-15579271D01*
X14557142Y-15579271D02*
X14557142Y-14309271D01*
X14557142Y-14309271D02*
X15161904Y-14309271D01*
X15524762Y-14309271D02*
X16250476Y-14309271D01*
X15887619Y-15579271D02*
X15887619Y-14309271D01*
X16613333Y-15216414D02*
X17218095Y-15216414D01*
X16492381Y-15579271D02*
X16915714Y-14309271D01*
X16915714Y-14309271D02*
X17339048Y-15579271D01*
X17822857Y-15579271D02*
X18064761Y-15579271D01*
X18064761Y-15579271D02*
X18185714Y-15518795D01*
X18185714Y-15518795D02*
X18246190Y-15458318D01*
X18246190Y-15458318D02*
X18367142Y-15276890D01*
X18367142Y-15276890D02*
X18427619Y-15034985D01*
X18427619Y-15034985D02*
X18427619Y-14551175D01*
X18427619Y-14551175D02*
X18367142Y-14430223D01*
X18367142Y-14430223D02*
X18306666Y-14369747D01*
X18306666Y-14369747D02*
X18185714Y-14309271D01*
X18185714Y-14309271D02*
X17943809Y-14309271D01*
X17943809Y-14309271D02*
X17822857Y-14369747D01*
X17822857Y-14369747D02*
X17762380Y-14430223D01*
X17762380Y-14430223D02*
X17701904Y-14551175D01*
X17701904Y-14551175D02*
X17701904Y-14853556D01*
X17701904Y-14853556D02*
X17762380Y-14974509D01*
X17762380Y-14974509D02*
X17822857Y-15034985D01*
X17822857Y-15034985D02*
X17943809Y-15095461D01*
X17943809Y-15095461D02*
X18185714Y-15095461D01*
X18185714Y-15095461D02*
X18306666Y-15034985D01*
X18306666Y-15034985D02*
X18367142Y-14974509D01*
X18367142Y-14974509D02*
X18427619Y-14853556D01*
X18850952Y-14309271D02*
X19697619Y-14309271D01*
X19697619Y-14309271D02*
X19153333Y-15579271D01*
X20725714Y-14732604D02*
X20725714Y-15579271D01*
X20423333Y-14248795D02*
X20120952Y-15155937D01*
X20120952Y-15155937D02*
X20907143Y-15155937D01*
X22056191Y-15579271D02*
X21330476Y-15579271D01*
X21693333Y-15579271D02*
X21693333Y-14309271D01*
X21693333Y-14309271D02*
X21572381Y-14490699D01*
X21572381Y-14490699D02*
X21451429Y-14611652D01*
X21451429Y-14611652D02*
X21330476Y-14672128D01*
X22600476Y-14914033D02*
X23023810Y-14914033D01*
X23205238Y-15579271D02*
X22600476Y-15579271D01*
X22600476Y-15579271D02*
X22600476Y-14309271D01*
X22600476Y-14309271D02*
X23205238Y-14309271D01*
X23930953Y-14853556D02*
X23810001Y-14793080D01*
X23810001Y-14793080D02*
X23749524Y-14732604D01*
X23749524Y-14732604D02*
X23689048Y-14611652D01*
X23689048Y-14611652D02*
X23689048Y-14551175D01*
X23689048Y-14551175D02*
X23749524Y-14430223D01*
X23749524Y-14430223D02*
X23810001Y-14369747D01*
X23810001Y-14369747D02*
X23930953Y-14309271D01*
X23930953Y-14309271D02*
X24172858Y-14309271D01*
X24172858Y-14309271D02*
X24293810Y-14369747D01*
X24293810Y-14369747D02*
X24354286Y-14430223D01*
X24354286Y-14430223D02*
X24414763Y-14551175D01*
X24414763Y-14551175D02*
X24414763Y-14611652D01*
X24414763Y-14611652D02*
X24354286Y-14732604D01*
X24354286Y-14732604D02*
X24293810Y-14793080D01*
X24293810Y-14793080D02*
X24172858Y-14853556D01*
X24172858Y-14853556D02*
X23930953Y-14853556D01*
X23930953Y-14853556D02*
X23810001Y-14914033D01*
X23810001Y-14914033D02*
X23749524Y-14974509D01*
X23749524Y-14974509D02*
X23689048Y-15095461D01*
X23689048Y-15095461D02*
X23689048Y-15337366D01*
X23689048Y-15337366D02*
X23749524Y-15458318D01*
X23749524Y-15458318D02*
X23810001Y-15518795D01*
X23810001Y-15518795D02*
X23930953Y-15579271D01*
X23930953Y-15579271D02*
X24172858Y-15579271D01*
X24172858Y-15579271D02*
X24293810Y-15518795D01*
X24293810Y-15518795D02*
X24354286Y-15458318D01*
X24354286Y-15458318D02*
X24414763Y-15337366D01*
X24414763Y-15337366D02*
X24414763Y-15095461D01*
X24414763Y-15095461D02*
X24354286Y-14974509D01*
X24354286Y-14974509D02*
X24293810Y-14914033D01*
X24293810Y-14914033D02*
X24172858Y-14853556D01*
X24898572Y-15216414D02*
X25503334Y-15216414D01*
X24777620Y-15579271D02*
X25200953Y-14309271D01*
X25200953Y-14309271D02*
X25624287Y-15579271D01*
X10894046Y-15579271D02*
X10894046Y-14309271D01*
X10894046Y-14309271D02*
X11377856Y-14309271D01*
X11377856Y-14309271D02*
X11498808Y-14369747D01*
X11498808Y-14369747D02*
X11559285Y-14430223D01*
X11559285Y-14430223D02*
X11619761Y-14551175D01*
X11619761Y-14551175D02*
X11619761Y-14732604D01*
X11619761Y-14732604D02*
X11559285Y-14853556D01*
X11559285Y-14853556D02*
X11498808Y-14914033D01*
X11498808Y-14914033D02*
X11377856Y-14974509D01*
X11377856Y-14974509D02*
X10894046Y-14974509D01*
X12345475Y-15579271D02*
X12224523Y-15518795D01*
X12224523Y-15518795D02*
X12164046Y-15458318D01*
X12164046Y-15458318D02*
X12103570Y-15337366D01*
X12103570Y-15337366D02*
X12103570Y-14974509D01*
X12103570Y-14974509D02*
X12164046Y-14853556D01*
X12164046Y-14853556D02*
X12224523Y-14793080D01*
X12224523Y-14793080D02*
X12345475Y-14732604D01*
X12345475Y-14732604D02*
X12526904Y-14732604D01*
X12526904Y-14732604D02*
X12647856Y-14793080D01*
X12647856Y-14793080D02*
X12708332Y-14853556D01*
X12708332Y-14853556D02*
X12768808Y-14974509D01*
X12768808Y-14974509D02*
X12768808Y-15337366D01*
X12768808Y-15337366D02*
X12708332Y-15458318D01*
X12708332Y-15458318D02*
X12647856Y-15518795D01*
X12647856Y-15518795D02*
X12526904Y-15579271D01*
X12526904Y-15579271D02*
X12345475Y-15579271D01*
X13857380Y-14732604D02*
X13857380Y-15760699D01*
X13857380Y-15760699D02*
X13796904Y-15881652D01*
X13796904Y-15881652D02*
X13736428Y-15942128D01*
X13736428Y-15942128D02*
X13615475Y-16002604D01*
X13615475Y-16002604D02*
X13434047Y-16002604D01*
X13434047Y-16002604D02*
X13313094Y-15942128D01*
X13857380Y-15518795D02*
X13736428Y-15579271D01*
X13736428Y-15579271D02*
X13494523Y-15579271D01*
X13494523Y-15579271D02*
X13373571Y-15518795D01*
X13373571Y-15518795D02*
X13313094Y-15458318D01*
X13313094Y-15458318D02*
X13252618Y-15337366D01*
X13252618Y-15337366D02*
X13252618Y-14974509D01*
X13252618Y-14974509D02*
X13313094Y-14853556D01*
X13313094Y-14853556D02*
X13373571Y-14793080D01*
X13373571Y-14793080D02*
X13494523Y-14732604D01*
X13494523Y-14732604D02*
X13736428Y-14732604D01*
X13736428Y-14732604D02*
X13857380Y-14793080D01*
X14643571Y-15579271D02*
X14522619Y-15518795D01*
X14522619Y-15518795D02*
X14462142Y-15458318D01*
X14462142Y-15458318D02*
X14401666Y-15337366D01*
X14401666Y-15337366D02*
X14401666Y-14974509D01*
X14401666Y-14974509D02*
X14462142Y-14853556D01*
X14462142Y-14853556D02*
X14522619Y-14793080D01*
X14522619Y-14793080D02*
X14643571Y-14732604D01*
X14643571Y-14732604D02*
X14825000Y-14732604D01*
X14825000Y-14732604D02*
X14945952Y-14793080D01*
X14945952Y-14793080D02*
X15006428Y-14853556D01*
X15006428Y-14853556D02*
X15066904Y-14974509D01*
X15066904Y-14974509D02*
X15066904Y-15337366D01*
X15066904Y-15337366D02*
X15006428Y-15458318D01*
X15006428Y-15458318D02*
X14945952Y-15518795D01*
X14945952Y-15518795D02*
X14825000Y-15579271D01*
X14825000Y-15579271D02*
X14643571Y-15579271D01*
X15308810Y-15700223D02*
X16276429Y-15700223D01*
X16578809Y-15579271D02*
X16578809Y-14309271D01*
X16578809Y-14309271D02*
X17062619Y-14309271D01*
X17062619Y-14309271D02*
X17183571Y-14369747D01*
X17183571Y-14369747D02*
X17244048Y-14430223D01*
X17244048Y-14430223D02*
X17304524Y-14551175D01*
X17304524Y-14551175D02*
X17304524Y-14732604D01*
X17304524Y-14732604D02*
X17244048Y-14853556D01*
X17244048Y-14853556D02*
X17183571Y-14914033D01*
X17183571Y-14914033D02*
X17062619Y-14974509D01*
X17062619Y-14974509D02*
X16578809Y-14974509D01*
X18393095Y-15579271D02*
X18393095Y-14914033D01*
X18393095Y-14914033D02*
X18332619Y-14793080D01*
X18332619Y-14793080D02*
X18211667Y-14732604D01*
X18211667Y-14732604D02*
X17969762Y-14732604D01*
X17969762Y-14732604D02*
X17848809Y-14793080D01*
X18393095Y-15518795D02*
X18272143Y-15579271D01*
X18272143Y-15579271D02*
X17969762Y-15579271D01*
X17969762Y-15579271D02*
X17848809Y-15518795D01*
X17848809Y-15518795D02*
X17788333Y-15397842D01*
X17788333Y-15397842D02*
X17788333Y-15276890D01*
X17788333Y-15276890D02*
X17848809Y-15155937D01*
X17848809Y-15155937D02*
X17969762Y-15095461D01*
X17969762Y-15095461D02*
X18272143Y-15095461D01*
X18272143Y-15095461D02*
X18393095Y-15034985D01*
X19542143Y-15579271D02*
X19542143Y-14309271D01*
X19542143Y-15518795D02*
X19421191Y-15579271D01*
X19421191Y-15579271D02*
X19179286Y-15579271D01*
X19179286Y-15579271D02*
X19058334Y-15518795D01*
X19058334Y-15518795D02*
X18997857Y-15458318D01*
X18997857Y-15458318D02*
X18937381Y-15337366D01*
X18937381Y-15337366D02*
X18937381Y-14974509D01*
X18937381Y-14974509D02*
X18997857Y-14853556D01*
X18997857Y-14853556D02*
X19058334Y-14793080D01*
X19058334Y-14793080D02*
X19179286Y-14732604D01*
X19179286Y-14732604D02*
X19421191Y-14732604D01*
X19421191Y-14732604D02*
X19542143Y-14793080D01*
X19844525Y-15700223D02*
X20812144Y-15700223D01*
X21658810Y-14309271D02*
X21416905Y-14309271D01*
X21416905Y-14309271D02*
X21295953Y-14369747D01*
X21295953Y-14369747D02*
X21235477Y-14430223D01*
X21235477Y-14430223D02*
X21114524Y-14611652D01*
X21114524Y-14611652D02*
X21054048Y-14853556D01*
X21054048Y-14853556D02*
X21054048Y-15337366D01*
X21054048Y-15337366D02*
X21114524Y-15458318D01*
X21114524Y-15458318D02*
X21175001Y-15518795D01*
X21175001Y-15518795D02*
X21295953Y-15579271D01*
X21295953Y-15579271D02*
X21537858Y-15579271D01*
X21537858Y-15579271D02*
X21658810Y-15518795D01*
X21658810Y-15518795D02*
X21719286Y-15458318D01*
X21719286Y-15458318D02*
X21779763Y-15337366D01*
X21779763Y-15337366D02*
X21779763Y-15034985D01*
X21779763Y-15034985D02*
X21719286Y-14914033D01*
X21719286Y-14914033D02*
X21658810Y-14853556D01*
X21658810Y-14853556D02*
X21537858Y-14793080D01*
X21537858Y-14793080D02*
X21295953Y-14793080D01*
X21295953Y-14793080D02*
X21175001Y-14853556D01*
X21175001Y-14853556D02*
X21114524Y-14914033D01*
X21114524Y-14914033D02*
X21054048Y-15034985D01*
X22324048Y-15579271D02*
X22324048Y-14732604D01*
X22324048Y-14853556D02*
X22384525Y-14793080D01*
X22384525Y-14793080D02*
X22505477Y-14732604D01*
X22505477Y-14732604D02*
X22686906Y-14732604D01*
X22686906Y-14732604D02*
X22807858Y-14793080D01*
X22807858Y-14793080D02*
X22868334Y-14914033D01*
X22868334Y-14914033D02*
X22868334Y-15579271D01*
X22868334Y-14914033D02*
X22928810Y-14793080D01*
X22928810Y-14793080D02*
X23049763Y-14732604D01*
X23049763Y-14732604D02*
X23231191Y-14732604D01*
X23231191Y-14732604D02*
X23352144Y-14793080D01*
X23352144Y-14793080D02*
X23412620Y-14914033D01*
X23412620Y-14914033D02*
X23412620Y-15579271D01*
X24017381Y-15579271D02*
X24017381Y-14732604D01*
X24017381Y-14853556D02*
X24077858Y-14793080D01*
X24077858Y-14793080D02*
X24198810Y-14732604D01*
X24198810Y-14732604D02*
X24380239Y-14732604D01*
X24380239Y-14732604D02*
X24501191Y-14793080D01*
X24501191Y-14793080D02*
X24561667Y-14914033D01*
X24561667Y-14914033D02*
X24561667Y-15579271D01*
X24561667Y-14914033D02*
X24622143Y-14793080D01*
X24622143Y-14793080D02*
X24743096Y-14732604D01*
X24743096Y-14732604D02*
X24924524Y-14732604D01*
X24924524Y-14732604D02*
X25045477Y-14793080D01*
X25045477Y-14793080D02*
X25105953Y-14914033D01*
X25105953Y-14914033D02*
X25105953Y-15579271D01*
X107894046Y-82579271D02*
X107894046Y-81309271D01*
X107894046Y-81309271D02*
X108377856Y-81309271D01*
X108377856Y-81309271D02*
X108498808Y-81369747D01*
X108498808Y-81369747D02*
X108559285Y-81430223D01*
X108559285Y-81430223D02*
X108619761Y-81551175D01*
X108619761Y-81551175D02*
X108619761Y-81732604D01*
X108619761Y-81732604D02*
X108559285Y-81853556D01*
X108559285Y-81853556D02*
X108498808Y-81914033D01*
X108498808Y-81914033D02*
X108377856Y-81974509D01*
X108377856Y-81974509D02*
X107894046Y-81974509D01*
X109345475Y-82579271D02*
X109224523Y-82518795D01*
X109224523Y-82518795D02*
X109164046Y-82458318D01*
X109164046Y-82458318D02*
X109103570Y-82337366D01*
X109103570Y-82337366D02*
X109103570Y-81974509D01*
X109103570Y-81974509D02*
X109164046Y-81853556D01*
X109164046Y-81853556D02*
X109224523Y-81793080D01*
X109224523Y-81793080D02*
X109345475Y-81732604D01*
X109345475Y-81732604D02*
X109526904Y-81732604D01*
X109526904Y-81732604D02*
X109647856Y-81793080D01*
X109647856Y-81793080D02*
X109708332Y-81853556D01*
X109708332Y-81853556D02*
X109768808Y-81974509D01*
X109768808Y-81974509D02*
X109768808Y-82337366D01*
X109768808Y-82337366D02*
X109708332Y-82458318D01*
X109708332Y-82458318D02*
X109647856Y-82518795D01*
X109647856Y-82518795D02*
X109526904Y-82579271D01*
X109526904Y-82579271D02*
X109345475Y-82579271D01*
X110857380Y-81732604D02*
X110857380Y-82760699D01*
X110857380Y-82760699D02*
X110796904Y-82881652D01*
X110796904Y-82881652D02*
X110736428Y-82942128D01*
X110736428Y-82942128D02*
X110615475Y-83002604D01*
X110615475Y-83002604D02*
X110434047Y-83002604D01*
X110434047Y-83002604D02*
X110313094Y-82942128D01*
X110857380Y-82518795D02*
X110736428Y-82579271D01*
X110736428Y-82579271D02*
X110494523Y-82579271D01*
X110494523Y-82579271D02*
X110373571Y-82518795D01*
X110373571Y-82518795D02*
X110313094Y-82458318D01*
X110313094Y-82458318D02*
X110252618Y-82337366D01*
X110252618Y-82337366D02*
X110252618Y-81974509D01*
X110252618Y-81974509D02*
X110313094Y-81853556D01*
X110313094Y-81853556D02*
X110373571Y-81793080D01*
X110373571Y-81793080D02*
X110494523Y-81732604D01*
X110494523Y-81732604D02*
X110736428Y-81732604D01*
X110736428Y-81732604D02*
X110857380Y-81793080D01*
X111643571Y-82579271D02*
X111522619Y-82518795D01*
X111522619Y-82518795D02*
X111462142Y-82458318D01*
X111462142Y-82458318D02*
X111401666Y-82337366D01*
X111401666Y-82337366D02*
X111401666Y-81974509D01*
X111401666Y-81974509D02*
X111462142Y-81853556D01*
X111462142Y-81853556D02*
X111522619Y-81793080D01*
X111522619Y-81793080D02*
X111643571Y-81732604D01*
X111643571Y-81732604D02*
X111825000Y-81732604D01*
X111825000Y-81732604D02*
X111945952Y-81793080D01*
X111945952Y-81793080D02*
X112006428Y-81853556D01*
X112006428Y-81853556D02*
X112066904Y-81974509D01*
X112066904Y-81974509D02*
X112066904Y-82337366D01*
X112066904Y-82337366D02*
X112006428Y-82458318D01*
X112006428Y-82458318D02*
X111945952Y-82518795D01*
X111945952Y-82518795D02*
X111825000Y-82579271D01*
X111825000Y-82579271D02*
X111643571Y-82579271D01*
X112308810Y-82700223D02*
X113276429Y-82700223D01*
X113578809Y-82579271D02*
X113578809Y-81309271D01*
X113578809Y-81309271D02*
X114062619Y-81309271D01*
X114062619Y-81309271D02*
X114183571Y-81369747D01*
X114183571Y-81369747D02*
X114244048Y-81430223D01*
X114244048Y-81430223D02*
X114304524Y-81551175D01*
X114304524Y-81551175D02*
X114304524Y-81732604D01*
X114304524Y-81732604D02*
X114244048Y-81853556D01*
X114244048Y-81853556D02*
X114183571Y-81914033D01*
X114183571Y-81914033D02*
X114062619Y-81974509D01*
X114062619Y-81974509D02*
X113578809Y-81974509D01*
X115393095Y-82579271D02*
X115393095Y-81914033D01*
X115393095Y-81914033D02*
X115332619Y-81793080D01*
X115332619Y-81793080D02*
X115211667Y-81732604D01*
X115211667Y-81732604D02*
X114969762Y-81732604D01*
X114969762Y-81732604D02*
X114848809Y-81793080D01*
X115393095Y-82518795D02*
X115272143Y-82579271D01*
X115272143Y-82579271D02*
X114969762Y-82579271D01*
X114969762Y-82579271D02*
X114848809Y-82518795D01*
X114848809Y-82518795D02*
X114788333Y-82397842D01*
X114788333Y-82397842D02*
X114788333Y-82276890D01*
X114788333Y-82276890D02*
X114848809Y-82155937D01*
X114848809Y-82155937D02*
X114969762Y-82095461D01*
X114969762Y-82095461D02*
X115272143Y-82095461D01*
X115272143Y-82095461D02*
X115393095Y-82034985D01*
X116542143Y-82579271D02*
X116542143Y-81309271D01*
X116542143Y-82518795D02*
X116421191Y-82579271D01*
X116421191Y-82579271D02*
X116179286Y-82579271D01*
X116179286Y-82579271D02*
X116058334Y-82518795D01*
X116058334Y-82518795D02*
X115997857Y-82458318D01*
X115997857Y-82458318D02*
X115937381Y-82337366D01*
X115937381Y-82337366D02*
X115937381Y-81974509D01*
X115937381Y-81974509D02*
X115997857Y-81853556D01*
X115997857Y-81853556D02*
X116058334Y-81793080D01*
X116058334Y-81793080D02*
X116179286Y-81732604D01*
X116179286Y-81732604D02*
X116421191Y-81732604D01*
X116421191Y-81732604D02*
X116542143Y-81793080D01*
X116844525Y-82700223D02*
X117812144Y-82700223D01*
X118658810Y-81309271D02*
X118416905Y-81309271D01*
X118416905Y-81309271D02*
X118295953Y-81369747D01*
X118295953Y-81369747D02*
X118235477Y-81430223D01*
X118235477Y-81430223D02*
X118114524Y-81611652D01*
X118114524Y-81611652D02*
X118054048Y-81853556D01*
X118054048Y-81853556D02*
X118054048Y-82337366D01*
X118054048Y-82337366D02*
X118114524Y-82458318D01*
X118114524Y-82458318D02*
X118175001Y-82518795D01*
X118175001Y-82518795D02*
X118295953Y-82579271D01*
X118295953Y-82579271D02*
X118537858Y-82579271D01*
X118537858Y-82579271D02*
X118658810Y-82518795D01*
X118658810Y-82518795D02*
X118719286Y-82458318D01*
X118719286Y-82458318D02*
X118779763Y-82337366D01*
X118779763Y-82337366D02*
X118779763Y-82034985D01*
X118779763Y-82034985D02*
X118719286Y-81914033D01*
X118719286Y-81914033D02*
X118658810Y-81853556D01*
X118658810Y-81853556D02*
X118537858Y-81793080D01*
X118537858Y-81793080D02*
X118295953Y-81793080D01*
X118295953Y-81793080D02*
X118175001Y-81853556D01*
X118175001Y-81853556D02*
X118114524Y-81914033D01*
X118114524Y-81914033D02*
X118054048Y-82034985D01*
X119324048Y-82579271D02*
X119324048Y-81732604D01*
X119324048Y-81853556D02*
X119384525Y-81793080D01*
X119384525Y-81793080D02*
X119505477Y-81732604D01*
X119505477Y-81732604D02*
X119686906Y-81732604D01*
X119686906Y-81732604D02*
X119807858Y-81793080D01*
X119807858Y-81793080D02*
X119868334Y-81914033D01*
X119868334Y-81914033D02*
X119868334Y-82579271D01*
X119868334Y-81914033D02*
X119928810Y-81793080D01*
X119928810Y-81793080D02*
X120049763Y-81732604D01*
X120049763Y-81732604D02*
X120231191Y-81732604D01*
X120231191Y-81732604D02*
X120352144Y-81793080D01*
X120352144Y-81793080D02*
X120412620Y-81914033D01*
X120412620Y-81914033D02*
X120412620Y-82579271D01*
X121017381Y-82579271D02*
X121017381Y-81732604D01*
X121017381Y-81853556D02*
X121077858Y-81793080D01*
X121077858Y-81793080D02*
X121198810Y-81732604D01*
X121198810Y-81732604D02*
X121380239Y-81732604D01*
X121380239Y-81732604D02*
X121501191Y-81793080D01*
X121501191Y-81793080D02*
X121561667Y-81914033D01*
X121561667Y-81914033D02*
X121561667Y-82579271D01*
X121561667Y-81914033D02*
X121622143Y-81793080D01*
X121622143Y-81793080D02*
X121743096Y-81732604D01*
X121743096Y-81732604D02*
X121924524Y-81732604D01*
X121924524Y-81732604D02*
X122045477Y-81793080D01*
X122045477Y-81793080D02*
X122105953Y-81914033D01*
X122105953Y-81914033D02*
X122105953Y-82579271D01*
X28215952Y-34732604D02*
X28215952Y-35579271D01*
X27913571Y-34248795D02*
X27611190Y-35155937D01*
X27611190Y-35155937D02*
X28397381Y-35155937D01*
X28881190Y-35458318D02*
X28941667Y-35518795D01*
X28941667Y-35518795D02*
X28881190Y-35579271D01*
X28881190Y-35579271D02*
X28820714Y-35518795D01*
X28820714Y-35518795D02*
X28881190Y-35458318D01*
X28881190Y-35458318D02*
X28881190Y-35579271D01*
X29365000Y-34309271D02*
X30211667Y-34309271D01*
X30211667Y-34309271D02*
X29667381Y-35579271D01*
X31239762Y-34732604D02*
X31239762Y-35579271D01*
X30695476Y-34732604D02*
X30695476Y-35397842D01*
X30695476Y-35397842D02*
X30755953Y-35518795D01*
X30755953Y-35518795D02*
X30876905Y-35579271D01*
X30876905Y-35579271D02*
X31058334Y-35579271D01*
X31058334Y-35579271D02*
X31179286Y-35518795D01*
X31179286Y-35518795D02*
X31239762Y-35458318D01*
X32267858Y-34914033D02*
X31844524Y-34914033D01*
X31844524Y-35579271D02*
X31844524Y-34309271D01*
X31844524Y-34309271D02*
X32449286Y-34309271D01*
X67244048Y-72579271D02*
X66518333Y-72579271D01*
X66881190Y-72579271D02*
X66881190Y-71309271D01*
X66881190Y-71309271D02*
X66760238Y-71490699D01*
X66760238Y-71490699D02*
X66639286Y-71611652D01*
X66639286Y-71611652D02*
X66518333Y-71672128D01*
X68030238Y-71309271D02*
X68151191Y-71309271D01*
X68151191Y-71309271D02*
X68272143Y-71369747D01*
X68272143Y-71369747D02*
X68332619Y-71430223D01*
X68332619Y-71430223D02*
X68393095Y-71551175D01*
X68393095Y-71551175D02*
X68453572Y-71793080D01*
X68453572Y-71793080D02*
X68453572Y-72095461D01*
X68453572Y-72095461D02*
X68393095Y-72337366D01*
X68393095Y-72337366D02*
X68332619Y-72458318D01*
X68332619Y-72458318D02*
X68272143Y-72518795D01*
X68272143Y-72518795D02*
X68151191Y-72579271D01*
X68151191Y-72579271D02*
X68030238Y-72579271D01*
X68030238Y-72579271D02*
X67909286Y-72518795D01*
X67909286Y-72518795D02*
X67848810Y-72458318D01*
X67848810Y-72458318D02*
X67788333Y-72337366D01*
X67788333Y-72337366D02*
X67727857Y-72095461D01*
X67727857Y-72095461D02*
X67727857Y-71793080D01*
X67727857Y-71793080D02*
X67788333Y-71551175D01*
X67788333Y-71551175D02*
X67848810Y-71430223D01*
X67848810Y-71430223D02*
X67909286Y-71369747D01*
X67909286Y-71369747D02*
X68030238Y-71309271D01*
X68997857Y-72579271D02*
X68997857Y-71309271D01*
X69118810Y-72095461D02*
X69481667Y-72579271D01*
X69481667Y-71732604D02*
X68997857Y-72216414D01*
X59224523Y-25216414D02*
X59829285Y-25216414D01*
X59103571Y-25579271D02*
X59526904Y-24309271D01*
X59526904Y-24309271D02*
X59950238Y-25579271D01*
X60796904Y-24914033D02*
X60373570Y-24914033D01*
X60373570Y-25579271D02*
X60373570Y-24309271D01*
X60373570Y-24309271D02*
X60978332Y-24309271D01*
X61462141Y-24914033D02*
X61885475Y-24914033D01*
X62066903Y-25579271D02*
X61462141Y-25579271D01*
X61462141Y-25579271D02*
X61462141Y-24309271D01*
X61462141Y-24309271D02*
X62066903Y-24309271D01*
X63155475Y-24732604D02*
X63155475Y-25579271D01*
X62853094Y-24248795D02*
X62550713Y-25155937D01*
X62550713Y-25155937D02*
X63336904Y-25155937D01*
X63699761Y-24309271D02*
X64485952Y-24309271D01*
X64485952Y-24309271D02*
X64062618Y-24793080D01*
X64062618Y-24793080D02*
X64244047Y-24793080D01*
X64244047Y-24793080D02*
X64364999Y-24853556D01*
X64364999Y-24853556D02*
X64425475Y-24914033D01*
X64425475Y-24914033D02*
X64485952Y-25034985D01*
X64485952Y-25034985D02*
X64485952Y-25337366D01*
X64485952Y-25337366D02*
X64425475Y-25458318D01*
X64425475Y-25458318D02*
X64364999Y-25518795D01*
X64364999Y-25518795D02*
X64244047Y-25579271D01*
X64244047Y-25579271D02*
X63881190Y-25579271D01*
X63881190Y-25579271D02*
X63760237Y-25518795D01*
X63760237Y-25518795D02*
X63699761Y-25458318D01*
X65272142Y-24309271D02*
X65393095Y-24309271D01*
X65393095Y-24309271D02*
X65514047Y-24369747D01*
X65514047Y-24369747D02*
X65574523Y-24430223D01*
X65574523Y-24430223D02*
X65634999Y-24551175D01*
X65634999Y-24551175D02*
X65695476Y-24793080D01*
X65695476Y-24793080D02*
X65695476Y-25095461D01*
X65695476Y-25095461D02*
X65634999Y-25337366D01*
X65634999Y-25337366D02*
X65574523Y-25458318D01*
X65574523Y-25458318D02*
X65514047Y-25518795D01*
X65514047Y-25518795D02*
X65393095Y-25579271D01*
X65393095Y-25579271D02*
X65272142Y-25579271D01*
X65272142Y-25579271D02*
X65151190Y-25518795D01*
X65151190Y-25518795D02*
X65090714Y-25458318D01*
X65090714Y-25458318D02*
X65030237Y-25337366D01*
X65030237Y-25337366D02*
X64969761Y-25095461D01*
X64969761Y-25095461D02*
X64969761Y-24793080D01*
X64969761Y-24793080D02*
X65030237Y-24551175D01*
X65030237Y-24551175D02*
X65090714Y-24430223D01*
X65090714Y-24430223D02*
X65151190Y-24369747D01*
X65151190Y-24369747D02*
X65272142Y-24309271D01*
X66481666Y-24309271D02*
X66602619Y-24309271D01*
X66602619Y-24309271D02*
X66723571Y-24369747D01*
X66723571Y-24369747D02*
X66784047Y-24430223D01*
X66784047Y-24430223D02*
X66844523Y-24551175D01*
X66844523Y-24551175D02*
X66905000Y-24793080D01*
X66905000Y-24793080D02*
X66905000Y-25095461D01*
X66905000Y-25095461D02*
X66844523Y-25337366D01*
X66844523Y-25337366D02*
X66784047Y-25458318D01*
X66784047Y-25458318D02*
X66723571Y-25518795D01*
X66723571Y-25518795D02*
X66602619Y-25579271D01*
X66602619Y-25579271D02*
X66481666Y-25579271D01*
X66481666Y-25579271D02*
X66360714Y-25518795D01*
X66360714Y-25518795D02*
X66300238Y-25458318D01*
X66300238Y-25458318D02*
X66239761Y-25337366D01*
X66239761Y-25337366D02*
X66179285Y-25095461D01*
X66179285Y-25095461D02*
X66179285Y-24793080D01*
X66179285Y-24793080D02*
X66239761Y-24551175D01*
X66239761Y-24551175D02*
X66300238Y-24430223D01*
X66300238Y-24430223D02*
X66360714Y-24369747D01*
X66360714Y-24369747D02*
X66481666Y-24309271D01*
X67449285Y-25579271D02*
X67449285Y-24309271D01*
X67449285Y-24309271D02*
X67933095Y-24309271D01*
X67933095Y-24309271D02*
X68054047Y-24369747D01*
X68054047Y-24369747D02*
X68114524Y-24430223D01*
X68114524Y-24430223D02*
X68175000Y-24551175D01*
X68175000Y-24551175D02*
X68175000Y-24732604D01*
X68175000Y-24732604D02*
X68114524Y-24853556D01*
X68114524Y-24853556D02*
X68054047Y-24914033D01*
X68054047Y-24914033D02*
X67933095Y-24974509D01*
X67933095Y-24974509D02*
X67449285Y-24974509D01*
X68719285Y-25579271D02*
X68719285Y-24309271D01*
X68719285Y-24309271D02*
X69445000Y-25579271D01*
X69445000Y-25579271D02*
X69445000Y-24309271D01*
X70775476Y-25579271D02*
X70352142Y-24974509D01*
X70049761Y-25579271D02*
X70049761Y-24309271D01*
X70049761Y-24309271D02*
X70533571Y-24309271D01*
X70533571Y-24309271D02*
X70654523Y-24369747D01*
X70654523Y-24369747D02*
X70715000Y-24430223D01*
X70715000Y-24430223D02*
X70775476Y-24551175D01*
X70775476Y-24551175D02*
X70775476Y-24732604D01*
X70775476Y-24732604D02*
X70715000Y-24853556D01*
X70715000Y-24853556D02*
X70654523Y-24914033D01*
X70654523Y-24914033D02*
X70533571Y-24974509D01*
X70533571Y-24974509D02*
X70049761Y-24974509D01*
X26034524Y-18579271D02*
X25308809Y-18579271D01*
X25671666Y-18579271D02*
X25671666Y-17309271D01*
X25671666Y-17309271D02*
X25550714Y-17490699D01*
X25550714Y-17490699D02*
X25429762Y-17611652D01*
X25429762Y-17611652D02*
X25308809Y-17672128D01*
X26820714Y-17309271D02*
X26941667Y-17309271D01*
X26941667Y-17309271D02*
X27062619Y-17369747D01*
X27062619Y-17369747D02*
X27123095Y-17430223D01*
X27123095Y-17430223D02*
X27183571Y-17551175D01*
X27183571Y-17551175D02*
X27244048Y-17793080D01*
X27244048Y-17793080D02*
X27244048Y-18095461D01*
X27244048Y-18095461D02*
X27183571Y-18337366D01*
X27183571Y-18337366D02*
X27123095Y-18458318D01*
X27123095Y-18458318D02*
X27062619Y-18518795D01*
X27062619Y-18518795D02*
X26941667Y-18579271D01*
X26941667Y-18579271D02*
X26820714Y-18579271D01*
X26820714Y-18579271D02*
X26699762Y-18518795D01*
X26699762Y-18518795D02*
X26639286Y-18458318D01*
X26639286Y-18458318D02*
X26578809Y-18337366D01*
X26578809Y-18337366D02*
X26518333Y-18095461D01*
X26518333Y-18095461D02*
X26518333Y-17793080D01*
X26518333Y-17793080D02*
X26578809Y-17551175D01*
X26578809Y-17551175D02*
X26639286Y-17430223D01*
X26639286Y-17430223D02*
X26699762Y-17369747D01*
X26699762Y-17369747D02*
X26820714Y-17309271D01*
X28030238Y-17309271D02*
X28151191Y-17309271D01*
X28151191Y-17309271D02*
X28272143Y-17369747D01*
X28272143Y-17369747D02*
X28332619Y-17430223D01*
X28332619Y-17430223D02*
X28393095Y-17551175D01*
X28393095Y-17551175D02*
X28453572Y-17793080D01*
X28453572Y-17793080D02*
X28453572Y-18095461D01*
X28453572Y-18095461D02*
X28393095Y-18337366D01*
X28393095Y-18337366D02*
X28332619Y-18458318D01*
X28332619Y-18458318D02*
X28272143Y-18518795D01*
X28272143Y-18518795D02*
X28151191Y-18579271D01*
X28151191Y-18579271D02*
X28030238Y-18579271D01*
X28030238Y-18579271D02*
X27909286Y-18518795D01*
X27909286Y-18518795D02*
X27848810Y-18458318D01*
X27848810Y-18458318D02*
X27788333Y-18337366D01*
X27788333Y-18337366D02*
X27727857Y-18095461D01*
X27727857Y-18095461D02*
X27727857Y-17793080D01*
X27727857Y-17793080D02*
X27788333Y-17551175D01*
X27788333Y-17551175D02*
X27848810Y-17430223D01*
X27848810Y-17430223D02*
X27909286Y-17369747D01*
X27909286Y-17369747D02*
X28030238Y-17309271D01*
X28997857Y-17732604D02*
X28997857Y-18579271D01*
X28997857Y-17853556D02*
X29058334Y-17793080D01*
X29058334Y-17793080D02*
X29179286Y-17732604D01*
X29179286Y-17732604D02*
X29360715Y-17732604D01*
X29360715Y-17732604D02*
X29481667Y-17793080D01*
X29481667Y-17793080D02*
X29542143Y-17914033D01*
X29542143Y-17914033D02*
X29542143Y-18579271D01*
X30570239Y-17914033D02*
X30146905Y-17914033D01*
X30146905Y-18579271D02*
X30146905Y-17309271D01*
X30146905Y-17309271D02*
X30751667Y-17309271D01*
X34034524Y-26579271D02*
X33308809Y-26579271D01*
X33671666Y-26579271D02*
X33671666Y-25309271D01*
X33671666Y-25309271D02*
X33550714Y-25490699D01*
X33550714Y-25490699D02*
X33429762Y-25611652D01*
X33429762Y-25611652D02*
X33308809Y-25672128D01*
X34820714Y-25309271D02*
X34941667Y-25309271D01*
X34941667Y-25309271D02*
X35062619Y-25369747D01*
X35062619Y-25369747D02*
X35123095Y-25430223D01*
X35123095Y-25430223D02*
X35183571Y-25551175D01*
X35183571Y-25551175D02*
X35244048Y-25793080D01*
X35244048Y-25793080D02*
X35244048Y-26095461D01*
X35244048Y-26095461D02*
X35183571Y-26337366D01*
X35183571Y-26337366D02*
X35123095Y-26458318D01*
X35123095Y-26458318D02*
X35062619Y-26518795D01*
X35062619Y-26518795D02*
X34941667Y-26579271D01*
X34941667Y-26579271D02*
X34820714Y-26579271D01*
X34820714Y-26579271D02*
X34699762Y-26518795D01*
X34699762Y-26518795D02*
X34639286Y-26458318D01*
X34639286Y-26458318D02*
X34578809Y-26337366D01*
X34578809Y-26337366D02*
X34518333Y-26095461D01*
X34518333Y-26095461D02*
X34518333Y-25793080D01*
X34518333Y-25793080D02*
X34578809Y-25551175D01*
X34578809Y-25551175D02*
X34639286Y-25430223D01*
X34639286Y-25430223D02*
X34699762Y-25369747D01*
X34699762Y-25369747D02*
X34820714Y-25309271D01*
X36030238Y-25309271D02*
X36151191Y-25309271D01*
X36151191Y-25309271D02*
X36272143Y-25369747D01*
X36272143Y-25369747D02*
X36332619Y-25430223D01*
X36332619Y-25430223D02*
X36393095Y-25551175D01*
X36393095Y-25551175D02*
X36453572Y-25793080D01*
X36453572Y-25793080D02*
X36453572Y-26095461D01*
X36453572Y-26095461D02*
X36393095Y-26337366D01*
X36393095Y-26337366D02*
X36332619Y-26458318D01*
X36332619Y-26458318D02*
X36272143Y-26518795D01*
X36272143Y-26518795D02*
X36151191Y-26579271D01*
X36151191Y-26579271D02*
X36030238Y-26579271D01*
X36030238Y-26579271D02*
X35909286Y-26518795D01*
X35909286Y-26518795D02*
X35848810Y-26458318D01*
X35848810Y-26458318D02*
X35788333Y-26337366D01*
X35788333Y-26337366D02*
X35727857Y-26095461D01*
X35727857Y-26095461D02*
X35727857Y-25793080D01*
X35727857Y-25793080D02*
X35788333Y-25551175D01*
X35788333Y-25551175D02*
X35848810Y-25430223D01*
X35848810Y-25430223D02*
X35909286Y-25369747D01*
X35909286Y-25369747D02*
X36030238Y-25309271D01*
X36997857Y-25732604D02*
X36997857Y-26579271D01*
X36997857Y-25853556D02*
X37058334Y-25793080D01*
X37058334Y-25793080D02*
X37179286Y-25732604D01*
X37179286Y-25732604D02*
X37360715Y-25732604D01*
X37360715Y-25732604D02*
X37481667Y-25793080D01*
X37481667Y-25793080D02*
X37542143Y-25914033D01*
X37542143Y-25914033D02*
X37542143Y-26579271D01*
X38570239Y-25914033D02*
X38146905Y-25914033D01*
X38146905Y-26579271D02*
X38146905Y-25309271D01*
X38146905Y-25309271D02*
X38751667Y-25309271D01*
X61881190Y-5309271D02*
X61276428Y-5309271D01*
X61276428Y-5309271D02*
X61215952Y-5914033D01*
X61215952Y-5914033D02*
X61276428Y-5853556D01*
X61276428Y-5853556D02*
X61397381Y-5793080D01*
X61397381Y-5793080D02*
X61699762Y-5793080D01*
X61699762Y-5793080D02*
X61820714Y-5853556D01*
X61820714Y-5853556D02*
X61881190Y-5914033D01*
X61881190Y-5914033D02*
X61941667Y-6034985D01*
X61941667Y-6034985D02*
X61941667Y-6337366D01*
X61941667Y-6337366D02*
X61881190Y-6458318D01*
X61881190Y-6458318D02*
X61820714Y-6518795D01*
X61820714Y-6518795D02*
X61699762Y-6579271D01*
X61699762Y-6579271D02*
X61397381Y-6579271D01*
X61397381Y-6579271D02*
X61276428Y-6518795D01*
X61276428Y-6518795D02*
X61215952Y-6458318D01*
X62485952Y-6458318D02*
X62546429Y-6518795D01*
X62546429Y-6518795D02*
X62485952Y-6579271D01*
X62485952Y-6579271D02*
X62425476Y-6518795D01*
X62425476Y-6518795D02*
X62485952Y-6458318D01*
X62485952Y-6458318D02*
X62485952Y-6579271D01*
X63755953Y-6579271D02*
X63030238Y-6579271D01*
X63393095Y-6579271D02*
X63393095Y-5309271D01*
X63393095Y-5309271D02*
X63272143Y-5490699D01*
X63272143Y-5490699D02*
X63151191Y-5611652D01*
X63151191Y-5611652D02*
X63030238Y-5672128D01*
X64300238Y-6579271D02*
X64300238Y-5309271D01*
X64421191Y-6095461D02*
X64784048Y-6579271D01*
X64784048Y-5732604D02*
X64300238Y-6216414D01*
X65244048Y-32579271D02*
X64518333Y-32579271D01*
X64881190Y-32579271D02*
X64881190Y-31309271D01*
X64881190Y-31309271D02*
X64760238Y-31490699D01*
X64760238Y-31490699D02*
X64639286Y-31611652D01*
X64639286Y-31611652D02*
X64518333Y-31672128D01*
X66332619Y-31732604D02*
X66332619Y-32579271D01*
X65788333Y-31732604D02*
X65788333Y-32397842D01*
X65788333Y-32397842D02*
X65848810Y-32518795D01*
X65848810Y-32518795D02*
X65969762Y-32579271D01*
X65969762Y-32579271D02*
X66151191Y-32579271D01*
X66151191Y-32579271D02*
X66272143Y-32518795D01*
X66272143Y-32518795D02*
X66332619Y-32458318D01*
X67360715Y-31914033D02*
X66937381Y-31914033D01*
X66937381Y-32579271D02*
X66937381Y-31309271D01*
X66937381Y-31309271D02*
X67542143Y-31309271D01*
X65579271Y-83829523D02*
X64309271Y-83829523D01*
X64309271Y-83829523D02*
X65579271Y-83103808D01*
X65579271Y-83103808D02*
X64309271Y-83103808D01*
X65579271Y-81773332D02*
X64974509Y-82196666D01*
X65579271Y-82499047D02*
X64309271Y-82499047D01*
X64309271Y-82499047D02*
X64309271Y-82015237D01*
X64309271Y-82015237D02*
X64369747Y-81894285D01*
X64369747Y-81894285D02*
X64430223Y-81833808D01*
X64430223Y-81833808D02*
X64551175Y-81773332D01*
X64551175Y-81773332D02*
X64732604Y-81773332D01*
X64732604Y-81773332D02*
X64853556Y-81833808D01*
X64853556Y-81833808D02*
X64914033Y-81894285D01*
X64914033Y-81894285D02*
X64974509Y-82015237D01*
X64974509Y-82015237D02*
X64974509Y-82499047D01*
X64914033Y-80805713D02*
X64914033Y-81229047D01*
X65579271Y-81229047D02*
X64309271Y-81229047D01*
X64309271Y-81229047D02*
X64309271Y-80624285D01*
X64309271Y-79535714D02*
X64309271Y-80140476D01*
X64309271Y-80140476D02*
X64914033Y-80200952D01*
X64914033Y-80200952D02*
X64853556Y-80140476D01*
X64853556Y-80140476D02*
X64793080Y-80019523D01*
X64793080Y-80019523D02*
X64793080Y-79717142D01*
X64793080Y-79717142D02*
X64853556Y-79596190D01*
X64853556Y-79596190D02*
X64914033Y-79535714D01*
X64914033Y-79535714D02*
X65034985Y-79475237D01*
X65034985Y-79475237D02*
X65337366Y-79475237D01*
X65337366Y-79475237D02*
X65458318Y-79535714D01*
X65458318Y-79535714D02*
X65518795Y-79596190D01*
X65518795Y-79596190D02*
X65579271Y-79717142D01*
X65579271Y-79717142D02*
X65579271Y-80019523D01*
X65579271Y-80019523D02*
X65518795Y-80140476D01*
X65518795Y-80140476D02*
X65458318Y-80200952D01*
X64430223Y-78991428D02*
X64369747Y-78930952D01*
X64369747Y-78930952D02*
X64309271Y-78809999D01*
X64309271Y-78809999D02*
X64309271Y-78507618D01*
X64309271Y-78507618D02*
X64369747Y-78386666D01*
X64369747Y-78386666D02*
X64430223Y-78326190D01*
X64430223Y-78326190D02*
X64551175Y-78265713D01*
X64551175Y-78265713D02*
X64672128Y-78265713D01*
X64672128Y-78265713D02*
X64853556Y-78326190D01*
X64853556Y-78326190D02*
X65579271Y-79051904D01*
X65579271Y-79051904D02*
X65579271Y-78265713D01*
X64853556Y-77539999D02*
X64793080Y-77660951D01*
X64793080Y-77660951D02*
X64732604Y-77721428D01*
X64732604Y-77721428D02*
X64611652Y-77781904D01*
X64611652Y-77781904D02*
X64551175Y-77781904D01*
X64551175Y-77781904D02*
X64430223Y-77721428D01*
X64430223Y-77721428D02*
X64369747Y-77660951D01*
X64369747Y-77660951D02*
X64309271Y-77539999D01*
X64309271Y-77539999D02*
X64309271Y-77298094D01*
X64309271Y-77298094D02*
X64369747Y-77177142D01*
X64369747Y-77177142D02*
X64430223Y-77116666D01*
X64430223Y-77116666D02*
X64551175Y-77056189D01*
X64551175Y-77056189D02*
X64611652Y-77056189D01*
X64611652Y-77056189D02*
X64732604Y-77116666D01*
X64732604Y-77116666D02*
X64793080Y-77177142D01*
X64793080Y-77177142D02*
X64853556Y-77298094D01*
X64853556Y-77298094D02*
X64853556Y-77539999D01*
X64853556Y-77539999D02*
X64914033Y-77660951D01*
X64914033Y-77660951D02*
X64974509Y-77721428D01*
X64974509Y-77721428D02*
X65095461Y-77781904D01*
X65095461Y-77781904D02*
X65337366Y-77781904D01*
X65337366Y-77781904D02*
X65458318Y-77721428D01*
X65458318Y-77721428D02*
X65518795Y-77660951D01*
X65518795Y-77660951D02*
X65579271Y-77539999D01*
X65579271Y-77539999D02*
X65579271Y-77298094D01*
X65579271Y-77298094D02*
X65518795Y-77177142D01*
X65518795Y-77177142D02*
X65458318Y-77116666D01*
X65458318Y-77116666D02*
X65337366Y-77056189D01*
X65337366Y-77056189D02*
X65095461Y-77056189D01*
X65095461Y-77056189D02*
X64974509Y-77116666D01*
X64974509Y-77116666D02*
X64914033Y-77177142D01*
X64914033Y-77177142D02*
X64853556Y-77298094D01*
X64732604Y-75967618D02*
X65579271Y-75967618D01*
X64248795Y-76269999D02*
X65155937Y-76572380D01*
X65155937Y-76572380D02*
X65155937Y-75786189D01*
X64309271Y-75060475D02*
X64309271Y-74939522D01*
X64309271Y-74939522D02*
X64369747Y-74818570D01*
X64369747Y-74818570D02*
X64430223Y-74758094D01*
X64430223Y-74758094D02*
X64551175Y-74697618D01*
X64551175Y-74697618D02*
X64793080Y-74637141D01*
X64793080Y-74637141D02*
X65095461Y-74637141D01*
X65095461Y-74637141D02*
X65337366Y-74697618D01*
X65337366Y-74697618D02*
X65458318Y-74758094D01*
X65458318Y-74758094D02*
X65518795Y-74818570D01*
X65518795Y-74818570D02*
X65579271Y-74939522D01*
X65579271Y-74939522D02*
X65579271Y-75060475D01*
X65579271Y-75060475D02*
X65518795Y-75181427D01*
X65518795Y-75181427D02*
X65458318Y-75241903D01*
X65458318Y-75241903D02*
X65337366Y-75302380D01*
X65337366Y-75302380D02*
X65095461Y-75362856D01*
X65095461Y-75362856D02*
X64793080Y-75362856D01*
X64793080Y-75362856D02*
X64551175Y-75302380D01*
X64551175Y-75302380D02*
X64430223Y-75241903D01*
X64430223Y-75241903D02*
X64369747Y-75181427D01*
X64369747Y-75181427D02*
X64309271Y-75060475D01*
X65095461Y-74092856D02*
X65095461Y-73125237D01*
X65700223Y-71673808D02*
X65639747Y-71794760D01*
X65639747Y-71794760D02*
X65518795Y-71915713D01*
X65518795Y-71915713D02*
X65337366Y-72097141D01*
X65337366Y-72097141D02*
X65276890Y-72218094D01*
X65276890Y-72218094D02*
X65276890Y-72339046D01*
X65579271Y-72278570D02*
X65518795Y-72399522D01*
X65518795Y-72399522D02*
X65397842Y-72520475D01*
X65397842Y-72520475D02*
X65155937Y-72580951D01*
X65155937Y-72580951D02*
X64732604Y-72580951D01*
X64732604Y-72580951D02*
X64490699Y-72520475D01*
X64490699Y-72520475D02*
X64369747Y-72399522D01*
X64369747Y-72399522D02*
X64309271Y-72278570D01*
X64309271Y-72278570D02*
X64309271Y-72036665D01*
X64309271Y-72036665D02*
X64369747Y-71915713D01*
X64369747Y-71915713D02*
X64490699Y-71794760D01*
X64490699Y-71794760D02*
X64732604Y-71734284D01*
X64732604Y-71734284D02*
X65155937Y-71734284D01*
X65155937Y-71734284D02*
X65397842Y-71794760D01*
X65397842Y-71794760D02*
X65518795Y-71915713D01*
X65518795Y-71915713D02*
X65579271Y-72036665D01*
X65579271Y-72036665D02*
X65579271Y-72278570D01*
X65579271Y-71189999D02*
X64309271Y-71189999D01*
X65216414Y-70645713D02*
X65216414Y-70040951D01*
X65579271Y-70766665D02*
X64309271Y-70343332D01*
X64309271Y-70343332D02*
X65579271Y-69919998D01*
X65216414Y-69557142D02*
X65216414Y-68952380D01*
X65579271Y-69678094D02*
X64309271Y-69254761D01*
X64309271Y-69254761D02*
X65579271Y-68831427D01*
X65095461Y-68408095D02*
X65095461Y-67440476D01*
X65579271Y-66109999D02*
X64974509Y-66533333D01*
X65579271Y-66835714D02*
X64309271Y-66835714D01*
X64309271Y-66835714D02*
X64309271Y-66351904D01*
X64309271Y-66351904D02*
X64369747Y-66230952D01*
X64369747Y-66230952D02*
X64430223Y-66170475D01*
X64430223Y-66170475D02*
X64551175Y-66109999D01*
X64551175Y-66109999D02*
X64732604Y-66109999D01*
X64732604Y-66109999D02*
X64853556Y-66170475D01*
X64853556Y-66170475D02*
X64914033Y-66230952D01*
X64914033Y-66230952D02*
X64974509Y-66351904D01*
X64974509Y-66351904D02*
X64974509Y-66835714D01*
X88740713Y-75579271D02*
X88740713Y-74309271D01*
X88740713Y-74309271D02*
X89224523Y-74309271D01*
X89224523Y-74309271D02*
X89345475Y-74369747D01*
X89345475Y-74369747D02*
X89405952Y-74430223D01*
X89405952Y-74430223D02*
X89466428Y-74551175D01*
X89466428Y-74551175D02*
X89466428Y-74732604D01*
X89466428Y-74732604D02*
X89405952Y-74853556D01*
X89405952Y-74853556D02*
X89345475Y-74914033D01*
X89345475Y-74914033D02*
X89224523Y-74974509D01*
X89224523Y-74974509D02*
X88740713Y-74974509D01*
X90010713Y-74914033D02*
X90434047Y-74914033D01*
X90615475Y-75579271D02*
X90010713Y-75579271D01*
X90010713Y-75579271D02*
X90010713Y-74309271D01*
X90010713Y-74309271D02*
X90615475Y-74309271D01*
X91099285Y-75518795D02*
X91280714Y-75579271D01*
X91280714Y-75579271D02*
X91583095Y-75579271D01*
X91583095Y-75579271D02*
X91704047Y-75518795D01*
X91704047Y-75518795D02*
X91764523Y-75458318D01*
X91764523Y-75458318D02*
X91825000Y-75337366D01*
X91825000Y-75337366D02*
X91825000Y-75216414D01*
X91825000Y-75216414D02*
X91764523Y-75095461D01*
X91764523Y-75095461D02*
X91704047Y-75034985D01*
X91704047Y-75034985D02*
X91583095Y-74974509D01*
X91583095Y-74974509D02*
X91341190Y-74914033D01*
X91341190Y-74914033D02*
X91220238Y-74853556D01*
X91220238Y-74853556D02*
X91159761Y-74793080D01*
X91159761Y-74793080D02*
X91099285Y-74672128D01*
X91099285Y-74672128D02*
X91099285Y-74551175D01*
X91099285Y-74551175D02*
X91159761Y-74430223D01*
X91159761Y-74430223D02*
X91220238Y-74369747D01*
X91220238Y-74369747D02*
X91341190Y-74309271D01*
X91341190Y-74309271D02*
X91643571Y-74309271D01*
X91643571Y-74309271D02*
X91825000Y-74369747D01*
X92369285Y-75579271D02*
X92369285Y-74309271D01*
X92369285Y-74309271D02*
X92671666Y-74309271D01*
X92671666Y-74309271D02*
X92853095Y-74369747D01*
X92853095Y-74369747D02*
X92974047Y-74490699D01*
X92974047Y-74490699D02*
X93034524Y-74611652D01*
X93034524Y-74611652D02*
X93095000Y-74853556D01*
X93095000Y-74853556D02*
X93095000Y-75034985D01*
X93095000Y-75034985D02*
X93034524Y-75276890D01*
X93034524Y-75276890D02*
X92974047Y-75397842D01*
X92974047Y-75397842D02*
X92853095Y-75518795D01*
X92853095Y-75518795D02*
X92671666Y-75579271D01*
X92671666Y-75579271D02*
X92369285Y-75579271D01*
X94244047Y-74309271D02*
X93639285Y-74309271D01*
X93639285Y-74309271D02*
X93578809Y-74914033D01*
X93578809Y-74914033D02*
X93639285Y-74853556D01*
X93639285Y-74853556D02*
X93760238Y-74793080D01*
X93760238Y-74793080D02*
X94062619Y-74793080D01*
X94062619Y-74793080D02*
X94183571Y-74853556D01*
X94183571Y-74853556D02*
X94244047Y-74914033D01*
X94244047Y-74914033D02*
X94304524Y-75034985D01*
X94304524Y-75034985D02*
X94304524Y-75337366D01*
X94304524Y-75337366D02*
X94244047Y-75458318D01*
X94244047Y-75458318D02*
X94183571Y-75518795D01*
X94183571Y-75518795D02*
X94062619Y-75579271D01*
X94062619Y-75579271D02*
X93760238Y-75579271D01*
X93760238Y-75579271D02*
X93639285Y-75518795D01*
X93639285Y-75518795D02*
X93578809Y-75458318D01*
X94667381Y-74309271D02*
X95090714Y-75579271D01*
X95090714Y-75579271D02*
X95514048Y-74309271D01*
X96179285Y-74309271D02*
X96300238Y-74309271D01*
X96300238Y-74309271D02*
X96421190Y-74369747D01*
X96421190Y-74369747D02*
X96481666Y-74430223D01*
X96481666Y-74430223D02*
X96542142Y-74551175D01*
X96542142Y-74551175D02*
X96602619Y-74793080D01*
X96602619Y-74793080D02*
X96602619Y-75095461D01*
X96602619Y-75095461D02*
X96542142Y-75337366D01*
X96542142Y-75337366D02*
X96481666Y-75458318D01*
X96481666Y-75458318D02*
X96421190Y-75518795D01*
X96421190Y-75518795D02*
X96300238Y-75579271D01*
X96300238Y-75579271D02*
X96179285Y-75579271D01*
X96179285Y-75579271D02*
X96058333Y-75518795D01*
X96058333Y-75518795D02*
X95997857Y-75458318D01*
X95997857Y-75458318D02*
X95937380Y-75337366D01*
X95937380Y-75337366D02*
X95876904Y-75095461D01*
X95876904Y-75095461D02*
X95876904Y-74793080D01*
X95876904Y-74793080D02*
X95937380Y-74551175D01*
X95937380Y-74551175D02*
X95997857Y-74430223D01*
X95997857Y-74430223D02*
X96058333Y-74369747D01*
X96058333Y-74369747D02*
X96179285Y-74309271D01*
X97086428Y-75518795D02*
X97267857Y-75579271D01*
X97267857Y-75579271D02*
X97570238Y-75579271D01*
X97570238Y-75579271D02*
X97691190Y-75518795D01*
X97691190Y-75518795D02*
X97751666Y-75458318D01*
X97751666Y-75458318D02*
X97812143Y-75337366D01*
X97812143Y-75337366D02*
X97812143Y-75216414D01*
X97812143Y-75216414D02*
X97751666Y-75095461D01*
X97751666Y-75095461D02*
X97691190Y-75034985D01*
X97691190Y-75034985D02*
X97570238Y-74974509D01*
X97570238Y-74974509D02*
X97328333Y-74914033D01*
X97328333Y-74914033D02*
X97207381Y-74853556D01*
X97207381Y-74853556D02*
X97146904Y-74793080D01*
X97146904Y-74793080D02*
X97086428Y-74672128D01*
X97086428Y-74672128D02*
X97086428Y-74551175D01*
X97086428Y-74551175D02*
X97146904Y-74430223D01*
X97146904Y-74430223D02*
X97207381Y-74369747D01*
X97207381Y-74369747D02*
X97328333Y-74309271D01*
X97328333Y-74309271D02*
X97630714Y-74309271D01*
X97630714Y-74309271D02*
X97812143Y-74369747D01*
X99021667Y-75579271D02*
X98295952Y-75579271D01*
X98658809Y-75579271D02*
X98658809Y-74309271D01*
X98658809Y-74309271D02*
X98537857Y-74490699D01*
X98537857Y-74490699D02*
X98416905Y-74611652D01*
X98416905Y-74611652D02*
X98295952Y-74672128D01*
X99989286Y-74914033D02*
X100170714Y-74974509D01*
X100170714Y-74974509D02*
X100231191Y-75034985D01*
X100231191Y-75034985D02*
X100291667Y-75155937D01*
X100291667Y-75155937D02*
X100291667Y-75337366D01*
X100291667Y-75337366D02*
X100231191Y-75458318D01*
X100231191Y-75458318D02*
X100170714Y-75518795D01*
X100170714Y-75518795D02*
X100049762Y-75579271D01*
X100049762Y-75579271D02*
X99565952Y-75579271D01*
X99565952Y-75579271D02*
X99565952Y-74309271D01*
X99565952Y-74309271D02*
X99989286Y-74309271D01*
X99989286Y-74309271D02*
X100110238Y-74369747D01*
X100110238Y-74369747D02*
X100170714Y-74430223D01*
X100170714Y-74430223D02*
X100231191Y-74551175D01*
X100231191Y-74551175D02*
X100231191Y-74672128D01*
X100231191Y-74672128D02*
X100170714Y-74793080D01*
X100170714Y-74793080D02*
X100110238Y-74853556D01*
X100110238Y-74853556D02*
X99989286Y-74914033D01*
X99989286Y-74914033D02*
X99565952Y-74914033D01*
X101440714Y-75579271D02*
X100835952Y-75579271D01*
X100835952Y-75579271D02*
X100835952Y-74309271D01*
X25913571Y-11430223D02*
X25974047Y-11369747D01*
X25974047Y-11369747D02*
X26095000Y-11309271D01*
X26095000Y-11309271D02*
X26397381Y-11309271D01*
X26397381Y-11309271D02*
X26518333Y-11369747D01*
X26518333Y-11369747D02*
X26578809Y-11430223D01*
X26578809Y-11430223D02*
X26639286Y-11551175D01*
X26639286Y-11551175D02*
X26639286Y-11672128D01*
X26639286Y-11672128D02*
X26578809Y-11853556D01*
X26578809Y-11853556D02*
X25853095Y-12579271D01*
X25853095Y-12579271D02*
X26639286Y-12579271D01*
X27123095Y-11430223D02*
X27183571Y-11369747D01*
X27183571Y-11369747D02*
X27304524Y-11309271D01*
X27304524Y-11309271D02*
X27606905Y-11309271D01*
X27606905Y-11309271D02*
X27727857Y-11369747D01*
X27727857Y-11369747D02*
X27788333Y-11430223D01*
X27788333Y-11430223D02*
X27848810Y-11551175D01*
X27848810Y-11551175D02*
X27848810Y-11672128D01*
X27848810Y-11672128D02*
X27788333Y-11853556D01*
X27788333Y-11853556D02*
X27062619Y-12579271D01*
X27062619Y-12579271D02*
X27848810Y-12579271D01*
X28937381Y-11732604D02*
X28937381Y-12579271D01*
X28393095Y-11732604D02*
X28393095Y-12397842D01*
X28393095Y-12397842D02*
X28453572Y-12518795D01*
X28453572Y-12518795D02*
X28574524Y-12579271D01*
X28574524Y-12579271D02*
X28755953Y-12579271D01*
X28755953Y-12579271D02*
X28876905Y-12518795D01*
X28876905Y-12518795D02*
X28937381Y-12458318D01*
X29965477Y-11914033D02*
X29542143Y-11914033D01*
X29542143Y-12579271D02*
X29542143Y-11309271D01*
X29542143Y-11309271D02*
X30146905Y-11309271D01*
M02*
